<svg width="256" height="256" viewBox="0 0 256 256" fill="none" xmlns="http://www.w3.org/2000/svg">
<path d="M181.333 160H154.667H128" stroke="white" stroke-width="16" stroke-linecap="round"/>
<path d="M74.666 106.667L77.1663 108.75C90.8375 120.143 97.6733 125.839 97.6733 133.333C97.6733 140.828 90.8375 146.524 77.1663 157.917L74.666 160" stroke="white" stroke-width="16" stroke-linecap="round"/>
<path d="M234.666 128C234.666 178.283 234.666 203.425 219.045 219.045C203.425 234.667 178.282 234.667 128 234.667C77.7165 234.667 52.5749 234.667 36.954 219.045C21.333 203.425 21.333 178.283 21.333 128C21.333 77.7168 21.333 52.5753 36.954 36.9544C52.5749 21.3334 77.7165 21.3334 128 21.3334C178.282 21.3334 203.425 21.3334 219.045 36.9544C229.432 47.3409 232.913 61.9366 234.079 85.3334" stroke="white" stroke-width="16" stroke-linecap="round"/>
</svg>
