<svg width="48" height="48" viewBox="0 0 48 48" fill="none" xmlns="http://www.w3.org/2000/svg">
<g clip-path="url(#clip0_2_961)">
<path d="M23.9072 0.65625C10.7053 0.65625 0 11.3597 0 24.5634C0 35.1264 6.85013 44.0878 16.3493 47.2491C17.544 47.4703 17.9827 46.7304 17.9827 46.0989C17.9827 45.5289 17.9604 43.6455 17.9503 41.6479C11.2991 43.0941 9.89569 38.8271 9.89569 38.8271C8.80819 36.0638 7.24125 35.3291 7.24125 35.3291C5.07225 33.8452 7.40475 33.8756 7.40475 33.8756C9.8055 34.0444 11.0696 36.3394 11.0696 36.3394C13.2019 39.9943 16.6624 38.9376 18.0266 38.3269C18.2411 36.7815 18.8608 35.727 19.5444 35.13C14.2344 34.5253 8.65219 32.4754 8.65219 23.3149C8.65219 20.7049 9.58613 18.5721 11.1156 16.8979C10.8673 16.2956 10.0491 13.8641 11.3471 10.5711C11.3471 10.5711 13.3547 9.9285 17.9233 13.0217C19.8302 12.4918 21.8754 12.2263 23.9072 12.2173C25.9389 12.2263 27.9857 12.4918 29.8963 13.0217C34.4595 9.9285 36.4643 10.5711 36.4643 10.5711C37.7655 13.8641 36.9469 16.2956 36.6986 16.8979C38.2314 18.5721 39.159 20.7047 39.159 23.3149C39.159 32.4971 33.5663 34.5191 28.2428 35.1109C29.1002 35.8528 29.8643 37.3078 29.8643 39.5381C29.8643 42.7369 29.8365 45.3114 29.8365 46.0989C29.8365 46.7351 30.2668 47.4806 31.4788 47.2459C40.9727 44.0811 47.8142 35.1229 47.8142 24.5634C47.8142 11.3597 37.1104 0.65625 23.9072 0.65625Z" fill="white"/>
<path d="M8.95404 34.7125C8.90154 34.8312 8.71442 34.8668 8.54436 34.7855C8.37092 34.7075 8.27342 34.5455 8.32967 34.4262C8.38123 34.304 8.56836 34.2698 8.74142 34.352C8.91523 34.4298 9.01423 34.5933 8.95404 34.7125ZM10.13 35.7618C10.016 35.8675 9.79311 35.8184 9.64179 35.6513C9.48542 35.4847 9.45617 35.2619 9.57186 35.1545C9.68942 35.0489 9.90561 35.0982 10.0624 35.2651C10.2187 35.4337 10.2491 35.6551 10.1299 35.762M10.9369 37.1043C10.7902 37.2061 10.5506 37.1107 10.4027 36.898C10.2562 36.6856 10.2562 36.4306 10.4059 36.3284C10.5544 36.2262 10.7902 36.3181 10.9402 36.529C11.0865 36.7452 11.0865 37.0002 10.9367 37.1045M12.3011 38.6592C12.17 38.8036 11.891 38.765 11.6867 38.5677C11.4778 38.375 11.4195 38.1014 11.5509 37.9568C11.6835 37.8121 11.9642 37.8528 12.17 38.0483C12.3776 38.2407 12.4408 38.5163 12.3011 38.6592ZM14.0644 39.1842C14.0068 39.3713 13.7379 39.4565 13.4672 39.377C13.1968 39.295 13.0198 39.0757 13.0744 38.8865C13.1306 38.698 13.4006 38.6093 13.6734 38.6945C13.9434 38.776 14.1206 38.9937 14.0644 39.1842ZM16.0714 39.4068C16.0781 39.604 15.8484 39.7675 15.5642 39.7711C15.2782 39.7773 15.047 39.6177 15.044 39.4238C15.044 39.2247 15.2685 39.0627 15.5542 39.058C15.8385 39.0524 16.0714 39.2108 16.0714 39.4068ZM18.0427 39.3312C18.0769 39.5236 17.8792 39.7212 17.597 39.7737C17.3195 39.8243 17.0627 39.7057 17.0272 39.515C16.9927 39.3177 17.1941 39.1203 17.471 39.0691C17.7538 39.02 18.0067 39.1357 18.0427 39.3312Z" fill="white"/>
</g>
<defs>
<clipPath id="clip0_2_961">
<rect width="48" height="48" fill="white"/>
</clipPath>
</defs>
</svg>
