<svg width="100" height="100" viewBox="0 0 100 100" fill="none" xmlns="http://www.w3.org/2000/svg">
<path fill-rule="evenodd" clip-rule="evenodd" d="M49.9968 1.04175C22.3874 1.04175 0 23.5148 0 51.243C0 73.4181 14.325 92.2331 34.1969 98.8718C36.6969 99.333 37.6094 97.783 37.6094 96.4528C37.6094 95.2606 37.5656 92.1044 37.5406 87.916C23.6312 90.9499 20.6969 81.1864 20.6969 81.1864C18.425 75.3885 15.1469 73.8449 15.1469 73.8449C10.6063 70.7294 15.4906 70.7921 15.4906 70.7921C20.5062 71.1466 23.1468 75.9657 23.1468 75.9657C27.6093 83.6366 34.85 81.4216 37.7 80.1353C38.1531 76.8912 39.4469 74.6794 40.875 73.4245C29.7719 72.157 18.1 67.8524 18.1 48.6171C18.1 43.1361 20.0469 38.6559 23.2469 35.1451C22.7313 33.8745 21.0157 28.7731 23.7344 21.8615C23.7344 21.8615 27.9344 20.5123 37.4844 27.0067C41.475 25.893 45.7501 25.3376 50.0032 25.3157C54.2501 25.3376 58.5281 25.893 62.5219 27.0067C72.0656 20.5123 76.2563 21.8615 76.2563 21.8615C78.9844 28.7731 77.2687 33.8745 76.7531 35.1451C79.9594 38.6559 81.8938 43.1361 81.8938 48.6171C81.8938 67.8995 70.2031 72.1443 59.0656 73.3867C60.8594 74.9366 62.4594 77.9988 62.4594 82.6829C62.4594 89.3938 62.3969 94.8057 62.3969 96.4528C62.3969 97.7956 63.2969 99.358 65.8344 98.8655C85.6875 92.2142 100 73.4118 100 51.243C100 23.5148 77.6124 1.04175 49.9968 1.04175Z" fill="#CCF382"/>
</svg>
