<svg width="500" height="217" viewBox="0 0 500 217" fill="none" xmlns="http://www.w3.org/2000/svg">
<g clip-path="url(#clip0_2_653)">
<path d="M490.244 0H9.7561C4.36795 0 0 4.36795 0 9.7561V206.341C0 211.73 4.36795 216.098 9.7561 216.098H490.244C495.632 216.098 500 211.73 500 206.341V9.7561C500 4.36795 495.632 0 490.244 0Z" fill="#201D1D"/>
<path d="M20.3471 29.7561H19.3113L22.3074 21.5964H23.3273L26.3235 29.7561H25.2876L22.8492 22.8873H22.7855L20.3471 29.7561ZM20.7296 26.5687H24.9051V27.4453H20.7296V26.5687ZM27.9291 29.7561H26.8932L29.8893 21.5964H30.9093L33.9054 29.7561H32.8695L30.4312 22.8873H30.3674L27.9291 29.7561ZM28.3116 26.5687H32.487V27.4453H28.3116V26.5687ZM35.1764 29.7561V21.5964H37.9334C38.5736 21.5964 39.0968 21.712 39.5032 21.9431C39.9123 22.1715 40.215 22.4809 40.4116 22.8714C40.6082 23.2618 40.7064 23.6975 40.7064 24.1782C40.7064 24.659 40.6082 25.0959 40.4116 25.489C40.2177 25.8821 39.9176 26.1956 39.5112 26.4293C39.1048 26.6604 38.5842 26.7759 37.9494 26.7759H35.9732V25.8994H37.9175C38.3558 25.8994 38.7077 25.8237 38.9733 25.6723C39.2389 25.5209 39.4315 25.3164 39.551 25.0587C39.6732 24.7984 39.7343 24.5049 39.7343 24.1782C39.7343 23.8515 39.6732 23.5593 39.551 23.3017C39.4315 23.044 39.2376 22.8422 38.9693 22.6961C38.701 22.5474 38.3451 22.473 37.9016 22.473H36.1644V29.7561H35.1764ZM42.2981 29.7561V21.5964H43.2862V28.8796H47.0792V29.7561H42.2981Z" fill="white"/>
<path d="M471.464 16.5854H445.122C440.138 16.5854 436.098 20.6258 436.098 25.6098C436.098 30.5939 440.138 34.6342 445.122 34.6342H471.464C476.448 34.6342 480.488 30.5939 480.488 25.6098C480.488 20.6258 476.448 16.5854 471.464 16.5854Z" stroke="white" stroke-width="2"/>
<path d="M450.872 22.3948V28.7806H450.099V23.2055H450.062L448.502 24.2407V23.4549L450.099 22.3948H450.872ZM452.272 22.3948H453.158L454.929 25.3757H455.004L456.775 22.3948H457.66L455.353 26.1489V28.7806H454.58V26.1489L452.272 22.3948Z" fill="white"/>
<path d="M472.439 23.5366L468.781 27.1952L465.122 23.5366" stroke="white" stroke-width="1.5" stroke-linecap="round" stroke-linejoin="round"/>
<path d="M21.5687 64.7005V56.7185H22.08V64.7005H21.5687ZM23.2898 59.1131C23.2524 58.797 23.1007 58.5517 22.8346 58.377C22.5685 58.2024 22.2422 58.1151 21.8555 58.1151C21.5728 58.1151 21.3254 58.1609 21.1134 58.2527C20.9035 58.3439 20.7392 58.4697 20.6208 58.6297C20.5044 58.7897 20.4462 58.9717 20.4462 59.1756C20.4462 59.3458 20.4867 59.4927 20.5678 59.6151C20.6509 59.7356 20.7569 59.8366 20.8858 59.9175C21.0147 59.9966 21.1498 60.0619 21.2911 60.1141C21.4325 60.1639 21.5624 60.2044 21.6809 60.2356L22.3295 60.4102C22.4958 60.4536 22.6808 60.5141 22.8845 60.5912C23.0903 60.6678 23.2867 60.7731 23.4738 60.9058C23.6629 61.037 23.8189 61.2053 23.9415 61.4112C24.0642 61.617 24.1255 61.8692 24.1255 62.1687C24.1255 62.5136 24.035 62.8258 23.8542 63.1044C23.6754 63.3829 23.4135 63.6039 23.0685 63.7683C22.7255 63.9327 22.3087 64.0146 21.8181 64.0146C21.3608 64.0146 20.9648 63.9409 20.6301 63.7931C20.2975 63.6458 20.0356 63.44 19.8444 63.1761C19.6552 62.9117 19.5482 62.6053 19.5232 62.2561H20.3214C20.3422 62.497 20.4233 62.6966 20.5647 62.8546C20.7081 63.0107 20.8889 63.1273 21.1072 63.2039C21.3275 63.279 21.5645 63.3161 21.8181 63.3161C22.1133 63.3161 22.3783 63.2683 22.6132 63.1726C22.8481 63.0751 23.0342 62.94 23.1713 62.7673C23.3086 62.5927 23.3771 62.3892 23.3771 62.1561C23.3771 61.9444 23.3179 61.7717 23.1994 61.6385C23.0809 61.5058 22.925 61.3975 22.7317 61.3146C22.5384 61.2312 22.3295 61.1585 22.1049 61.0961L21.3192 60.8717C20.8203 60.7283 20.4254 60.5234 20.1344 60.2575C19.8433 59.9912 19.6978 59.6429 19.6978 59.2127C19.6978 58.8551 19.7945 58.5434 19.9878 58.2775C20.1832 58.0092 20.4451 57.8014 20.7735 57.6536C21.1041 57.5044 21.473 57.4292 21.8805 57.4292C22.2921 57.4292 22.6579 57.5029 22.978 57.6507C23.2982 57.7961 23.5518 57.9956 23.7389 58.2492C23.928 58.5029 24.0278 58.7907 24.0382 59.1131H23.2898ZM27.5296 57.5166V63.9024H26.7564V58.3273H26.7189L25.1599 59.3624V58.5766L26.7564 57.5166H27.5296ZM31.4116 63.9897C30.9834 63.9897 30.6051 63.9136 30.2767 63.7619C29.9503 63.6083 29.6956 63.397 29.5127 63.1292C29.3298 62.859 29.2394 62.5512 29.2414 62.2063C29.2394 61.9361 29.2924 61.6863 29.4005 61.458C29.5086 61.2273 29.6562 61.0346 29.8432 60.8809C30.0324 60.7253 30.2434 60.6263 30.4762 60.5848V60.5473C30.1707 60.4683 29.9274 60.297 29.7466 60.0327C29.5657 59.7668 29.4764 59.4644 29.4784 59.1253C29.4764 58.8014 29.5585 58.5112 29.7248 58.2556C29.891 58 30.1197 57.7985 30.4108 57.6507C30.7038 57.5029 31.0375 57.4292 31.4116 57.4292C31.7816 57.4292 32.1122 57.5029 32.4032 57.6507C32.6942 57.7985 32.9229 58 33.0891 58.2556C33.2575 58.5112 33.3428 58.8014 33.3449 59.1253C33.3428 59.4644 33.2503 59.7668 33.0673 60.0327C32.8865 60.297 32.6464 60.4683 32.347 60.5473V60.5848C32.5778 60.6263 32.7857 60.7253 32.9707 60.8809C33.1557 61.0346 33.3032 61.2273 33.4134 61.458C33.5236 61.6863 33.5797 61.9361 33.5818 62.2063C33.5797 62.5512 33.4862 62.859 33.3012 63.1292C33.1183 63.397 32.8636 63.6083 32.5372 63.7619C32.213 63.9136 31.8378 63.9897 31.4116 63.9897ZM31.4116 63.3039C31.7006 63.3039 31.95 63.257 32.16 63.1634C32.3699 63.0697 32.5321 62.938 32.6464 62.7673C32.7607 62.597 32.8189 62.3975 32.821 62.1687C32.8189 61.9278 32.7566 61.7146 32.6339 61.5297C32.5113 61.3444 32.3439 61.199 32.1319 61.0931C31.922 60.9868 31.6819 60.9341 31.4116 60.9341C31.1393 60.9341 30.8961 60.9868 30.682 61.0931C30.47 61.199 30.3027 61.3444 30.18 61.5297C30.0594 61.7146 30.0002 61.9278 30.0023 62.1687C30.0002 62.3975 30.0553 62.597 30.1675 62.7673C30.2818 62.938 30.445 63.0697 30.657 63.1634C30.8691 63.257 31.1206 63.3039 31.4116 63.3039ZM31.4116 60.2731C31.6403 60.2731 31.843 60.2273 32.0196 60.1356C32.1984 60.0444 32.3388 59.9166 32.4406 59.7522C32.5425 59.5883 32.5944 59.3956 32.5965 59.1756C32.5944 58.959 32.5435 58.7712 32.4437 58.6112C32.3439 58.4487 32.2057 58.3244 32.029 58.237C31.8523 58.1473 31.6465 58.1029 31.4116 58.1029C31.1726 58.1029 30.9637 58.1473 30.7849 58.237C30.6061 58.3244 30.4679 58.4487 30.3702 58.6112C30.2725 58.7712 30.2247 58.959 30.2268 59.1756C30.2247 59.3956 30.2735 59.5883 30.3733 59.7522C30.4752 59.9166 30.6155 60.0444 30.7943 60.1356C30.973 60.2273 31.1788 60.2731 31.4116 60.2731ZM36.8597 63.9897C36.3899 63.9897 35.9897 63.8619 35.6592 63.6063C35.3287 63.3483 35.0762 62.9751 34.9015 62.4868C34.7269 61.9961 34.6396 61.4039 34.6396 60.7097C34.6396 60.0195 34.7269 59.4302 34.9015 58.9414C35.0782 58.4512 35.3318 58.077 35.6624 57.819C35.9949 57.559 36.3941 57.4292 36.8597 57.4292C37.3253 57.4292 37.7234 57.559 38.0539 57.819C38.3865 58.077 38.6401 58.4512 38.8147 58.9414C38.9914 59.4302 39.0797 60.0195 39.0797 60.7097C39.0797 61.4039 38.9925 61.9961 38.8178 62.4868C38.6432 62.9751 38.3907 63.3483 38.0601 63.6063C37.7296 63.8619 37.3295 63.9897 36.8597 63.9897ZM36.8597 63.3039C37.3253 63.3039 37.687 63.079 37.9448 62.6302C38.2025 62.1814 38.3314 61.5409 38.3314 60.7097C38.3314 60.1566 38.2722 59.6858 38.1537 59.297C38.0373 58.9083 37.8689 58.6122 37.6486 58.4083C37.4303 58.2048 37.1673 58.1029 36.8597 58.1029C36.3982 58.1029 36.0375 58.3302 35.7777 58.7858C35.5179 59.239 35.388 59.88 35.388 60.7097C35.388 61.2624 35.4462 61.7322 35.5626 62.119C35.6789 62.5053 35.8463 62.7995 36.0646 63.0014C36.2849 63.2029 36.55 63.3039 36.8597 63.3039Z" fill="#CCCCCC"/>
<path d="M21.5687 91.5298V83.5479H22.08V91.5298H21.5687ZM23.2898 85.9425C23.2524 85.6264 23.1007 85.381 22.8346 85.2064C22.5685 85.0318 22.2422 84.9444 21.8555 84.9444C21.5728 84.9444 21.3254 84.9903 21.1134 85.082C20.9035 85.1732 20.7392 85.2991 20.6208 85.4591C20.5044 85.6191 20.4462 85.801 20.4462 86.0049C20.4462 86.1752 20.4867 86.322 20.5678 86.4444C20.6509 86.5649 20.7569 86.6659 20.8858 86.7469C21.0147 86.8259 21.1498 86.8913 21.2911 86.9435C21.4325 86.9932 21.5624 87.0337 21.6809 87.0649L22.3295 87.2396C22.4958 87.283 22.6808 87.3435 22.8845 87.4205C23.0903 87.4971 23.2867 87.6025 23.4738 87.7352C23.6629 87.8664 23.8189 88.0347 23.9415 88.2405C24.0642 88.4464 24.1255 88.6986 24.1255 88.9981C24.1255 89.343 24.035 89.6552 23.8542 89.9337C23.6754 90.2122 23.4135 90.4332 23.0685 90.5976C22.7255 90.762 22.3087 90.8439 21.8181 90.8439C21.3608 90.8439 20.9648 90.7703 20.6301 90.6225C20.2975 90.4752 20.0356 90.2693 19.8444 90.0054C19.6552 89.741 19.5482 89.4347 19.5232 89.0854H20.3214C20.3422 89.3264 20.4233 89.5259 20.5647 89.684C20.7081 89.8401 20.8889 89.9566 21.1072 90.0332C21.3275 90.1083 21.5645 90.1454 21.8181 90.1454C22.1133 90.1454 22.3783 90.0976 22.6132 90.002C22.8481 89.9044 23.0342 89.7693 23.1713 89.5966C23.3086 89.422 23.3771 89.2186 23.3771 88.9854C23.3771 88.7737 23.3179 88.601 23.1994 88.4679C23.0809 88.3352 22.925 88.2269 22.7317 88.144C22.5384 88.0605 22.3295 87.9879 22.1049 87.9254L21.3192 87.701C20.8203 87.5576 20.4254 87.3527 20.1344 87.0869C19.8433 86.8205 19.6978 86.4722 19.6978 86.042C19.6978 85.6844 19.7945 85.3727 19.9878 85.1069C20.1832 84.8386 20.4451 84.6308 20.7735 84.483C21.1041 84.3337 21.473 84.2586 21.8805 84.2586C22.2921 84.2586 22.6579 84.3322 22.978 84.4801C23.2982 84.6254 23.5518 84.8249 23.7389 85.0786C23.928 85.3322 24.0278 85.6201 24.0382 85.9425H23.2898ZM27.5296 84.3459V90.7318H26.7564V85.1566H26.7189L25.1599 86.1918V85.4059L26.7564 84.3459H27.5296ZM31.4865 90.8191C31.2246 90.8147 30.9626 90.7649 30.7007 90.6693C30.4388 90.5737 30.1997 90.4127 29.9835 90.1859C29.7674 89.9576 29.5938 89.6488 29.4629 89.2601C29.3319 88.8693 29.2664 88.3786 29.2664 87.7883C29.2664 87.223 29.3194 86.722 29.4254 86.2854C29.5314 85.8469 29.6852 85.4776 29.8869 85.1786C30.0885 84.8771 30.3317 84.6483 30.6165 84.4927C30.9034 84.3366 31.2266 84.2586 31.5863 84.2586C31.9438 84.2586 32.2618 84.3303 32.5404 84.4737C32.821 84.6152 33.0497 84.8127 33.2264 85.0664C33.403 85.32 33.5174 85.6118 33.5693 85.9425H32.8085C32.7378 85.6557 32.6007 85.4176 32.397 85.2283C32.1932 85.0391 31.923 84.9444 31.5863 84.9444C31.0915 84.9444 30.7017 85.1596 30.4169 85.5903C30.1343 86.0205 29.9919 86.6244 29.9898 87.4015H30.0397C30.1561 87.2249 30.2943 87.0742 30.4544 86.9493C30.6165 86.823 30.7953 86.7249 30.9907 86.6566C31.1861 86.5879 31.3929 86.5537 31.6112 86.5537C31.977 86.5537 32.3117 86.6449 32.6152 86.8279C32.9187 87.0088 33.1619 87.2591 33.3449 87.5796C33.5278 87.8976 33.6192 88.2625 33.6192 88.6737C33.6192 89.0688 33.5309 89.4303 33.3542 89.7591C33.1775 90.0854 32.9291 90.3449 32.609 90.5386C32.291 90.7298 31.9168 90.8235 31.4865 90.8191ZM31.4865 90.1332C31.7484 90.1332 31.9833 90.0674 32.1911 89.9366C32.4011 89.8059 32.5664 89.6298 32.6869 89.4098C32.8096 89.1893 32.8709 88.944 32.8709 88.6737C32.8709 88.4098 32.8116 88.1698 32.6931 87.9537C32.5768 87.7352 32.4156 87.5615 32.2099 87.4327C32.0061 87.304 31.7733 87.2396 31.5114 87.2396C31.3139 87.2396 31.13 87.2791 30.9595 87.3581C30.789 87.4347 30.6394 87.541 30.5105 87.6761C30.3837 87.8113 30.2839 87.9659 30.2112 88.1405C30.1384 88.3132 30.102 88.4952 30.102 88.6864C30.102 88.9401 30.1613 89.1766 30.2798 89.3971C30.4003 89.6176 30.5646 89.7952 30.7724 89.9303C30.9824 90.0654 31.2204 90.1332 31.4865 90.1332ZM36.9283 90.8191C36.4585 90.8191 36.0583 90.6913 35.7278 90.4357C35.3973 90.1776 35.1448 89.8044 34.9701 89.3162C34.7955 88.8254 34.7082 88.2332 34.7082 87.5391C34.7082 86.8488 34.7955 86.2596 34.9701 85.7708C35.1468 85.2805 35.4004 84.9064 35.7309 84.6483C36.0635 84.3883 36.4627 84.2586 36.9283 84.2586C37.3939 84.2586 37.792 84.3883 38.1225 84.6483C38.4551 84.9064 38.7087 85.2805 38.8833 85.7708C39.06 86.2596 39.1484 86.8488 39.1484 87.5391C39.1484 88.2332 39.061 88.8254 38.8864 89.3162C38.7118 89.8044 38.4592 90.1776 38.1288 90.4357C37.7982 90.6913 37.3981 90.8191 36.9283 90.8191ZM36.9283 90.1332C37.3939 90.1332 37.7556 89.9083 38.0134 89.4596C38.2711 89.0108 38.4 88.3703 38.4 87.5391C38.4 86.9859 38.3408 86.5152 38.2223 86.1264C38.1059 85.7376 37.9375 85.4415 37.7171 85.2376C37.4989 85.0342 37.2359 84.9322 36.9283 84.9322C36.4668 84.9322 36.1062 85.1596 35.8463 85.6152C35.5865 86.0683 35.4566 86.7093 35.4566 87.5391C35.4566 88.0918 35.5148 88.5615 35.6311 88.9483C35.7476 89.3347 35.9149 89.6288 36.1332 89.8308C36.3535 90.0322 36.6186 90.1332 36.9283 90.1332Z" fill="#CCCCCC"/>
<path d="M21.5687 118.359V110.377H22.08V118.359H21.5687ZM23.2898 112.772C23.2524 112.455 23.1007 112.21 22.8346 112.035C22.5685 111.861 22.2422 111.774 21.8555 111.774C21.5728 111.774 21.3254 111.819 21.1134 111.911C20.9035 112.002 20.7392 112.128 20.6208 112.288C20.5044 112.448 20.4462 112.63 20.4462 112.834C20.4462 113.004 20.4867 113.151 20.5678 113.274C20.6509 113.394 20.7569 113.495 20.8858 113.576C21.0147 113.655 21.1498 113.72 21.2911 113.773C21.4325 113.822 21.5624 113.863 21.6809 113.894L22.3295 114.069C22.4958 114.112 22.6808 114.173 22.8845 114.25C23.0903 114.326 23.2867 114.432 23.4738 114.564C23.6629 114.695 23.8189 114.864 23.9415 115.07C24.0642 115.275 24.1255 115.528 24.1255 115.827C24.1255 116.172 24.035 116.484 23.8542 116.763C23.6754 117.041 23.4135 117.262 23.0685 117.427C22.7255 117.591 22.3087 117.673 21.8181 117.673C21.3608 117.673 20.9648 117.599 20.6301 117.452C20.2975 117.304 20.0356 117.098 19.8444 116.835C19.6552 116.57 19.5482 116.264 19.5232 115.915H20.3214C20.3422 116.155 20.4233 116.355 20.5647 116.513C20.7081 116.669 20.8889 116.786 21.1072 116.862C21.3275 116.937 21.5645 116.975 21.8181 116.975C22.1133 116.975 22.3783 116.927 22.6132 116.831C22.8481 116.734 23.0342 116.598 23.1713 116.426C23.3086 116.251 23.3771 116.048 23.3771 115.815C23.3771 115.603 23.3179 115.43 23.1994 115.297C23.0809 115.164 22.925 115.056 22.7317 114.973C22.5384 114.89 22.3295 114.817 22.1049 114.755L21.3192 114.53C20.8203 114.387 20.4254 114.182 20.1344 113.916C19.8433 113.65 19.6978 113.301 19.6978 112.871C19.6978 112.514 19.7945 112.202 19.9878 111.936C20.1832 111.668 20.4451 111.46 20.7735 111.312C21.1041 111.163 21.473 111.088 21.8805 111.088C22.2921 111.088 22.6579 111.161 22.978 111.309C23.2982 111.455 23.5518 111.654 23.7389 111.908C23.928 112.161 24.0278 112.449 24.0382 112.772H23.2898ZM27.5296 111.175V117.561H26.7564V111.986H26.7189L25.1599 113.021V112.235L26.7564 111.175H27.5296ZM29.2165 116.251V115.615L32.0228 111.175H32.4843V112.16H32.1725L30.0522 115.515V115.565H33.8312V116.251H29.2165ZM32.2223 117.561V116.058V115.762V111.175H32.9582V117.561H32.2223ZM37.0826 117.648C36.6129 117.648 36.2127 117.52 35.8822 117.265C35.5516 117.007 35.2991 116.634 35.1245 116.145C34.9499 115.655 34.8626 115.062 34.8626 114.368C34.8626 113.678 34.9499 113.089 35.1245 112.6C35.3011 112.11 35.5548 111.735 35.8853 111.477C36.2179 111.217 36.617 111.088 37.0826 111.088C37.5483 111.088 37.9463 111.217 38.2768 111.477C38.6094 111.735 38.863 112.11 39.0376 112.6C39.2144 113.089 39.3027 113.678 39.3027 114.368C39.3027 115.062 39.2154 115.655 39.0408 116.145C38.8662 116.634 38.6136 117.007 38.2831 117.265C37.9526 117.52 37.5524 117.648 37.0826 117.648ZM37.0826 116.962C37.5483 116.962 37.91 116.737 38.1677 116.289C38.4255 115.84 38.5544 115.199 38.5544 114.368C38.5544 113.815 38.4951 113.344 38.3766 112.955C38.2602 112.567 38.0918 112.271 37.8715 112.067C37.6532 111.863 37.3903 111.761 37.0826 111.761C36.6211 111.761 36.2605 111.989 36.0007 112.444C35.7408 112.897 35.6109 113.538 35.6109 114.368C35.6109 114.921 35.6691 115.391 35.7855 115.777C35.9019 116.164 36.0692 116.458 36.2875 116.66C36.5079 116.861 36.7729 116.962 37.0826 116.962Z" fill="#CCCCCC"/>
<path d="M21.5687 145.188V137.206H22.08V145.188H21.5687ZM23.2898 139.601C23.2524 139.285 23.1007 139.039 22.8346 138.865C22.5685 138.69 22.2422 138.603 21.8555 138.603C21.5728 138.603 21.3254 138.649 21.1134 138.74C20.9035 138.832 20.7392 138.958 20.6208 139.118C20.5044 139.278 20.4462 139.459 20.4462 139.663C20.4462 139.834 20.4867 139.98 20.5678 140.103C20.6509 140.223 20.7569 140.324 20.8858 140.405C21.0147 140.484 21.1498 140.55 21.2911 140.602C21.4325 140.652 21.5624 140.692 21.6809 140.723L22.3295 140.898C22.4958 140.941 22.6808 141.002 22.8845 141.079C23.0903 141.156 23.2867 141.261 23.4738 141.394C23.6629 141.525 23.8189 141.693 23.9415 141.899C24.0642 142.105 24.1255 142.357 24.1255 142.657C24.1255 143.001 24.035 143.314 23.8542 143.592C23.6754 143.871 23.4135 144.092 23.0685 144.256C22.7255 144.42 22.3087 144.502 21.8181 144.502C21.3608 144.502 20.9648 144.429 20.6301 144.281C20.2975 144.134 20.0356 143.928 19.8444 143.664C19.6552 143.399 19.5482 143.093 19.5232 142.744H20.3214C20.3422 142.985 20.4233 143.184 20.5647 143.342C20.7081 143.498 20.8889 143.615 21.1072 143.692C21.3275 143.767 21.5645 143.804 21.8181 143.804C22.1133 143.804 22.3783 143.756 22.6132 143.66C22.8481 143.563 23.0342 143.428 23.1713 143.255C23.3086 143.08 23.3771 142.877 23.3771 142.644C23.3771 142.432 23.3179 142.259 23.1994 142.126C23.0809 141.994 22.925 141.885 22.7317 141.802C22.5384 141.719 22.3295 141.646 22.1049 141.584L21.3192 141.359C20.8203 141.216 20.4254 141.011 20.1344 140.745C19.8433 140.479 19.6978 140.131 19.6978 139.7C19.6978 139.343 19.7945 139.031 19.9878 138.765C20.1832 138.497 20.4451 138.289 20.7735 138.141C21.1041 137.992 21.473 137.917 21.8805 137.917C22.2921 137.917 22.6579 137.991 22.978 138.138C23.2982 138.284 23.5518 138.483 23.7389 138.737C23.928 138.991 24.0278 139.278 24.0382 139.601H23.2898ZM27.5296 138.004V144.39H26.7564V138.815H26.7189L25.1599 139.85V139.064L26.7564 138.004H27.5296ZM29.3662 144.39V143.829L31.474 141.521C31.7213 141.251 31.9251 141.017 32.0851 140.817C32.2452 140.615 32.3637 140.426 32.4406 140.249C32.5196 140.071 32.5591 139.883 32.5591 139.688C32.5591 139.464 32.505 139.269 32.3969 139.105C32.2909 138.941 32.1454 138.814 31.9604 138.725C31.7754 138.635 31.5675 138.591 31.3368 138.591C31.0915 138.591 30.8774 138.641 30.6945 138.743C30.5136 138.843 30.3733 138.983 30.2735 139.164C30.1758 139.345 30.127 139.557 30.127 139.8H29.3911C29.3911 139.426 29.4774 139.098 29.6499 138.815C29.8225 138.532 30.0573 138.312 30.3546 138.154C30.6539 137.996 30.9896 137.917 31.3617 137.917C31.7359 137.917 32.0675 137.996 32.3564 138.154C32.6453 138.312 32.8719 138.525 33.0362 138.793C33.2004 139.061 33.2825 139.36 33.2825 139.688C33.2825 139.923 33.2399 140.153 33.1547 140.377C33.0715 140.599 32.926 140.848 32.7181 141.122C32.5123 141.395 32.2265 141.727 31.8607 142.12L30.4263 143.654V143.704H33.3947V144.39H29.3662ZM36.7653 144.478C36.2956 144.478 35.8954 144.35 35.5649 144.094C35.2344 143.836 34.9818 143.463 34.8072 142.975C34.6326 142.484 34.5453 141.892 34.5453 141.198C34.5453 140.507 34.6326 139.918 34.8072 139.429C34.9839 138.939 35.2375 138.565 35.568 138.307C35.9006 138.047 36.2997 137.917 36.7653 137.917C37.231 137.917 37.629 138.047 37.9596 138.307C38.2922 138.565 38.5458 138.939 38.7204 139.429C38.8971 139.918 38.9854 140.507 38.9854 141.198C38.9854 141.892 38.8981 142.484 38.7235 142.975C38.5489 143.463 38.2963 143.836 37.9658 144.094C37.6353 144.35 37.2351 144.478 36.7653 144.478ZM36.7653 143.792C37.231 143.792 37.5927 143.567 37.8505 143.118C38.1082 142.669 38.2371 142.029 38.2371 141.198C38.2371 140.644 38.1778 140.174 38.0593 139.785C37.9429 139.396 37.7746 139.1 37.5542 138.896C37.336 138.693 37.073 138.591 36.7653 138.591C36.3039 138.591 35.9432 138.818 35.6834 139.274C35.4235 139.727 35.2936 140.368 35.2936 141.198C35.2936 141.75 35.3518 142.22 35.4682 142.607C35.5847 142.993 35.752 143.287 35.9703 143.489C36.1906 143.691 36.4556 143.792 36.7653 143.792Z" fill="#CCCCCC"/>
<path d="M21.5687 172.018V164.036H22.08V172.018H21.5687ZM23.2898 166.43C23.2524 166.114 23.1007 165.869 22.8346 165.694C22.5685 165.52 22.2422 165.432 21.8555 165.432C21.5728 165.432 21.3254 165.478 21.1134 165.57C20.9035 165.661 20.7392 165.787 20.6208 165.947C20.5044 166.107 20.4462 166.289 20.4462 166.493C20.4462 166.663 20.4867 166.81 20.5678 166.932C20.6509 167.053 20.7569 167.154 20.8858 167.235C21.0147 167.314 21.1498 167.379 21.2911 167.431C21.4325 167.481 21.5624 167.521 21.6809 167.553L22.3295 167.727C22.4958 167.771 22.6808 167.831 22.8845 167.908C23.0903 167.985 23.2867 168.09 23.4738 168.223C23.6629 168.354 23.8189 168.522 23.9415 168.728C24.0642 168.934 24.1255 169.186 24.1255 169.486C24.1255 169.831 24.035 170.143 23.8542 170.422C23.6754 170.7 23.4135 170.921 23.0685 171.085C22.7255 171.25 22.3087 171.332 21.8181 171.332C21.3608 171.332 20.9648 171.258 20.6301 171.11C20.2975 170.963 20.0356 170.757 19.8444 170.493C19.6552 170.229 19.5482 169.922 19.5232 169.573H20.3214C20.3422 169.814 20.4233 170.014 20.5647 170.172C20.7081 170.328 20.8889 170.444 21.1072 170.521C21.3275 170.596 21.5645 170.633 21.8181 170.633C22.1133 170.633 22.3783 170.585 22.6132 170.49C22.8481 170.392 23.0342 170.257 23.1713 170.084C23.3086 169.91 23.3771 169.706 23.3771 169.473C23.3771 169.261 23.3179 169.089 23.1994 168.956C23.0809 168.823 22.925 168.715 22.7317 168.632C22.5384 168.548 22.3295 168.476 22.1049 168.413L21.3192 168.189C20.8203 168.045 20.4254 167.841 20.1344 167.575C19.8433 167.308 19.6978 166.96 19.6978 166.53C19.6978 166.172 19.7945 165.861 19.9878 165.595C20.1832 165.326 20.4451 165.119 20.7735 164.971C21.1041 164.821 21.473 164.746 21.8805 164.746C22.2921 164.746 22.6579 164.82 22.978 164.968C23.2982 165.113 23.5518 165.313 23.7389 165.566C23.928 165.82 24.0278 166.108 24.0382 166.43H23.2898ZM27.5296 164.834V171.22H26.7564V165.644H26.7189L25.1599 166.68V165.894L26.7564 164.834H27.5296ZM31.449 171.307C30.9792 171.307 30.5791 171.179 30.2486 170.923C29.9181 170.665 29.6655 170.292 29.4909 169.804C29.3163 169.313 29.229 168.721 29.229 168.027C29.229 167.337 29.3163 166.747 29.4909 166.259C29.6676 165.768 29.9212 165.394 30.2517 165.136C30.5843 164.876 30.9834 164.746 31.449 164.746C31.9147 164.746 32.3128 164.876 32.6433 165.136C32.9759 165.394 33.2295 165.768 33.4041 166.259C33.5808 166.747 33.6691 167.337 33.6691 168.027C33.6691 168.721 33.5818 169.313 33.4072 169.804C33.2326 170.292 32.98 170.665 32.6495 170.923C32.319 171.179 31.9189 171.307 31.449 171.307ZM31.449 170.621C31.9147 170.621 32.2764 170.396 32.5341 169.947C32.7919 169.499 32.9208 168.858 32.9208 168.027C32.9208 167.474 32.8615 167.003 32.743 166.614C32.6267 166.225 32.4583 165.929 32.2379 165.725C32.0196 165.522 31.7567 165.42 31.449 165.42C30.9876 165.42 30.6269 165.647 30.3671 166.103C30.1072 166.556 29.9773 167.197 29.9773 168.027C29.9773 168.58 30.0355 169.049 30.1519 169.436C30.2683 169.822 30.4357 170.117 30.6539 170.319C30.8743 170.52 31.1393 170.621 31.449 170.621ZM36.9369 171.307C36.467 171.307 36.0669 171.179 35.7364 170.923C35.4059 170.665 35.1533 170.292 34.9787 169.804C34.8041 169.313 34.7168 168.721 34.7168 168.027C34.7168 167.337 34.8041 166.747 34.9787 166.259C35.1554 165.768 35.409 165.394 35.7395 165.136C36.0721 164.876 36.4712 164.746 36.9369 164.746C37.4025 164.746 37.8006 164.876 38.1311 165.136C38.4637 165.394 38.7173 165.768 38.8919 166.259C39.0686 166.747 39.1569 167.337 39.1569 168.027C39.1569 168.721 39.0696 169.313 38.895 169.804C38.7204 170.292 38.4678 170.665 38.1373 170.923C37.8068 171.179 37.4067 171.307 36.9369 171.307ZM36.9369 170.621C37.4025 170.621 37.7642 170.396 38.0219 169.947C38.2797 169.499 38.4086 168.858 38.4086 168.027C38.4086 167.474 38.3493 167.003 38.2309 166.614C38.1145 166.225 37.9461 165.929 37.7257 165.725C37.5074 165.522 37.2445 165.42 36.9369 165.42C36.4754 165.42 36.1147 165.647 35.8549 166.103C35.595 166.556 35.4651 167.197 35.4651 168.027C35.4651 168.58 35.5233 169.049 35.6397 169.436C35.7561 169.822 35.9235 170.117 36.1417 170.319C36.3621 170.52 36.6271 170.621 36.9369 170.621Z" fill="#CCCCCC"/>
<path d="M63.3532 191.663H64.1263V196.228C64.1263 196.635 64.0517 196.981 63.9019 197.266C63.7522 197.551 63.5415 197.767 63.2688 197.915C62.9966 198.062 62.6756 198.136 62.3054 198.136C61.9561 198.136 61.6454 198.073 61.3732 197.946C61.101 197.817 60.8868 197.634 60.7307 197.397C60.5751 197.16 60.4971 196.878 60.4971 196.552H61.2576C61.2576 196.733 61.3024 196.891 61.3917 197.026C61.4834 197.159 61.6083 197.263 61.7659 197.338C61.9239 197.413 62.1039 197.45 62.3054 197.45C62.5278 197.45 62.7171 197.403 62.8732 197.31C63.0288 197.216 63.1473 197.079 63.2283 196.898C63.3117 196.715 63.3532 196.492 63.3532 196.228V191.663ZM66.9859 198.161C66.6824 198.161 66.4068 198.104 66.1595 197.99C65.9122 197.873 65.7156 197.706 65.5702 197.487C65.4244 197.267 65.3517 197.001 65.3517 196.689C65.3517 196.415 65.4059 196.193 65.5141 196.022C65.622 195.849 65.7663 195.714 65.9473 195.617C66.1283 195.519 66.3278 195.446 66.5459 195.398C66.7663 195.348 66.9878 195.309 67.2102 195.28C67.501 195.242 67.7371 195.215 67.918 195.196C68.101 195.175 68.2341 195.14 68.3171 195.093C68.4024 195.045 68.4449 194.962 68.4449 194.843V194.818C68.4449 194.511 68.361 194.272 68.1922 194.101C68.0259 193.931 67.7737 193.846 67.4346 193.846C67.0834 193.846 66.8078 193.922 66.6083 194.076C66.4088 194.23 66.2683 194.395 66.1873 194.569L65.4888 194.319C65.6137 194.029 65.78 193.802 65.9878 193.64C66.198 193.476 66.4263 193.361 66.6737 193.297C66.9234 193.23 67.1688 193.197 67.4098 193.197C67.5634 193.197 67.7405 193.216 67.94 193.253C68.1415 193.288 68.3356 193.362 68.5229 193.475C68.7122 193.587 68.8688 193.756 68.9937 193.983C69.1185 194.209 69.181 194.513 69.181 194.893V198.049H68.4449V197.4H68.4073C68.3576 197.504 68.2746 197.616 68.158 197.734C68.0415 197.852 67.8868 197.953 67.6937 198.036C67.5 198.119 67.2644 198.161 66.9859 198.161ZM67.098 197.5C67.3888 197.5 67.6341 197.443 67.8337 197.328C68.0356 197.214 68.1873 197.067 68.2893 196.886C68.3932 196.705 68.4449 196.515 68.4449 196.315V195.641C68.4137 195.679 68.3454 195.713 68.239 195.744C68.1351 195.774 68.0146 195.799 67.8776 195.822C67.7424 195.843 67.6102 195.862 67.4815 195.878C67.3546 195.893 67.2517 195.906 67.1727 195.916C66.9815 195.941 66.8029 195.981 66.6366 196.037C66.4722 196.092 66.339 196.174 66.2376 196.284C66.1376 196.392 66.0878 196.539 66.0878 196.727C66.0878 196.982 66.1824 197.176 66.3712 197.307C66.5624 197.436 66.8049 197.5 67.098 197.5ZM71.26 195.168V198.049H70.5239V193.259H71.2346V194.008H71.2971C71.4093 193.764 71.58 193.569 71.8088 193.421C72.0371 193.272 72.3322 193.197 72.6941 193.197C73.0185 193.197 73.302 193.263 73.5454 193.397C73.7888 193.528 73.9776 193.727 74.1127 193.995C74.2478 194.261 74.3156 194.598 74.3156 195.005V198.049H73.5795V195.056C73.5795 194.679 73.4819 194.386 73.2863 194.176C73.0912 193.964 72.8229 193.858 72.4819 193.858C72.2473 193.858 72.0371 193.909 71.8522 194.011C71.6693 194.113 71.5249 194.261 71.419 194.456C71.3127 194.652 71.26 194.889 71.26 195.168Z" fill="#CCCCCC"/>
<path d="M97.2366 198.049V191.663H101.066V192.349H98.0097V194.507H100.779V195.193H98.0097V198.049H97.2366ZM103.947 198.149C103.485 198.149 103.087 198.047 102.753 197.843C102.42 197.637 102.163 197.35 101.982 196.982C101.803 196.612 101.714 196.182 101.714 195.692C101.714 195.201 101.803 194.769 101.982 194.395C102.163 194.018 102.415 193.725 102.737 193.515C103.061 193.303 103.439 193.197 103.872 193.197C104.121 193.197 104.368 193.238 104.611 193.322C104.854 193.405 105.076 193.54 105.275 193.727C105.475 193.912 105.634 194.157 105.752 194.463C105.871 194.769 105.93 195.145 105.93 195.592V195.903H102.238V195.267H105.181C105.181 194.997 105.127 194.756 105.019 194.544C104.913 194.332 104.761 194.165 104.564 194.042C104.369 193.919 104.138 193.858 103.872 193.858C103.579 193.858 103.325 193.931 103.111 194.076C102.899 194.22 102.736 194.407 102.621 194.637C102.507 194.868 102.45 195.116 102.45 195.379V195.804C102.45 196.165 102.513 196.472 102.637 196.723C102.764 196.973 102.939 197.163 103.164 197.294C103.389 197.423 103.65 197.487 103.947 197.487C104.14 197.487 104.315 197.46 104.471 197.406C104.629 197.35 104.765 197.267 104.879 197.157C104.994 197.045 105.082 196.905 105.144 196.739L105.855 196.938C105.78 197.18 105.655 197.392 105.478 197.575C105.301 197.756 105.083 197.897 104.823 197.999C104.563 198.098 104.271 198.149 103.947 198.149ZM107.149 198.049V191.663H107.885V194.02H107.947C108.001 193.937 108.076 193.831 108.172 193.702C108.269 193.571 108.409 193.455 108.59 193.353C108.773 193.249 109.02 193.197 109.332 193.197C109.735 193.197 110.09 193.298 110.398 193.499C110.706 193.701 110.946 193.987 111.119 194.357C111.291 194.727 111.377 195.163 111.377 195.666C111.377 196.174 111.291 196.614 111.119 196.985C110.946 197.356 110.707 197.642 110.401 197.846C110.096 198.048 109.743 198.149 109.344 198.149C109.037 198.149 108.79 198.097 108.605 197.996C108.42 197.892 108.278 197.774 108.178 197.643C108.078 197.51 108.001 197.4 107.947 197.313H107.86V198.049H107.149ZM107.872 195.654C107.872 196.016 107.925 196.335 108.031 196.611C108.138 196.886 108.292 197.101 108.496 197.257C108.7 197.411 108.949 197.487 109.244 197.487C109.552 197.487 109.809 197.406 110.015 197.244C110.222 197.08 110.379 196.859 110.482 196.583C110.588 196.305 110.641 195.995 110.641 195.654C110.641 195.317 110.589 195.014 110.485 194.743C110.383 194.471 110.229 194.256 110.021 194.098C109.815 193.938 109.556 193.858 109.244 193.858C108.945 193.858 108.694 193.934 108.49 194.086C108.286 194.236 108.132 194.445 108.028 194.716C107.924 194.984 107.872 195.297 107.872 195.654Z" fill="#CCCCCC"/>
<path d="M133.492 191.663H134.415L136.585 196.964H136.66L138.83 191.663H139.753V198.049H139.03V193.197H138.967L136.972 198.049H136.273L134.278 193.197H134.215V198.049H133.492V191.663ZM142.613 198.161C142.31 198.161 142.034 198.104 141.787 197.99C141.54 197.873 141.343 197.706 141.198 197.487C141.052 197.267 140.979 197.001 140.979 196.689C140.979 196.415 141.033 196.193 141.141 196.022C141.249 195.849 141.394 195.714 141.575 195.617C141.756 195.519 141.955 195.446 142.174 195.398C142.394 195.348 142.615 195.309 142.838 195.28C143.129 195.242 143.364 195.215 143.545 195.196C143.728 195.175 143.861 195.14 143.944 195.093C144.03 195.045 144.072 194.962 144.072 194.843V194.818C144.072 194.511 143.988 194.272 143.82 194.101C143.654 193.931 143.401 193.846 143.062 193.846C142.711 193.846 142.435 193.922 142.236 194.076C142.036 194.23 141.896 194.395 141.815 194.569L141.117 194.319C141.241 194.029 141.407 193.802 141.615 193.64C141.825 193.476 142.054 193.361 142.301 193.297C142.551 193.23 142.796 193.197 143.037 193.197C143.191 193.197 143.368 193.216 143.567 193.253C143.769 193.288 143.963 193.362 144.15 193.475C144.34 193.587 144.497 193.756 144.621 193.983C144.746 194.209 144.808 194.513 144.808 194.893V198.049H144.072V197.4H144.035C143.985 197.504 143.902 197.616 143.785 197.734C143.669 197.852 143.514 197.953 143.321 198.036C143.127 198.119 142.892 198.161 142.613 198.161ZM142.725 197.5C143.017 197.5 143.261 197.443 143.461 197.328C143.663 197.214 143.815 197.067 143.917 196.886C144.02 196.705 144.072 196.515 144.072 196.315V195.641C144.041 195.679 143.973 195.713 143.866 195.744C143.762 195.774 143.642 195.799 143.505 195.822C143.37 195.843 143.238 195.862 143.109 195.878C142.982 195.893 142.879 195.906 142.8 195.916C142.609 195.941 142.43 195.981 142.264 196.037C142.1 196.092 141.967 196.174 141.865 196.284C141.765 196.392 141.715 196.539 141.715 196.727C141.715 196.982 141.81 197.176 141.999 197.307C142.19 197.436 142.432 197.5 142.725 197.5ZM146.151 198.049V193.259H146.862V193.983H146.912C147 193.746 147.158 193.554 147.386 193.406C147.615 193.258 147.873 193.184 148.16 193.184C148.213 193.184 148.281 193.186 148.362 193.188C148.443 193.19 148.504 193.193 148.546 193.197V193.945C148.521 193.939 148.464 193.93 148.375 193.917C148.287 193.903 148.195 193.896 148.097 193.896C147.864 193.896 147.656 193.944 147.473 194.042C147.293 194.137 147.149 194.271 147.043 194.441C146.939 194.61 146.887 194.802 146.887 195.018V198.049H146.151Z" fill="#CCCCCC"/>
<path d="M171.077 198.049H170.266L172.611 191.663H173.409L175.754 198.049H174.943L173.035 192.673H172.985L171.077 198.049ZM171.376 195.554H174.644V196.24H171.376V195.554ZM176.649 199.845V193.259H177.36V194.02H177.447C177.501 193.937 177.576 193.831 177.671 193.702C177.769 193.571 177.908 193.455 178.089 193.353C178.272 193.249 178.52 193.197 178.831 193.197C179.235 193.197 179.59 193.298 179.898 193.499C180.205 193.701 180.445 193.987 180.618 194.357C180.79 194.727 180.877 195.163 180.877 195.666C180.877 196.174 180.79 196.614 180.618 196.985C180.445 197.356 180.206 197.642 179.901 197.846C179.595 198.048 179.243 198.149 178.844 198.149C178.536 198.149 178.29 198.097 178.105 197.996C177.92 197.892 177.778 197.774 177.678 197.643C177.578 197.51 177.501 197.4 177.447 197.313H177.384V199.845H176.649ZM177.372 195.654C177.372 196.016 177.425 196.335 177.531 196.611C177.637 196.886 177.792 197.101 177.996 197.257C178.2 197.411 178.449 197.487 178.744 197.487C179.052 197.487 179.308 197.406 179.514 197.244C179.722 197.08 179.878 196.859 179.982 196.583C180.088 196.305 180.141 195.995 180.141 195.654C180.141 195.317 180.089 195.014 179.985 194.743C179.883 194.471 179.728 194.256 179.52 194.098C179.315 193.938 179.056 193.858 178.744 193.858C178.445 193.858 178.193 193.934 177.989 194.086C177.786 194.236 177.632 194.445 177.528 194.716C177.424 194.984 177.372 195.297 177.372 195.654ZM181.999 198.049V193.259H182.71V193.983H182.76C182.847 193.746 183.005 193.554 183.234 193.406C183.462 193.258 183.72 193.184 184.007 193.184C184.061 193.184 184.129 193.186 184.21 193.188C184.291 193.19 184.352 193.193 184.394 193.197V193.945C184.369 193.939 184.312 193.93 184.222 193.917C184.135 193.903 184.042 193.896 183.945 193.896C183.712 193.896 183.504 193.944 183.321 194.042C183.14 194.137 182.997 194.271 182.891 194.441C182.787 194.61 182.735 194.802 182.735 195.018V198.049H181.999Z" fill="#CCCCCC"/>
<path d="M205.938 191.663H206.861L209.031 196.964H209.106L211.276 191.663H212.199V198.049H211.476V193.197H211.414L209.418 198.049H208.719L206.724 193.197H206.661V198.049H205.938V191.663ZM215.059 198.161C214.756 198.161 214.48 198.104 214.233 197.99C213.985 197.873 213.789 197.706 213.643 197.487C213.498 197.267 213.425 197.001 213.425 196.689C213.425 196.415 213.479 196.193 213.587 196.022C213.696 195.849 213.84 195.714 214.021 195.617C214.202 195.519 214.401 195.446 214.619 195.398C214.84 195.348 215.061 195.309 215.284 195.28C215.575 195.242 215.811 195.215 215.992 195.196C216.175 195.175 216.307 195.14 216.391 195.093C216.476 195.045 216.518 194.962 216.518 194.843V194.818C216.518 194.511 216.434 194.272 216.266 194.101C216.099 193.931 215.847 193.846 215.508 193.846C215.157 193.846 214.881 193.922 214.682 194.076C214.482 194.23 214.342 194.395 214.261 194.569L213.562 194.319C213.687 194.029 213.854 193.802 214.061 193.64C214.271 193.476 214.5 193.361 214.747 193.297C214.997 193.23 215.242 193.197 215.483 193.197C215.637 193.197 215.814 193.216 216.013 193.253C216.215 193.288 216.409 193.362 216.597 193.475C216.786 193.587 216.942 193.756 217.067 193.983C217.192 194.209 217.254 194.513 217.254 194.893V198.049H216.518V197.4H216.481C216.431 197.504 216.348 197.616 216.232 197.734C216.115 197.852 215.96 197.953 215.767 198.036C215.574 198.119 215.337 198.161 215.059 198.161ZM215.172 197.5C215.462 197.5 215.708 197.443 215.907 197.328C216.109 197.214 216.261 197.067 216.362 196.886C216.466 196.705 216.518 196.515 216.518 196.315V195.641C216.487 195.679 216.418 195.713 216.313 195.744C216.209 195.774 216.088 195.799 215.951 195.822C215.816 195.843 215.684 195.862 215.555 195.878C215.428 195.893 215.325 195.906 215.246 195.916C215.055 195.941 214.876 195.981 214.71 196.037C214.546 196.092 214.413 196.174 214.311 196.284C214.211 196.392 214.161 196.539 214.161 196.727C214.161 196.982 214.256 197.176 214.445 197.307C214.636 197.436 214.878 197.5 215.172 197.5ZM218.9 199.845C218.775 199.845 218.664 199.835 218.566 199.814C218.469 199.795 218.401 199.776 218.363 199.757L218.551 199.109C218.729 199.155 218.887 199.171 219.025 199.159C219.162 199.146 219.283 199.085 219.389 198.975C219.497 198.867 219.596 198.691 219.686 198.448L219.823 198.074L218.052 193.259H218.85L220.172 197.076H220.222L221.544 193.259H222.342L220.309 198.747C220.218 198.995 220.104 199.199 219.969 199.361C219.834 199.526 219.677 199.647 219.498 199.726C219.322 199.805 219.122 199.845 218.9 199.845Z" fill="#CCCCCC"/>
<path d="M246.203 191.663H246.976V196.228C246.976 196.635 246.902 196.981 246.752 197.266C246.602 197.551 246.391 197.767 246.119 197.915C245.846 198.062 245.525 198.136 245.155 198.136C244.806 198.136 244.495 198.073 244.223 197.946C243.951 197.817 243.737 197.634 243.581 197.397C243.424 197.16 243.347 196.878 243.347 196.552H244.107C244.107 196.733 244.152 196.891 244.242 197.026C244.333 197.159 244.458 197.263 244.616 197.338C244.774 197.413 244.954 197.45 245.155 197.45C245.378 197.45 245.567 197.403 245.723 197.31C245.879 197.216 245.997 197.079 246.078 196.898C246.162 196.715 246.203 196.492 246.203 196.228V191.663ZM251.444 196.091V193.259H252.18V198.049H251.444V197.238H251.394C251.282 197.481 251.107 197.688 250.871 197.858C250.634 198.027 250.334 198.111 249.973 198.111C249.673 198.111 249.407 198.046 249.174 197.915C248.942 197.781 248.759 197.582 248.625 197.316C248.493 197.048 248.426 196.71 248.426 196.302V193.259H249.162V196.253C249.162 196.602 249.26 196.88 249.455 197.088C249.652 197.296 249.904 197.4 250.21 197.4C250.393 197.4 250.579 197.354 250.768 197.26C250.959 197.166 251.119 197.023 251.248 196.83C251.379 196.636 251.444 196.39 251.444 196.091ZM254.264 195.168V198.049H253.528V193.259H254.239V194.008H254.301C254.414 193.764 254.584 193.569 254.813 193.421C255.042 193.272 255.337 193.197 255.698 193.197C256.023 193.197 256.306 193.263 256.549 193.397C256.793 193.528 256.982 193.727 257.117 193.995C257.252 194.261 257.32 194.598 257.32 195.005V198.049H256.583V195.056C256.583 194.679 256.486 194.386 256.291 194.176C256.095 193.964 255.827 193.858 255.486 193.858C255.251 193.858 255.042 193.909 254.856 194.011C254.673 194.113 254.529 194.261 254.423 194.456C254.317 194.652 254.264 194.889 254.264 195.168Z" fill="#CCCCCC"/>
<path d="M284.315 191.663H285.088V196.228C285.088 196.635 285.013 196.981 284.863 197.266C284.714 197.551 284.502 197.767 284.23 197.915C283.958 198.062 283.637 198.136 283.267 198.136C282.918 198.136 282.607 198.073 282.335 197.946C282.062 197.817 281.848 197.634 281.692 197.397C281.536 197.16 281.458 196.878 281.458 196.552H282.219C282.219 196.733 282.264 196.891 282.353 197.026C282.445 197.159 282.569 197.263 282.727 197.338C282.885 197.413 283.065 197.45 283.267 197.45C283.489 197.45 283.678 197.403 283.834 197.31C283.99 197.216 284.109 197.079 284.19 196.898C284.273 196.715 284.315 196.492 284.315 196.228V191.663ZM289.556 196.091V193.259H290.292V198.049H289.556V197.238H289.506C289.394 197.481 289.219 197.688 288.982 197.858C288.745 198.027 288.446 198.111 288.084 198.111C287.785 198.111 287.519 198.046 287.286 197.915C287.053 197.781 286.87 197.582 286.737 197.316C286.604 197.048 286.538 196.71 286.538 196.302V193.259H287.274V196.253C287.274 196.602 287.371 196.88 287.567 197.088C287.764 197.296 288.016 197.4 288.321 197.4C288.504 197.4 288.69 197.354 288.879 197.26C289.071 197.166 289.231 197.023 289.359 196.83C289.49 196.636 289.556 196.39 289.556 196.091ZM292.376 191.663V198.049H291.639V191.663H292.376Z" fill="#CCCCCC"/>
<path d="M316.5 198.049H315.69L318.035 191.663H318.833L321.178 198.049H320.367L318.458 192.673H318.409L316.5 198.049ZM316.8 195.554H320.068V196.24H316.8V195.554ZM325.091 196.091V193.259H325.827V198.049H325.091V197.238H325.041C324.929 197.481 324.754 197.688 324.517 197.858C324.28 198.027 323.981 198.111 323.619 198.111C323.32 198.111 323.054 198.046 322.821 197.915C322.588 197.781 322.405 197.582 322.272 197.316C322.139 197.048 322.073 196.71 322.073 196.302V193.259H322.808V196.253C322.808 196.602 322.906 196.88 323.101 197.088C323.299 197.296 323.551 197.4 323.856 197.4C324.039 197.4 324.225 197.354 324.414 197.26C324.605 197.166 324.765 197.023 324.895 196.83C325.025 196.636 325.091 196.39 325.091 196.091ZM329.108 199.944C328.752 199.944 328.447 199.899 328.191 199.807C327.935 199.718 327.722 199.599 327.552 199.452C327.383 199.306 327.249 199.151 327.15 198.984L327.736 198.573C327.802 198.66 327.886 198.759 327.988 198.872C328.09 198.986 328.229 199.085 328.406 199.168C328.585 199.253 328.819 199.296 329.108 199.296C329.495 199.296 329.814 199.202 330.065 199.016C330.317 198.828 330.442 198.535 330.442 198.136V197.163H330.38C330.326 197.251 330.249 197.358 330.149 197.487C330.052 197.614 329.91 197.728 329.725 197.827C329.542 197.925 329.295 197.974 328.983 197.974C328.597 197.974 328.249 197.882 327.941 197.699C327.636 197.517 327.394 197.251 327.215 196.901C327.038 196.552 326.95 196.128 326.95 195.629C326.95 195.138 327.036 194.711 327.209 194.348C327.381 193.982 327.621 193.699 327.929 193.499C328.237 193.298 328.592 193.197 328.996 193.197C329.307 193.197 329.555 193.249 329.737 193.353C329.922 193.455 330.064 193.571 330.161 193.702C330.261 193.831 330.338 193.937 330.392 194.02H330.467V193.259H331.178V198.186C331.178 198.597 331.084 198.932 330.898 199.19C330.713 199.45 330.463 199.64 330.149 199.76C329.838 199.883 329.49 199.944 329.108 199.944ZM329.083 197.313C329.378 197.313 329.627 197.245 329.831 197.11C330.035 196.975 330.19 196.781 330.296 196.527C330.402 196.274 330.455 195.97 330.455 195.617C330.455 195.272 330.403 194.967 330.299 194.703C330.195 194.439 330.041 194.232 329.837 194.082C329.634 193.933 329.382 193.858 329.083 193.858C328.771 193.858 328.511 193.937 328.303 194.095C328.097 194.253 327.942 194.465 327.838 194.731C327.737 194.997 327.686 195.292 327.686 195.617C327.686 195.949 327.738 196.243 327.842 196.499C327.948 196.753 328.104 196.952 328.31 197.097C328.517 197.241 328.775 197.313 329.083 197.313Z" fill="#CCCCCC"/>
<path d="M356.479 193.26C356.442 192.943 356.29 192.698 356.024 192.523C355.758 192.349 355.432 192.262 355.045 192.262C354.762 192.262 354.515 192.307 354.303 192.399C354.093 192.49 353.929 192.616 353.81 192.776C353.694 192.936 353.636 193.118 353.636 193.322C353.636 193.492 353.676 193.639 353.757 193.762C353.84 193.882 353.946 193.983 354.075 194.064C354.204 194.143 354.339 194.208 354.48 194.261C354.622 194.31 354.752 194.351 354.87 194.382L355.519 194.557C355.685 194.6 355.87 194.661 356.074 194.738C356.279 194.814 356.476 194.92 356.663 195.052C356.852 195.183 357.008 195.352 357.131 195.558C357.254 195.763 357.315 196.016 357.315 196.315C357.315 196.66 357.224 196.972 357.043 197.251C356.865 197.529 356.603 197.75 356.258 197.915C355.915 198.079 355.498 198.161 355.007 198.161C354.55 198.161 354.154 198.087 353.819 197.94C353.487 197.792 353.225 197.586 353.034 197.323C352.844 197.058 352.738 196.752 352.713 196.403H353.511C353.532 196.643 353.613 196.843 353.754 197.001C353.898 197.157 354.079 197.274 354.297 197.35C354.517 197.425 354.754 197.463 355.007 197.463C355.302 197.463 355.568 197.415 355.802 197.319C356.038 197.222 356.223 197.086 356.361 196.914C356.498 196.739 356.566 196.536 356.566 196.303C356.566 196.091 356.507 195.918 356.389 195.785C356.27 195.652 356.115 195.544 355.921 195.461C355.728 195.378 355.519 195.305 355.294 195.243L354.509 195.018C354.01 194.875 353.615 194.67 353.324 194.404C353.033 194.138 352.887 193.789 352.887 193.359C352.887 193.002 352.984 192.69 353.177 192.424C353.373 192.156 353.635 191.948 353.963 191.8C354.294 191.651 354.662 191.576 355.07 191.576C355.481 191.576 355.847 191.649 356.167 191.797C356.487 191.943 356.741 192.142 356.928 192.396C357.118 192.649 357.217 192.937 357.227 193.26H356.479ZM360.495 198.149C360.033 198.149 359.635 198.047 359.3 197.843C358.968 197.637 358.711 197.35 358.53 196.983C358.351 196.612 358.262 196.182 358.262 195.692C358.262 195.201 358.351 194.769 358.53 194.395C358.711 194.018 358.962 193.725 359.285 193.515C359.609 193.303 359.987 193.197 360.419 193.197C360.669 193.197 360.916 193.239 361.159 193.322C361.402 193.405 361.623 193.54 361.823 193.727C362.022 193.912 362.181 194.158 362.3 194.463C362.419 194.769 362.478 195.145 362.478 195.592V195.903H358.786V195.267H361.729C361.729 194.997 361.675 194.756 361.567 194.544C361.461 194.332 361.309 194.165 361.112 194.042C360.917 193.92 360.686 193.858 360.419 193.858C360.126 193.858 359.873 193.931 359.659 194.077C359.447 194.22 359.284 194.407 359.169 194.638C359.055 194.868 358.998 195.116 358.998 195.38V195.804C358.998 196.165 359.06 196.472 359.185 196.723C359.312 196.973 359.487 197.163 359.712 197.294C359.937 197.423 360.197 197.487 360.495 197.487C360.688 197.487 360.862 197.461 361.019 197.406C361.176 197.35 361.313 197.267 361.427 197.157C361.541 197.045 361.629 196.905 361.692 196.739L362.403 196.939C362.328 197.18 362.202 197.392 362.025 197.575C361.849 197.756 361.631 197.897 361.371 197.999C361.111 198.099 360.819 198.149 360.495 198.149ZM363.597 199.845V193.26H364.308V194.02H364.395C364.449 193.937 364.524 193.831 364.619 193.702C364.718 193.571 364.857 193.455 365.038 193.353C365.22 193.249 365.468 193.197 365.779 193.197C366.183 193.197 366.539 193.298 366.846 193.5C367.154 193.701 367.394 193.987 367.566 194.357C367.739 194.727 367.825 195.163 367.825 195.666C367.825 196.174 367.739 196.614 367.566 196.985C367.394 197.356 367.155 197.643 366.849 197.846C366.543 198.048 366.191 198.149 365.792 198.149C365.484 198.149 365.238 198.098 365.053 197.996C364.868 197.892 364.726 197.774 364.626 197.643C364.526 197.51 364.449 197.4 364.395 197.313H364.333V199.845H363.597ZM364.32 195.654C364.32 196.016 364.373 196.335 364.479 196.611C364.585 196.886 364.74 197.101 364.944 197.257C365.148 197.411 365.397 197.487 365.692 197.487C366 197.487 366.257 197.406 366.462 197.244C366.67 197.08 366.826 196.86 366.93 196.583C367.036 196.305 367.089 195.995 367.089 195.654C367.089 195.318 367.037 195.014 366.933 194.743C366.832 194.471 366.677 194.256 366.469 194.098C366.263 193.938 366.004 193.858 365.692 193.858C365.393 193.858 365.141 193.934 364.938 194.086C364.734 194.236 364.58 194.445 364.476 194.716C364.372 194.984 364.32 195.297 364.32 195.654Z" fill="#CCCCCC"/>
<path d="M395.599 194.856C395.599 195.529 395.478 196.111 395.234 196.602C394.991 197.093 394.658 197.471 394.234 197.737C393.809 198.003 393.325 198.136 392.78 198.136C392.236 198.136 391.752 198.003 391.327 197.737C390.903 197.471 390.57 197.093 390.326 196.602C390.083 196.111 389.962 195.529 389.962 194.856C389.962 194.183 390.083 193.601 390.326 193.11C390.57 192.619 390.903 192.241 391.327 191.975C391.752 191.709 392.236 191.576 392.78 191.576C393.325 191.576 393.809 191.709 394.234 191.975C394.658 192.241 394.991 192.619 395.234 193.11C395.478 193.601 395.599 194.183 395.599 194.856ZM394.851 194.856C394.851 194.303 394.759 193.836 394.573 193.456C394.39 193.076 394.142 192.787 393.828 192.592C393.516 192.397 393.167 192.299 392.78 192.299C392.394 192.299 392.043 192.397 391.73 192.592C391.418 192.787 391.169 193.076 390.984 193.456C390.801 193.836 390.71 194.303 390.71 194.856C390.71 195.409 390.801 195.876 390.984 196.256C391.169 196.636 391.418 196.924 391.73 197.12C392.043 197.315 392.394 197.413 392.78 197.413C393.167 197.413 393.516 197.315 393.828 197.12C394.142 196.924 394.39 196.636 394.573 196.256C394.759 195.876 394.851 195.409 394.851 194.856ZM398.745 198.149C398.296 198.149 397.91 198.043 397.585 197.831C397.261 197.619 397.012 197.326 396.837 196.954C396.662 196.583 396.575 196.157 396.575 195.679C396.575 195.193 396.664 194.763 396.843 194.391C397.024 194.017 397.276 193.725 397.598 193.515C397.922 193.303 398.3 193.197 398.733 193.197C399.07 193.197 399.373 193.26 399.643 193.384C399.914 193.509 400.135 193.683 400.307 193.908C400.48 194.133 400.587 194.395 400.629 194.694H399.893C399.837 194.476 399.712 194.282 399.519 194.114C399.327 193.943 399.07 193.858 398.745 193.858C398.458 193.858 398.207 193.933 397.991 194.083C397.777 194.23 397.609 194.439 397.489 194.709C397.37 194.978 397.311 195.292 397.311 195.654C397.311 196.024 397.369 196.346 397.486 196.621C397.604 196.895 397.77 197.108 397.984 197.26C398.2 197.412 398.454 197.487 398.745 197.487C398.937 197.487 399.11 197.454 399.266 197.388C399.422 197.322 399.554 197.225 399.662 197.101C399.77 196.976 399.847 196.826 399.893 196.652H400.629C400.587 196.935 400.484 197.189 400.32 197.416C400.158 197.641 399.942 197.819 399.675 197.952C399.408 198.083 399.098 198.149 398.745 198.149ZM403.787 193.26V193.883H401.305V193.26H403.787ZM402.029 192.112H402.764V196.677C402.764 196.885 402.795 197.041 402.855 197.144C402.917 197.246 402.996 197.315 403.092 197.35C403.19 197.383 403.293 197.4 403.4 197.4C403.481 197.4 403.548 197.396 403.6 197.388C403.652 197.378 403.694 197.369 403.725 197.363L403.875 198.024C403.825 198.043 403.755 198.062 403.666 198.08C403.576 198.101 403.463 198.111 403.326 198.111C403.118 198.111 402.914 198.066 402.715 197.977C402.517 197.888 402.353 197.752 402.222 197.569C402.093 197.386 402.029 197.155 402.029 196.877V192.112Z" fill="#CCCCCC"/>
<path d="M430.968 191.663V198.049H430.22L426.74 193.035H426.678V198.049H425.905V191.663H426.653L430.145 196.689H430.208V191.663H430.968ZM434.362 198.149C433.929 198.149 433.55 198.046 433.223 197.84C432.899 197.634 432.646 197.346 432.463 196.976C432.282 196.606 432.192 196.174 432.192 195.679C432.192 195.18 432.282 194.745 432.463 194.373C432.646 194 432.899 193.712 433.223 193.506C433.55 193.3 433.929 193.197 434.362 193.197C434.794 193.197 435.173 193.3 435.497 193.506C435.823 193.712 436.077 194 436.257 194.373C436.44 194.745 436.532 195.18 436.532 195.679C436.532 196.174 436.44 196.606 436.257 196.976C436.077 197.346 435.823 197.634 435.497 197.84C435.173 198.046 434.794 198.149 434.362 198.149ZM434.362 197.487C434.69 197.487 434.96 197.403 435.173 197.235C435.384 197.067 435.541 196.845 435.643 196.571C435.745 196.297 435.796 195.999 435.796 195.679C435.796 195.359 435.745 195.06 435.643 194.784C435.541 194.508 435.384 194.284 435.173 194.114C434.96 193.943 434.69 193.858 434.362 193.858C434.033 193.858 433.763 193.943 433.551 194.114C433.339 194.284 433.182 194.508 433.08 194.784C432.978 195.06 432.927 195.359 432.927 195.679C432.927 195.999 432.978 196.297 433.08 196.571C433.182 196.845 433.339 197.067 433.551 197.235C433.763 197.403 434.033 197.487 434.362 197.487ZM441.4 193.259L439.629 198.049H438.88L437.11 193.259H437.908L439.23 197.076H439.279L440.602 193.259H441.4Z" fill="#CCCCCC"/>
<path d="M464.581 198.049H462.61V191.663H464.668C465.287 191.663 465.818 191.791 466.259 192.046C466.699 192.3 467.037 192.665 467.272 193.141C467.506 193.615 467.624 194.182 467.624 194.843C467.624 195.509 467.505 196.081 467.269 196.561C467.032 197.039 466.686 197.407 466.233 197.665C465.78 197.921 465.229 198.049 464.581 198.049ZM463.384 197.363H464.531C465.059 197.363 465.497 197.261 465.844 197.057C466.191 196.854 466.45 196.563 466.62 196.187C466.79 195.811 466.876 195.363 466.876 194.843C466.876 194.328 466.792 193.884 466.623 193.512C466.455 193.138 466.204 192.851 465.869 192.651C465.534 192.45 465.117 192.349 464.618 192.349H463.384V197.363ZM470.829 198.149C470.368 198.149 469.97 198.047 469.635 197.843C469.303 197.637 469.046 197.35 468.865 196.982C468.686 196.612 468.597 196.182 468.597 195.692C468.597 195.201 468.686 194.769 468.865 194.395C469.046 194.018 469.298 193.725 469.62 193.515C469.944 193.303 470.323 193.197 470.755 193.197C471.004 193.197 471.25 193.238 471.494 193.322C471.737 193.405 471.958 193.54 472.158 193.727C472.357 193.912 472.516 194.157 472.635 194.463C472.753 194.769 472.813 195.145 472.813 195.592V195.903H469.121V195.267H472.064C472.064 194.997 472.01 194.756 471.902 194.544C471.796 194.332 471.644 194.165 471.447 194.042C471.251 193.919 471.021 193.858 470.755 193.858C470.462 193.858 470.208 193.931 469.994 194.076C469.782 194.22 469.619 194.407 469.504 194.637C469.39 194.868 469.333 195.116 469.333 195.379V195.804C469.333 196.165 469.395 196.472 469.52 196.723C469.647 196.973 469.823 197.163 470.047 197.294C470.271 197.423 470.532 197.487 470.829 197.487C471.023 197.487 471.198 197.46 471.353 197.406C471.511 197.35 471.647 197.267 471.762 197.157C471.876 197.045 471.965 196.905 472.027 196.739L472.738 196.938C472.663 197.18 472.537 197.392 472.361 197.575C472.184 197.756 471.965 197.897 471.705 197.999C471.446 198.098 471.154 198.149 470.829 198.149ZM475.878 198.149C475.429 198.149 475.042 198.042 474.718 197.831C474.393 197.618 474.144 197.326 473.969 196.954C473.795 196.582 473.707 196.157 473.707 195.679C473.707 195.193 473.797 194.763 473.976 194.391C474.157 194.017 474.408 193.725 474.73 193.515C475.055 193.303 475.433 193.197 475.865 193.197C476.202 193.197 476.505 193.259 476.776 193.384C477.046 193.509 477.267 193.683 477.44 193.908C477.612 194.133 477.72 194.395 477.761 194.694H477.025C476.969 194.476 476.844 194.282 476.651 194.114C476.46 193.943 476.202 193.858 475.878 193.858C475.591 193.858 475.339 193.933 475.123 194.082C474.909 194.23 474.742 194.439 474.621 194.709C474.503 194.977 474.444 195.292 474.444 195.654C474.444 196.024 474.502 196.346 474.618 196.62C474.737 196.895 474.903 197.108 475.117 197.26C475.333 197.412 475.586 197.487 475.878 197.487C476.069 197.487 476.243 197.454 476.398 197.388C476.554 197.321 476.686 197.225 476.794 197.101C476.903 196.976 476.98 196.826 477.025 196.652H477.761C477.72 196.935 477.617 197.189 477.452 197.416C477.29 197.64 477.075 197.819 476.807 197.952C476.541 198.083 476.231 198.149 475.878 198.149Z" fill="#CCCCCC"/>
<path d="M60.0088 61.2195H478.049" stroke="#656565" stroke-width="3" stroke-dasharray="2 2"/>
<path d="M60.0088 86.5854H478.049" stroke="#656565" stroke-width="3" stroke-dasharray="2 2"/>
<path d="M60.0088 113.415H478.049" stroke="#656565" stroke-width="3" stroke-dasharray="2 2"/>
<path d="M59.5122 140.244H477.552" stroke="#656565" stroke-width="3" stroke-dasharray="2 2"/>
<path d="M60.0088 167.073H478.049" stroke="#656565" stroke-width="3" stroke-dasharray="2 2"/>
<path d="M60.4878 133.659C60.4878 133.659 73.1556 112.599 86.5854 106.829C92.7844 104.166 96.6795 103.321 103.415 102.927C135.629 101.041 125.984 178.184 156.098 166.585C173.128 160.026 165.673 129.895 183.902 129.024C190.987 128.686 194.377 133.951 201.463 133.659C220.604 132.869 213.658 104.168 229.512 93.4147C264.217 69.8757 305.495 158.145 331.951 125.61C341.852 113.434 329.259 89.0786 344.878 87.5611C357.886 86.2972 355.998 109.676 369.024 110.732C389.637 112.403 361.721 74.3942 374.39 58.0489C394.118 32.5977 407.861 127.522 419.024 97.3172C430.188 67.1128 435.122 71.9513 435.122 71.9513C443.32 76.4918 438.312 87.8518 445.854 93.4147C462.28 105.531 478.049 46.3416 478.049 46.3416" stroke="#FFDD00" stroke-width="4"/>
</g>
<defs>
<clipPath id="clip0_2_653">
<rect width="500" height="216.098" fill="white"/>
</clipPath>
</defs>
</svg>
