<svg width="518" height="97" viewBox="0 0 518 97" fill="none" xmlns="http://www.w3.org/2000/svg">
<g filter="url(#filter0_d_2_256)">
<rect x="9" y="9" width="500" height="79" rx="20" fill="#201D1D"/>
<path d="M42.1875 57H37.0256V40.2727H42.4162C44.0388 40.2727 45.4273 40.6076 46.5817 41.2773C47.736 41.9416 48.6209 42.8973 49.2362 44.1442C49.8514 45.3857 50.1591 46.8722 50.1591 48.6037C50.1591 50.3461 49.8487 51.8462 49.228 53.104C48.6072 54.3564 47.7034 55.3202 46.5163 55.9954C45.3293 56.6651 43.8864 57 42.1875 57ZM39.0511 55.2031H42.0568C43.4399 55.2031 44.5861 54.9363 45.4954 54.4027C46.4047 53.8691 47.0826 53.1095 47.5291 52.1239C47.9756 51.1384 48.1989 49.965 48.1989 48.6037C48.1989 47.2533 47.9783 46.0908 47.5373 45.1161C47.0962 44.136 46.4374 43.3846 45.5607 42.8619C44.6841 42.3337 43.5923 42.0696 42.2855 42.0696H39.0511V55.2031ZM55.5824 40.2727V57H53.5568V40.2727H55.5824ZM68.7915 44.4545C68.6934 43.6269 68.296 42.9844 67.599 42.527C66.902 42.0696 66.0471 41.8409 65.0344 41.8409C64.2938 41.8409 63.6459 41.9607 63.0905 42.2003C62.5405 42.4399 62.1104 42.7693 61.8 43.1886C61.4951 43.6078 61.3426 44.0843 61.3426 44.6179C61.3426 45.0644 61.4488 45.4483 61.6611 45.7695C61.8789 46.0853 62.1566 46.3494 62.4942 46.5618C62.8318 46.7687 63.1858 46.9402 63.556 47.0763C63.9263 47.207 64.2666 47.3132 64.577 47.3949L66.2758 47.8523C66.7114 47.9666 67.1961 48.1245 67.7297 48.326C68.2687 48.5275 68.7833 48.8024 69.2733 49.1509C69.7689 49.494 70.1772 49.935 70.4985 50.4741C70.8198 51.0131 70.9804 51.6747 70.9804 52.4588C70.9804 53.3627 70.7435 54.1795 70.2698 54.9091C69.8015 55.6387 69.1154 56.2186 68.2116 56.6488C67.3131 57.079 66.2214 57.294 64.9363 57.294C63.7384 57.294 62.7011 57.1007 61.8245 56.7141C60.9533 56.3275 60.2672 55.7885 59.7662 55.0969C59.2707 54.4054 58.9903 53.6023 58.925 52.6875H61.0159C61.0703 53.3191 61.2827 53.8419 61.653 54.2557C62.0287 54.6641 62.5024 54.969 63.0741 55.1705C63.6513 55.3665 64.272 55.4645 64.9363 55.4645C65.7095 55.4645 66.4038 55.3393 67.0191 55.0888C67.6344 54.8329 68.1217 54.4789 68.4811 54.027C68.8405 53.5696 69.0202 53.036 69.0202 52.4261C69.0202 51.8707 68.865 51.4188 68.5546 51.0703C68.2442 50.7218 67.8358 50.4387 67.3295 50.2209C66.8231 50.0031 66.2758 49.8125 65.6878 49.6491L63.6295 49.0611C62.3227 48.6854 61.2881 48.149 60.5258 47.4521C59.7635 46.7551 59.3824 45.843 59.3824 44.7159C59.3824 43.7794 59.6356 42.9626 60.142 42.2656C60.6538 41.5632 61.3399 41.0187 62.2002 40.6321C63.066 40.2401 64.0325 40.044 65.0997 40.044C66.1778 40.044 67.1362 40.2373 67.9747 40.6239C68.8132 41.0051 69.4775 41.5278 69.9676 42.1921C70.4631 42.8564 70.7245 43.6106 70.7517 44.4545H68.7915Z" fill="white"/>
<path d="M167.781 40.2727V57H165.756V42.3963H165.658L161.574 45.108V43.0497L165.756 40.2727H167.781ZM178.473 40.2727V57H176.447V42.3963H176.349L172.265 45.108V43.0497L176.447 40.2727H178.473ZM188.837 57.2287C188.151 57.2178 187.465 57.0871 186.779 56.8366C186.093 56.5862 185.467 56.1642 184.9 55.5707C184.334 54.9717 183.88 54.1631 183.536 53.1449C183.193 52.1212 183.022 50.8362 183.022 49.2898C183.022 47.8087 183.161 46.4964 183.438 45.353C183.716 44.2041 184.119 43.2376 184.647 42.4535C185.175 41.6639 185.813 41.065 186.559 40.6566C187.31 40.2482 188.157 40.044 189.099 40.044C190.035 40.044 190.868 40.2319 191.598 40.6076C192.333 40.9779 192.932 41.4951 193.395 42.1594C193.858 42.8237 194.157 43.5888 194.293 44.4545H192.3C192.115 43.7031 191.756 43.0797 191.222 42.5842C190.689 42.0887 189.981 41.8409 189.099 41.8409C187.803 41.8409 186.782 42.4045 186.036 43.5316C185.295 44.6587 184.922 46.2405 184.917 48.277H185.047C185.352 47.8142 185.715 47.4194 186.134 47.0927C186.559 46.7605 187.027 46.5046 187.539 46.3249C188.05 46.1452 188.592 46.0554 189.164 46.0554C190.122 46.0554 190.999 46.295 191.794 46.7741C192.589 47.2479 193.226 47.904 193.705 48.7425C194.184 49.5756 194.424 50.5312 194.424 51.6094C194.424 52.6439 194.193 53.5914 193.73 54.4517C193.267 55.3066 192.616 55.9872 191.778 56.4936C190.945 56.9946 189.964 57.2396 188.837 57.2287ZM188.837 55.4318C189.523 55.4318 190.139 55.2603 190.683 54.9173C191.233 54.5742 191.666 54.1141 191.982 53.5369C192.303 52.9598 192.464 52.3172 192.464 51.6094C192.464 50.9179 192.309 50.2889 191.998 49.7227C191.693 49.1509 191.271 48.6963 190.732 48.3587C190.199 48.0211 189.589 47.8523 188.903 47.8523C188.385 47.8523 187.903 47.9557 187.457 48.1626C187.01 48.3641 186.618 48.6418 186.281 48.9957C185.949 49.3497 185.687 49.7553 185.497 50.2127C185.306 50.6647 185.211 51.1411 185.211 51.642C185.211 52.3063 185.366 52.9271 185.676 53.5043C185.992 54.0814 186.422 54.547 186.967 54.9009C187.517 55.2549 188.14 55.4318 188.837 55.4318ZM198.287 57.1307C197.884 57.1307 197.539 56.9864 197.25 56.6978C196.961 56.4092 196.817 56.0634 196.817 55.6605C196.817 55.2576 196.961 54.9118 197.25 54.6232C197.539 54.3346 197.884 54.1903 198.287 54.1903C198.69 54.1903 199.036 54.3346 199.324 54.6232C199.613 54.9118 199.757 55.2576 199.757 55.6605C199.757 55.9273 199.689 56.1723 199.553 56.3956C199.422 56.6188 199.246 56.7985 199.022 56.9347C198.804 57.0653 198.559 57.1307 198.287 57.1307ZM208.352 40.044C209.038 40.0495 209.724 40.1802 210.41 40.4361C211.096 40.692 211.722 41.1167 212.289 41.7102C212.855 42.2983 213.309 43.1014 213.653 44.1197C213.996 45.1379 214.167 46.4148 214.167 47.9503C214.167 49.4368 214.026 50.7572 213.742 51.9116C213.465 53.0605 213.062 54.0297 212.534 54.8192C212.011 55.6088 211.374 56.2077 210.622 56.6161C209.876 57.0245 209.032 57.2287 208.09 57.2287C207.154 57.2287 206.318 57.0436 205.583 56.6733C204.853 56.2976 204.254 55.7776 203.786 55.1133C203.323 54.4435 203.026 53.6676 202.896 52.7855H204.889C205.068 53.5533 205.425 54.1876 205.959 54.6886C206.498 55.1841 207.208 55.4318 208.09 55.4318C209.381 55.4318 210.399 54.8683 211.145 53.7411C211.896 52.614 212.272 51.0213 212.272 48.9631H212.142C211.837 49.4205 211.474 49.8152 211.055 50.1474C210.636 50.4795 210.17 50.7354 209.659 50.9151C209.147 51.0948 208.602 51.1847 208.025 51.1847C207.067 51.1847 206.187 50.9478 205.387 50.4741C204.592 49.9949 203.955 49.3388 203.476 48.5057C203.002 47.6671 202.765 46.7088 202.765 45.6307C202.765 44.607 202.994 43.6705 203.451 42.821C203.914 41.9661 204.562 41.2855 205.395 40.7791C206.234 40.2727 207.219 40.0277 208.352 40.044ZM208.352 41.8409C207.666 41.8409 207.048 42.0124 206.498 42.3555C205.953 42.6931 205.52 43.1504 205.199 43.7276C204.883 44.2994 204.725 44.9337 204.725 45.6307C204.725 46.3277 204.878 46.962 205.183 47.5337C205.493 48.1 205.915 48.552 206.449 48.8896C206.988 49.2217 207.6 49.3878 208.286 49.3878C208.804 49.3878 209.286 49.2871 209.732 49.0856C210.179 48.8787 210.568 48.5982 210.9 48.2443C211.238 47.8849 211.502 47.4793 211.692 47.0273C211.883 46.57 211.978 46.0935 211.978 45.598C211.978 44.9446 211.82 44.332 211.504 43.7603C211.194 43.1886 210.764 42.7257 210.214 42.3718C209.669 42.0179 209.049 41.8409 208.352 41.8409ZM222.704 40.044C223.39 40.0495 224.076 40.1802 224.763 40.4361C225.449 40.692 226.075 41.1167 226.641 41.7102C227.207 42.2983 227.662 43.1014 228.005 44.1197C228.348 45.1379 228.52 46.4148 228.52 47.9503C228.52 49.4368 228.378 50.7572 228.095 51.9116C227.817 53.0605 227.414 54.0297 226.886 54.8192C226.363 55.6088 225.726 56.2077 224.975 56.6161C224.229 57.0245 223.385 57.2287 222.443 57.2287C221.506 57.2287 220.671 57.0436 219.935 56.6733C219.206 56.2976 218.607 55.7776 218.139 55.1133C217.676 54.4435 217.379 53.6676 217.248 52.7855H219.241C219.421 53.5533 219.778 54.1876 220.311 54.6886C220.85 55.1841 221.561 55.4318 222.443 55.4318C223.733 55.4318 224.752 54.8683 225.498 53.7411C226.249 52.614 226.625 51.0213 226.625 48.9631H226.494C226.189 49.4205 225.827 49.8152 225.408 50.1474C224.988 50.4795 224.523 50.7354 224.011 50.9151C223.499 51.0948 222.955 51.1847 222.378 51.1847C221.419 51.1847 220.54 50.9478 219.739 50.4741C218.944 49.9949 218.307 49.3388 217.828 48.5057C217.354 47.6671 217.118 46.7088 217.118 45.6307C217.118 44.607 217.346 43.6705 217.804 42.821C218.267 41.9661 218.915 41.2855 219.748 40.7791C220.586 40.2727 221.572 40.0277 222.704 40.044ZM222.704 41.8409C222.018 41.8409 221.4 42.0124 220.85 42.3555C220.306 42.6931 219.873 43.1504 219.552 43.7276C219.236 44.2994 219.078 44.9337 219.078 45.6307C219.078 46.3277 219.23 46.962 219.535 47.5337C219.846 48.1 220.268 48.552 220.801 48.8896C221.34 49.2217 221.953 49.3878 222.639 49.3878C223.156 49.3878 223.638 49.2871 224.085 49.0856C224.531 48.8787 224.92 48.5982 225.253 48.2443C225.59 47.8849 225.854 47.4793 226.045 47.0273C226.235 46.57 226.331 46.0935 226.331 45.598C226.331 44.9446 226.173 44.332 225.857 43.7603C225.547 43.1886 225.116 42.7257 224.566 42.3718C224.022 42.0179 223.401 41.8409 222.704 41.8409Z" fill="white"/>
<path d="M239.45 48.6364C239.45 46.5781 239.717 44.686 240.251 42.9599C240.79 41.2283 241.558 39.6357 242.554 38.1818H244.253C243.861 38.7209 243.493 39.3852 243.15 40.1747C242.813 40.9588 242.516 41.8219 242.26 42.7638C242.004 43.7004 241.803 44.6696 241.656 45.6715C241.514 46.6734 241.443 47.6617 241.443 48.6364C241.443 49.9323 241.568 51.2473 241.819 52.5813C242.069 53.9154 242.407 55.1541 242.832 56.2976C243.256 57.4411 243.73 58.3722 244.253 59.0909H242.554C241.558 57.6371 240.79 56.0471 240.251 54.321C239.717 52.5895 239.45 50.6946 239.45 48.6364ZM251.998 54.0597V43.2784H253.827V54.0597H251.998ZM247.522 49.5838V47.7543H258.303V49.5838H247.522ZM267.682 57.2287C266.451 57.2287 265.403 56.8938 264.537 56.2241C263.671 55.5489 263.01 54.5715 262.552 53.2919C262.095 52.0069 261.866 50.455 261.866 48.6364C261.866 46.8286 262.095 45.2849 262.552 44.0053C263.015 42.7203 263.68 41.7402 264.545 41.065C265.416 40.3844 266.462 40.044 267.682 40.044C268.901 40.044 269.944 40.3844 270.81 41.065C271.681 41.7402 272.345 42.7203 272.803 44.0053C273.266 45.2849 273.497 46.8286 273.497 48.6364C273.497 50.455 273.268 52.0069 272.811 53.2919C272.354 54.5715 271.692 55.5489 270.826 56.2241C269.96 56.8938 268.912 57.2287 267.682 57.2287ZM267.682 55.4318C268.901 55.4318 269.849 54.8437 270.524 53.6676C271.199 52.4915 271.537 50.8144 271.537 48.6364C271.537 47.188 271.382 45.9547 271.071 44.9364C270.766 43.9182 270.325 43.1423 269.748 42.6087C269.176 42.075 268.488 41.8082 267.682 41.8082C266.473 41.8082 265.528 42.4045 264.847 43.5969C264.167 44.784 263.827 46.4638 263.827 48.6364C263.827 50.0848 263.979 51.3153 264.284 52.3281C264.589 53.3409 265.027 54.1114 265.599 54.6396C266.176 55.1677 266.87 55.4318 267.682 55.4318ZM277.454 57.1307C277.051 57.1307 276.705 56.9864 276.417 56.6978C276.128 56.4092 275.984 56.0634 275.984 55.6605C275.984 55.2576 276.128 54.9118 276.417 54.6232C276.705 54.3346 277.051 54.1903 277.454 54.1903C277.857 54.1903 278.203 54.3346 278.491 54.6232C278.78 54.9118 278.924 55.2576 278.924 55.6605C278.924 55.9273 278.856 56.1723 278.72 56.3956C278.589 56.6188 278.413 56.7985 278.189 56.9347C277.971 57.0653 277.726 57.1307 277.454 57.1307ZM281.959 53.5696V51.9034L289.309 40.2727H290.518V42.8537H289.702L284.148 51.642V51.7727H294.047V53.5696H281.959ZM289.832 57V53.0632V52.2873V40.2727H291.76V57H289.832ZM302.661 57.2287C301.975 57.2178 301.289 57.0871 300.603 56.8366C299.917 56.5862 299.291 56.1642 298.725 55.5707C298.158 54.9717 297.704 54.1631 297.361 53.1449C297.018 52.1212 296.846 50.8362 296.846 49.2898C296.846 47.8087 296.985 46.4964 297.263 45.353C297.54 44.2041 297.943 43.2376 298.472 42.4535C299 41.6639 299.637 41.065 300.383 40.6566C301.134 40.2482 301.981 40.044 302.923 40.044C303.859 40.044 304.693 40.2319 305.422 40.6076C306.157 40.9779 306.756 41.4951 307.219 42.1594C307.682 42.8237 307.981 43.5888 308.117 44.4545H306.125C305.939 43.7031 305.58 43.0797 305.046 42.5842C304.513 42.0887 303.805 41.8409 302.923 41.8409C301.627 41.8409 300.606 42.4045 299.86 43.5316C299.119 44.6587 298.746 46.2405 298.741 48.277H298.872C299.177 47.8142 299.539 47.4194 299.958 47.0927C300.383 46.7605 300.851 46.5046 301.363 46.3249C301.875 46.1452 302.416 46.0554 302.988 46.0554C303.947 46.0554 304.823 46.295 305.618 46.7741C306.413 47.2479 307.05 47.904 307.529 48.7425C308.009 49.5756 308.248 50.5312 308.248 51.6094C308.248 52.6439 308.017 53.5914 307.554 54.4517C307.091 55.3066 306.44 55.9872 305.602 56.4936C304.769 56.9946 303.789 57.2396 302.661 57.2287ZM302.661 55.4318C303.348 55.4318 303.963 55.2603 304.507 54.9173C305.057 54.5742 305.49 54.1141 305.806 53.5369C306.127 52.9598 306.288 52.3172 306.288 51.6094C306.288 50.9179 306.133 50.2889 305.822 49.7227C305.517 49.1509 305.095 48.6963 304.556 48.3587C304.023 48.0211 303.413 47.8523 302.727 47.8523C302.21 47.8523 301.728 47.9557 301.281 48.1626C300.835 48.3641 300.443 48.6418 300.105 48.9957C299.773 49.3497 299.512 49.7553 299.321 50.2127C299.13 50.6647 299.035 51.1411 299.035 51.642C299.035 52.3063 299.19 52.9271 299.501 53.5043C299.816 54.0814 300.247 54.547 300.791 54.9009C301.341 55.2549 301.965 55.4318 302.661 55.4318ZM319.987 53.8636V52.9815C319.987 52.3717 320.112 51.8136 320.363 51.3072C320.619 50.7953 320.989 50.387 321.474 50.082C321.964 49.7717 322.557 49.6165 323.254 49.6165C323.962 49.6165 324.555 49.7717 325.035 50.082C325.514 50.387 325.876 50.7953 326.121 51.3072C326.366 51.8136 326.488 52.3717 326.488 52.9815V53.8636C326.488 54.4735 326.363 55.0343 326.113 55.5462C325.868 56.0526 325.503 56.4609 325.018 56.7713C324.539 57.0762 323.951 57.2287 323.254 57.2287C322.546 57.2287 321.95 57.0762 321.465 56.7713C320.981 56.4609 320.613 56.0526 320.363 55.5462C320.112 55.0343 319.987 54.4735 319.987 53.8636ZM321.653 52.9815V53.8636C321.653 54.37 321.773 54.8247 322.013 55.2276C322.252 55.6251 322.666 55.8239 323.254 55.8239C323.826 55.8239 324.229 55.6251 324.463 55.2276C324.702 54.8247 324.822 54.37 324.822 53.8636V52.9815C324.822 52.4751 324.708 52.0232 324.479 51.6257C324.251 51.2228 323.842 51.0213 323.254 51.0213C322.682 51.0213 322.271 51.2228 322.021 51.6257C321.776 52.0232 321.653 52.4751 321.653 52.9815ZM311.656 44.2912V43.4091C311.656 42.7992 311.781 42.2411 312.032 41.7347C312.288 41.2229 312.658 40.8145 313.143 40.5096C313.633 40.1992 314.226 40.044 314.923 40.044C315.631 40.044 316.224 40.1992 316.704 40.5096C317.183 40.8145 317.545 41.2229 317.79 41.7347C318.035 42.2411 318.157 42.7992 318.157 43.4091V44.2912C318.157 44.901 318.032 45.4619 317.782 45.9737C317.537 46.4801 317.172 46.8885 316.687 47.1989C316.208 47.5038 315.62 47.6562 314.923 47.6562C314.215 47.6562 313.619 47.5038 313.134 47.1989C312.65 46.8885 312.282 46.4801 312.032 45.9737C311.781 45.4619 311.656 44.901 311.656 44.2912ZM313.322 43.4091V44.2912C313.322 44.7976 313.442 45.2522 313.682 45.6552C313.921 46.0527 314.335 46.2514 314.923 46.2514C315.495 46.2514 315.898 46.0527 316.132 45.6552C316.372 45.2522 316.491 44.7976 316.491 44.2912V43.4091C316.491 42.9027 316.377 42.4508 316.148 42.0533C315.92 41.6503 315.511 41.4489 314.923 41.4489C314.351 41.4489 313.94 41.6503 313.69 42.0533C313.445 42.4508 313.322 42.9027 313.322 43.4091ZM312.277 57L323.777 40.2727H325.639L314.139 57H312.277ZM334.297 48.6364C334.297 50.6946 334.027 52.5895 333.488 54.321C332.954 56.0471 332.189 57.6371 331.193 59.0909H329.494C329.886 58.5518 330.251 57.8875 330.589 57.098C330.932 56.3139 331.231 55.4536 331.487 54.517C331.743 53.575 331.942 52.6031 332.083 51.6012C332.23 50.5939 332.304 49.6056 332.304 48.6364C332.304 47.3404 332.179 46.0254 331.928 44.6914C331.678 43.3574 331.34 42.1186 330.915 40.9751C330.491 39.8317 330.017 38.9006 329.494 38.1818H331.193C332.189 39.6357 332.954 41.2283 333.488 42.9599C334.027 44.686 334.297 46.5781 334.297 48.6364Z" fill="#AFFC41"/>
<path d="M360 54.3567C360 54.3567 360.8 45.4192 365.02 44.221C370.523 42.6588 367.05 58.4566 372.551 56.8907C376.061 55.8915 374.526 48.4345 378.073 49.2889C379.832 49.7124 379.872 51.7551 381.588 52.3296C385.31 53.5759 385.711 46.5552 389.62 46.2482C393.645 45.9321 395.09 49.4078 398.657 51.316C402.918 53.5954 404.883 57.0814 409.702 56.8907C414.174 56.7136 415.331 52.0704 419.743 51.316C424.901 50.4342 427.789 55.8879 432.796 54.3567C438.991 52.4622 436.076 42.3404 442.335 40.6736C447.256 39.3628 450.218 46.2696 454.886 44.221C458.34 42.7053 457.234 37.4466 460.91 36.6193C464.506 35.8101 465.81 41.276 469.445 40.6736C472.74 40.1275 472.701 35.7788 475.971 35.0989C478.721 34.5273 483 36.6193 483 36.6193" stroke="#AFFC41" stroke-width="2"/>
</g>
<defs>
<filter id="filter0_d_2_256" x="0" y="0" width="518" height="97" filterUnits="userSpaceOnUse" color-interpolation-filters="sRGB">
<feFlood flood-opacity="0" result="BackgroundImageFix"/>
<feColorMatrix in="SourceAlpha" type="matrix" values="0 0 0 0 0 0 0 0 0 0 0 0 0 0 0 0 0 0 127 0" result="hardAlpha"/>
<feMorphology radius="5" operator="dilate" in="SourceAlpha" result="effect1_dropShadow_2_256"/>
<feOffset/>
<feGaussianBlur stdDeviation="2"/>
<feComposite in2="hardAlpha" operator="out"/>
<feColorMatrix type="matrix" values="0 0 0 0 1 0 0 0 0 1 0 0 0 0 1 0 0 0 0.25 0"/>
<feBlend mode="normal" in2="BackgroundImageFix" result="effect1_dropShadow_2_256"/>
<feBlend mode="normal" in="SourceGraphic" in2="effect1_dropShadow_2_256" result="shape"/>
</filter>
</defs>
</svg>
