<svg width="100" height="92" viewBox="0 0 100 92" fill="none" xmlns="http://www.w3.org/2000/svg">
<path fill-rule="evenodd" clip-rule="evenodd" d="M100 91.4545H77.8986V59.4963C77.8986 51.1313 74.4415 45.4207 66.8392 45.4207C61.0243 45.4207 57.7904 49.2744 56.2852 52.9883C55.7208 54.3213 55.809 56.1782 55.809 58.0352V91.4545H33.9135C33.9135 91.4545 34.1957 34.8437 33.9135 29.6978H55.809V39.3901C57.1025 35.1522 64.0992 29.104 75.2645 29.104C89.1168 29.104 100 37.9872 100 57.1155V91.4545ZM11.7709 21.9731H11.6298C4.57433 21.9731 0 17.2521 0 11.268C0 5.16739 4.70954 0.54541 11.9062 0.54541C19.0969 0.54541 23.5183 5.1558 23.6594 11.2506C23.6594 17.2347 19.0969 21.9731 11.7709 21.9731ZM2.52228 29.6978H22.0132V91.4545H2.52228V29.6978Z" fill="#CCF382"/>
</svg>
