<svg width="135" height="124" viewBox="0 0 135 124" fill="none" xmlns="http://www.w3.org/2000/svg">
<circle cx="1.5" cy="1.5" r="1.5" fill="#CCF382"/>
<circle cx="13.5" cy="1.5" r="1.5" fill="#CCF382"/>
<circle cx="25.5" cy="1.5" r="1.5" fill="#CCF382"/>
<circle cx="37.5" cy="1.5" r="1.5" fill="#CCF382"/>
<circle cx="49.5" cy="1.5" r="1.5" fill="#CCF382"/>
<circle cx="61.5" cy="1.5" r="1.5" fill="#CCF382"/>
<circle cx="73.5" cy="1.5" r="1.5" fill="#CCF382"/>
<circle cx="85.5" cy="1.5" r="1.5" fill="#CCF382"/>
<circle cx="97.5" cy="1.5" r="1.5" fill="#CCF382"/>
<circle cx="109.5" cy="1.5" r="1.5" fill="#CCF382"/>
<circle cx="121.5" cy="1.5" r="1.5" fill="#CCF382"/>
<circle cx="133.5" cy="1.5" r="1.5" fill="#CCF382"/>
<circle cx="1.5" cy="12.5" r="1.5" fill="#CCF382"/>
<circle cx="13.5" cy="12.5" r="1.5" fill="#CCF382"/>
<circle cx="25.5" cy="12.5" r="1.5" fill="#CCF382"/>
<circle cx="37.5" cy="12.5" r="1.5" fill="#CCF382"/>
<circle cx="49.5" cy="12.5" r="1.5" fill="#CCF382"/>
<circle cx="61.5" cy="12.5" r="1.5" fill="#CCF382"/>
<circle cx="73.5" cy="12.5" r="1.5" fill="#CCF382"/>
<circle cx="85.5" cy="12.5" r="1.5" fill="#CCF382"/>
<circle cx="97.5" cy="12.5" r="1.5" fill="#CCF382"/>
<circle cx="109.5" cy="12.5" r="1.5" fill="#CCF382"/>
<circle cx="121.5" cy="12.5" r="1.5" fill="#CCF382"/>
<circle cx="133.5" cy="12.5" r="1.5" fill="#CCF382"/>
<circle cx="1.5" cy="23.5" r="1.5" fill="#CCF382"/>
<circle cx="13.5" cy="23.5" r="1.5" fill="#CCF382"/>
<circle cx="25.5" cy="23.5" r="1.5" fill="#CCF382"/>
<circle cx="37.5" cy="23.5" r="1.5" fill="#CCF382"/>
<circle cx="49.5" cy="23.5" r="1.5" fill="#CCF382"/>
<circle cx="61.5" cy="23.5" r="1.5" fill="#CCF382"/>
<circle cx="73.5" cy="23.5" r="1.5" fill="#CCF382"/>
<circle cx="85.5" cy="23.5" r="1.5" fill="#CCF382"/>
<circle cx="97.5" cy="23.5" r="1.5" fill="#CCF382"/>
<circle cx="109.5" cy="23.5" r="1.5" fill="#CCF382"/>
<circle cx="121.5" cy="23.5" r="1.5" fill="#CCF382"/>
<circle cx="133.5" cy="23.5" r="1.5" fill="#CCF382"/>
<circle cx="1.5" cy="34.5" r="1.5" fill="#CCF382"/>
<circle cx="13.5" cy="34.5" r="1.5" fill="#CCF382"/>
<circle cx="25.5" cy="34.5" r="1.5" fill="#CCF382"/>
<circle cx="37.5" cy="34.5" r="1.5" fill="#CCF382"/>
<circle cx="49.5" cy="34.5" r="1.5" fill="#CCF382"/>
<circle cx="61.5" cy="34.5" r="1.5" fill="#CCF382"/>
<circle cx="73.5" cy="34.5" r="1.5" fill="#CCF382"/>
<circle cx="85.5" cy="34.5" r="1.5" fill="#CCF382"/>
<circle cx="97.5" cy="34.5" r="1.5" fill="#CCF382"/>
<circle cx="109.5" cy="34.5" r="1.5" fill="#CCF382"/>
<circle cx="121.5" cy="34.5" r="1.5" fill="#CCF382"/>
<circle cx="133.5" cy="34.5" r="1.5" fill="#CCF382"/>
<circle cx="1.5" cy="45.5" r="1.5" fill="#CCF382"/>
<circle cx="13.5" cy="45.5" r="1.5" fill="#CCF382"/>
<circle cx="25.5" cy="45.5" r="1.5" fill="#CCF382"/>
<circle cx="37.5" cy="45.5" r="1.5" fill="#CCF382"/>
<circle cx="49.5" cy="45.5" r="1.5" fill="#CCF382"/>
<circle cx="61.5" cy="45.5" r="1.5" fill="#CCF382"/>
<circle cx="73.5" cy="45.5" r="1.5" fill="#CCF382"/>
<circle cx="85.5" cy="45.5" r="1.5" fill="#CCF382"/>
<circle cx="97.5" cy="45.5" r="1.5" fill="#CCF382"/>
<circle cx="109.5" cy="45.5" r="1.5" fill="#CCF382"/>
<circle cx="121.5" cy="45.5" r="1.5" fill="#CCF382"/>
<circle cx="133.5" cy="45.5" r="1.5" fill="#CCF382"/>
<circle cx="1.5" cy="56.5" r="1.5" fill="#CCF382"/>
<circle cx="13.5" cy="56.5" r="1.5" fill="#CCF382"/>
<circle cx="25.5" cy="56.5" r="1.5" fill="#CCF382"/>
<circle cx="37.5" cy="56.5" r="1.5" fill="#CCF382"/>
<circle cx="49.5" cy="56.5" r="1.5" fill="#CCF382"/>
<circle cx="61.5" cy="56.5" r="1.5" fill="#CCF382"/>
<circle cx="73.5" cy="56.5" r="1.5" fill="#CCF382"/>
<circle cx="85.5" cy="56.5" r="1.5" fill="#CCF382"/>
<circle cx="97.5" cy="56.5" r="1.5" fill="#CCF382"/>
<circle cx="109.5" cy="56.5" r="1.5" fill="#CCF382"/>
<circle cx="121.5" cy="56.5" r="1.5" fill="#CCF382"/>
<circle cx="133.5" cy="56.5" r="1.5" fill="#CCF382"/>
<circle cx="1.5" cy="67.5" r="1.5" fill="#CCF382"/>
<circle cx="13.5" cy="67.5" r="1.5" fill="#CCF382"/>
<circle cx="25.5" cy="67.5" r="1.5" fill="#CCF382"/>
<circle cx="37.5" cy="67.5" r="1.5" fill="#CCF382"/>
<circle cx="49.5" cy="67.5" r="1.5" fill="#CCF382"/>
<circle cx="61.5" cy="67.5" r="1.5" fill="#CCF382"/>
<circle cx="73.5" cy="67.5" r="1.5" fill="#CCF382"/>
<circle cx="85.5" cy="67.5" r="1.5" fill="#CCF382"/>
<circle cx="97.5" cy="67.5" r="1.5" fill="#CCF382"/>
<circle cx="109.5" cy="67.5" r="1.5" fill="#CCF382"/>
<circle cx="121.5" cy="67.5" r="1.5" fill="#CCF382"/>
<circle cx="133.5" cy="67.5" r="1.5" fill="#CCF382"/>
<circle cx="1.5" cy="78.5" r="1.5" fill="#CCF382"/>
<circle cx="13.5" cy="78.5" r="1.5" fill="#CCF382"/>
<circle cx="25.5" cy="78.5" r="1.5" fill="#CCF382"/>
<circle cx="37.5" cy="78.5" r="1.5" fill="#CCF382"/>
<circle cx="49.5" cy="78.5" r="1.5" fill="#CCF382"/>
<circle cx="61.5" cy="78.5" r="1.5" fill="#CCF382"/>
<circle cx="73.5" cy="78.5" r="1.5" fill="#CCF382"/>
<circle cx="85.5" cy="78.5" r="1.5" fill="#CCF382"/>
<circle cx="97.5" cy="78.5" r="1.5" fill="#CCF382"/>
<circle cx="109.5" cy="78.5" r="1.5" fill="#CCF382"/>
<circle cx="121.5" cy="78.5" r="1.5" fill="#CCF382"/>
<circle cx="133.5" cy="78.5" r="1.5" fill="#CCF382"/>
<circle cx="1.5" cy="89.5" r="1.5" fill="#CCF382"/>
<circle cx="13.5" cy="89.5" r="1.5" fill="#CCF382"/>
<circle cx="25.5" cy="89.5" r="1.5" fill="#CCF382"/>
<circle cx="37.5" cy="89.5" r="1.5" fill="#CCF382"/>
<circle cx="49.5" cy="89.5" r="1.5" fill="#CCF382"/>
<circle cx="61.5" cy="89.5" r="1.5" fill="#CCF382"/>
<circle cx="73.5" cy="89.5" r="1.5" fill="#CCF382"/>
<circle cx="85.5" cy="89.5" r="1.5" fill="#CCF382"/>
<circle cx="97.5" cy="89.5" r="1.5" fill="#CCF382"/>
<circle cx="109.5" cy="89.5" r="1.5" fill="#CCF382"/>
<circle cx="121.5" cy="89.5" r="1.5" fill="#CCF382"/>
<circle cx="133.5" cy="89.5" r="1.5" fill="#CCF382"/>
<circle cx="1.5" cy="100.5" r="1.5" fill="#CCF382"/>
<circle cx="13.5" cy="100.5" r="1.5" fill="#CCF382"/>
<circle cx="25.5" cy="100.5" r="1.5" fill="#CCF382"/>
<circle cx="37.5" cy="100.5" r="1.5" fill="#CCF382"/>
<circle cx="49.5" cy="100.5" r="1.5" fill="#CCF382"/>
<circle cx="61.5" cy="100.5" r="1.5" fill="#CCF382"/>
<circle cx="73.5" cy="100.5" r="1.5" fill="#CCF382"/>
<circle cx="85.5" cy="100.5" r="1.5" fill="#CCF382"/>
<circle cx="97.5" cy="100.5" r="1.5" fill="#CCF382"/>
<circle cx="109.5" cy="100.5" r="1.5" fill="#CCF382"/>
<circle cx="121.5" cy="100.5" r="1.5" fill="#CCF382"/>
<circle cx="133.5" cy="100.5" r="1.5" fill="#CCF382"/>
<circle cx="1.5" cy="111.5" r="1.5" fill="#CCF382"/>
<circle cx="13.5" cy="111.5" r="1.5" fill="#CCF382"/>
<circle cx="25.5" cy="111.5" r="1.5" fill="#CCF382"/>
<circle cx="37.5" cy="111.5" r="1.5" fill="#CCF382"/>
<circle cx="49.5" cy="111.5" r="1.5" fill="#CCF382"/>
<circle cx="61.5" cy="111.5" r="1.5" fill="#CCF382"/>
<circle cx="73.5" cy="111.5" r="1.5" fill="#CCF382"/>
<circle cx="85.5" cy="111.5" r="1.5" fill="#CCF382"/>
<circle cx="97.5" cy="111.5" r="1.5" fill="#CCF382"/>
<circle cx="109.5" cy="111.5" r="1.5" fill="#CCF382"/>
<circle cx="121.5" cy="111.5" r="1.5" fill="#CCF382"/>
<circle cx="133.5" cy="111.5" r="1.5" fill="#CCF382"/>
<circle cx="1.5" cy="122.5" r="1.5" fill="#CCF382"/>
<circle cx="13.5" cy="122.5" r="1.5" fill="#CCF382"/>
<circle cx="25.5" cy="122.5" r="1.5" fill="#CCF382"/>
<circle cx="37.5" cy="122.5" r="1.5" fill="#CCF382"/>
<circle cx="49.5" cy="122.5" r="1.5" fill="#CCF382"/>
<circle cx="61.5" cy="122.5" r="1.5" fill="#CCF382"/>
<circle cx="73.5" cy="122.5" r="1.5" fill="#CCF382"/>
<circle cx="85.5" cy="122.5" r="1.5" fill="#CCF382"/>
<circle cx="97.5" cy="122.5" r="1.5" fill="#CCF382"/>
<circle cx="109.5" cy="122.5" r="1.5" fill="#CCF382"/>
<circle cx="121.5" cy="122.5" r="1.5" fill="#CCF382"/>
<circle cx="133.5" cy="122.5" r="1.5" fill="#CCF382"/>
</svg>
