<svg width="48" height="48" viewBox="0 0 48 48" fill="none" xmlns="http://www.w3.org/2000/svg">
<path fill-rule="evenodd" clip-rule="evenodd" d="M10.9222 46.8957V15.9989H0.653906V46.8956H10.9222V46.8957ZM5.78916 11.7821C9.36881 11.7821 11.5987 9.40756 11.5987 6.44271C11.531 3.41196 9.36881 1.10449 5.85628 1.10449C2.34319 1.10459 0.046875 3.41206 0.046875 6.44281C0.046875 9.40765 2.2755 11.7821 5.72156 11.7821L5.78916 11.7821ZM16.6054 46.8957C16.6054 46.8957 16.7401 18.8979 16.6054 15.999H26.8753V20.4797H26.8072C28.1575 18.3713 30.5903 15.2735 36.1297 15.2735C42.8876 15.2735 47.953 19.6894 47.953 29.1797V46.8957H37.6848V30.3669C37.6848 26.2136 36.199 23.3796 32.4819 23.3796C29.6456 23.3796 27.9553 25.2902 27.213 27.1371C26.9414 27.7945 26.8753 28.7178 26.8753 29.6412V46.8957H16.6054Z" fill="white"/>
</svg>
