<svg width="161" height="161" viewBox="0 0 161 161" fill="none" xmlns="http://www.w3.org/2000/svg">
<path d="M93.917 140.875H33.542C27.2906 140.875 24.165 140.875 21.6993 139.854C18.4119 138.492 15.8 135.88 14.4383 132.593C13.417 130.127 13.417 127.001 13.417 120.75C13.417 114.499 13.417 111.373 14.4383 108.907C15.8 105.62 18.4119 103.008 21.6993 101.646C24.165 100.625 27.2906 100.625 33.542 100.625H127.459C133.71 100.625 136.836 100.625 139.302 101.646C142.589 103.008 145.201 105.62 146.563 108.907C147.584 111.373 147.584 114.499 147.584 120.75C147.584 127.001 147.584 130.127 146.563 132.593C145.201 135.88 142.589 138.492 139.302 139.854C136.836 140.875 133.71 140.875 127.459 140.875H120.75" stroke="white" stroke-width="10.0625" stroke-linecap="round"/>
<path d="M13.417 80.5C13.417 74.2485 13.417 71.1231 14.4383 68.6571C15.8 65.3699 18.4119 62.758 21.6993 61.3963C24.165 60.375 27.2906 60.375 33.542 60.375H127.459C133.71 60.375 136.836 60.375 139.302 61.3963C142.589 62.758 145.201 65.3699 146.563 68.6571C147.584 71.1231 147.584 74.2485 147.584 80.5C147.584 86.7515 147.584 89.8769 146.563 92.3429C145.201 95.63 142.589 98.2422 139.302 99.604C136.836 100.625 133.71 100.625 127.459 100.625H33.542C27.2906 100.625 24.165 100.625 21.6993 99.604C18.4119 98.2422 15.8 95.63 14.4383 92.3429C13.417 89.8769 13.417 86.7515 13.417 80.5Z" stroke="white" stroke-width="10.0625"/>
<path d="M67.0837 20.125H127.459C133.71 20.125 136.836 20.125 139.302 21.1463C142.589 22.508 145.201 25.1199 146.563 28.4073C147.584 30.873 147.584 33.9986 147.584 40.25C147.584 46.5014 147.584 49.627 146.563 52.0927C145.201 55.3801 142.589 57.992 139.302 59.3537C136.836 60.375 133.71 60.375 127.459 60.375H33.542C27.2906 60.375 24.165 60.375 21.6993 59.3537C18.4119 57.992 15.8 55.3801 14.4383 52.0927C13.417 49.627 13.417 46.5014 13.417 40.25C13.417 33.9986 13.417 30.873 14.4383 28.4073C15.8 25.1199 18.4119 22.508 21.6993 21.1463C24.165 20.125 27.2906 20.125 33.542 20.125H40.2503" stroke="white" stroke-width="10.0625" stroke-linecap="round"/>
<path d="M33.5423 87.2084C37.2472 87.2084 40.2507 84.205 40.2507 80.5001C40.2507 76.7952 37.2472 73.7917 33.5423 73.7917C29.8374 73.7917 26.834 76.7952 26.834 80.5001C26.834 84.205 29.8374 87.2084 33.5423 87.2084Z" fill="white" stroke="white" stroke-width="6.70833"/>
<path d="M33.5423 46.9584C37.2472 46.9584 40.2507 43.955 40.2507 40.2501C40.2507 36.5452 37.2472 33.5417 33.5423 33.5417C29.8374 33.5417 26.834 36.5452 26.834 40.2501C26.834 43.955 29.8374 46.9584 33.5423 46.9584Z" fill="white" stroke="white" stroke-width="6.70833"/>
<path d="M33.5423 127.458C37.2472 127.458 40.2507 124.455 40.2507 120.75C40.2507 117.045 37.2472 114.042 33.5423 114.042C29.8374 114.042 26.834 117.045 26.834 120.75C26.834 124.455 29.8374 127.458 33.5423 127.458Z" fill="white" stroke="white" stroke-width="6.70833"/>
</svg>
