<svg width="518" height="461" viewBox="0 0 518 461" fill="none" xmlns="http://www.w3.org/2000/svg">
<g filter="url(#filter0_d_2_296)">
<rect x="9" y="9" width="500" height="443" rx="20" fill="#201D1D"/>
<path d="M50.4858 45.5H48.4602C48.3404 44.9174 48.1308 44.4055 47.8313 43.9645C47.5373 43.5234 47.1779 43.1532 46.7532 42.8537C46.3339 42.5488 45.8684 42.3201 45.3565 42.1676C44.8447 42.0152 44.3111 41.9389 43.7557 41.9389C42.7429 41.9389 41.8254 42.1948 41.0032 42.7067C40.1864 43.2185 39.5357 43.9727 39.0511 44.9691C38.572 45.9656 38.3324 47.188 38.3324 48.6364C38.3324 50.0848 38.572 51.3072 39.0511 52.3036C39.5357 53.3001 40.1864 54.0542 41.0032 54.5661C41.8254 55.0779 42.7429 55.3338 43.7557 55.3338C44.3111 55.3338 44.8447 55.2576 45.3565 55.1051C45.8684 54.9527 46.3339 54.7267 46.7532 54.4272C47.1779 54.1223 47.5373 53.7493 47.8313 53.3082C48.1308 52.8617 48.3404 52.3499 48.4602 51.7727H50.4858C50.3333 52.6276 50.0556 53.3926 49.6527 54.0678C49.2498 54.743 48.7488 55.3175 48.1499 55.7912C47.5509 56.2595 46.8784 56.6161 46.1325 56.8612C45.3919 57.1062 44.5997 57.2287 43.7557 57.2287C42.3291 57.2287 41.0604 56.8802 39.9496 56.1832C38.8388 55.4863 37.9648 54.4953 37.3278 53.2102C36.6907 51.9252 36.3722 50.4006 36.3722 48.6364C36.3722 46.8722 36.6907 45.3475 37.3278 44.0625C37.9648 42.7775 38.8388 41.7865 39.9496 41.0895C41.0604 40.3925 42.3291 40.044 43.7557 40.044C44.5997 40.044 45.3919 40.1665 46.1325 40.4116C46.8784 40.6566 47.5509 41.016 48.1499 41.4897C48.7488 41.958 49.2498 42.5297 49.6527 43.2049C50.0556 43.8746 50.3333 44.6397 50.4858 45.5ZM61.4039 51.8707V44.4545H63.3314V57H61.4039V54.8764H61.2732C60.9791 55.5135 60.5218 56.0553 59.901 56.5018C59.2803 56.9428 58.4962 57.1634 57.5487 57.1634C56.7646 57.1634 56.0677 56.9918 55.4578 56.6488C54.848 56.3003 54.3688 55.7776 54.0203 55.0806C53.6718 54.3782 53.4976 53.4934 53.4976 52.4261V44.4545H55.4252V52.2955C55.4252 53.2102 55.6811 53.9399 56.1929 54.4844C56.7102 55.0289 57.3691 55.3011 58.1695 55.3011C58.6486 55.3011 59.136 55.1786 59.6315 54.9336C60.1324 54.6886 60.5517 54.3129 60.8893 53.8065C61.2323 53.3001 61.4039 52.6548 61.4039 51.8707ZM66.8619 57V44.4545H68.7241V46.3494H68.8548C69.0835 45.7287 69.4973 45.225 70.0962 44.8384C70.6952 44.4518 71.3704 44.2585 72.1218 44.2585C72.2634 44.2585 72.4403 44.2612 72.6527 44.2667C72.8651 44.2721 73.0257 44.2803 73.1346 44.2912V46.2514C73.0692 46.2351 72.9195 46.2106 72.6854 46.1779C72.4567 46.1398 72.2144 46.1207 71.9585 46.1207C71.3486 46.1207 70.8041 46.2487 70.3249 46.5046C69.8512 46.7551 69.4755 47.1036 69.1978 47.5501C68.9255 47.9911 68.7894 48.4948 68.7894 49.0611V57H66.8619ZM75.4195 57V44.4545H77.2817V46.3494H77.4124C77.6411 45.7287 78.0549 45.225 78.6539 44.8384C79.2528 44.4518 79.928 44.2585 80.6794 44.2585C80.821 44.2585 80.998 44.2612 81.2103 44.2667C81.4227 44.2721 81.5833 44.2803 81.6922 44.2912V46.2514C81.6269 46.2351 81.4771 46.2106 81.243 46.1779C81.0143 46.1398 80.772 46.1207 80.5161 46.1207C79.9062 46.1207 79.3617 46.2487 78.8825 46.5046C78.4088 46.7551 78.0331 47.1036 77.7554 47.5501C77.4832 47.9911 77.347 48.4948 77.347 49.0611V57H75.4195ZM88.8552 57.2614C87.6464 57.2614 86.6037 56.9946 85.727 56.4609C84.8558 55.9219 84.1833 55.1705 83.7096 54.2067C83.2413 53.2375 83.0072 52.1103 83.0072 50.8253C83.0072 49.5402 83.2413 48.4077 83.7096 47.4276C84.1833 46.442 84.8422 45.6742 85.6862 45.1243C86.5356 44.5689 87.5266 44.2912 88.6592 44.2912C89.3126 44.2912 89.9578 44.4001 90.5949 44.6179C91.232 44.8357 91.8119 45.1896 92.3346 45.6797C92.8573 46.1643 93.2739 46.8068 93.5843 47.6072C93.8946 48.4077 94.0498 49.3932 94.0498 50.5639V51.3807H84.3794V49.7145H92.0896C92.0896 49.0066 91.948 48.375 91.6649 47.8196C91.3872 47.2642 90.9897 46.8259 90.4724 46.5046C89.9606 46.1834 89.3561 46.0227 88.6592 46.0227C87.8914 46.0227 87.2271 46.2133 86.6663 46.5945C86.1109 46.9702 85.6834 47.4602 85.384 48.0646C85.0845 48.669 84.9347 49.317 84.9347 50.0085V51.1193C84.9347 52.0668 85.0981 52.8699 85.4248 53.5288C85.757 54.1822 86.2171 54.6804 86.8051 55.0234C87.3932 55.361 88.0766 55.5298 88.8552 55.5298C89.3616 55.5298 89.819 55.459 90.2274 55.3175C90.6412 55.1705 90.9978 54.9527 91.2973 54.6641C91.5968 54.37 91.8282 54.0052 91.9916 53.5696L93.8538 54.0923C93.6578 54.724 93.3283 55.2794 92.8655 55.7585C92.4027 56.2322 91.8309 56.6025 91.1503 56.8693C90.4697 57.1307 89.7046 57.2614 88.8552 57.2614ZM98.9095 49.4531V57H96.982V44.4545H98.8442V46.4148H99.0075C99.3016 45.7777 99.7481 45.2659 100.347 44.8793C100.946 44.4872 101.719 44.2912 102.667 44.2912C103.516 44.2912 104.259 44.4654 104.896 44.8139C105.533 45.157 106.029 45.6797 106.383 46.3821C106.737 47.0791 106.914 47.9612 106.914 49.0284V57H104.986V49.1591C104.986 48.1735 104.73 47.4058 104.218 46.8558C103.707 46.3004 103.004 46.0227 102.111 46.0227C101.496 46.0227 100.946 46.1561 100.461 46.4229C99.9822 46.6897 99.6038 47.0791 99.3261 47.5909C99.0484 48.1027 98.9095 48.7235 98.9095 49.4531ZM115.892 44.4545V46.0881H109.391V44.4545H115.892ZM111.286 41.4489H113.213V53.4062C113.213 53.9508 113.292 54.3591 113.45 54.6314C113.613 54.8982 113.82 55.0779 114.071 55.1705C114.327 55.2576 114.596 55.3011 114.879 55.3011C115.092 55.3011 115.266 55.2902 115.402 55.2685C115.538 55.2412 115.647 55.2195 115.729 55.2031L116.121 56.9347C115.99 56.9837 115.808 57.0327 115.574 57.0817C115.339 57.1361 115.043 57.1634 114.683 57.1634C114.139 57.1634 113.605 57.0463 113.082 56.8121C112.565 56.578 112.135 56.2214 111.792 55.7422C111.454 55.263 111.286 54.6586 111.286 53.929V41.4489ZM126.208 57H124.084L130.226 40.2727H132.317L138.459 57H136.336L131.337 42.919H131.206L126.208 57ZM126.992 50.4659H135.551V52.2628H126.992V50.4659ZM142.731 40.2727V57H140.803V40.2727H142.731ZM151.521 57.2614C150.312 57.2614 149.27 56.9946 148.393 56.4609C147.522 55.9219 146.849 55.1705 146.376 54.2067C145.907 53.2375 145.673 52.1103 145.673 50.8253C145.673 49.5402 145.907 48.4077 146.376 47.4276C146.849 46.442 147.508 45.6742 148.352 45.1243C149.202 44.5689 150.193 44.2912 151.325 44.2912C151.979 44.2912 152.624 44.4001 153.261 44.6179C153.898 44.8357 154.478 45.1896 155.001 45.6797C155.523 46.1643 155.94 46.8068 156.25 47.6072C156.561 48.4077 156.716 49.3932 156.716 50.5639V51.3807H147.045V49.7145H154.756C154.756 49.0066 154.614 48.375 154.331 47.8196C154.053 47.2642 153.656 46.8259 153.138 46.5046C152.627 46.1834 152.022 46.0227 151.325 46.0227C150.557 46.0227 149.893 46.2133 149.332 46.5945C148.777 46.9702 148.349 47.4602 148.05 48.0646C147.751 48.669 147.601 49.317 147.601 50.0085V51.1193C147.601 52.0668 147.764 52.8699 148.091 53.5288C148.423 54.1822 148.883 54.6804 149.471 55.0234C150.059 55.361 150.743 55.5298 151.521 55.5298C152.028 55.5298 152.485 55.459 152.893 55.3175C153.307 55.1705 153.664 54.9527 153.963 54.6641C154.263 54.37 154.494 54.0052 154.658 53.5696L156.52 54.0923C156.324 54.724 155.994 55.2794 155.532 55.7585C155.069 56.2322 154.497 56.6025 153.816 56.8693C153.136 57.1307 152.371 57.2614 151.521 57.2614ZM159.648 57V44.4545H161.51V46.3494H161.641C161.87 45.7287 162.283 45.225 162.882 44.8384C163.481 44.4518 164.157 44.2585 164.908 44.2585C165.05 44.2585 165.226 44.2612 165.439 44.2667C165.651 44.2721 165.812 44.2803 165.921 44.2912V46.2514C165.855 46.2351 165.706 46.2106 165.472 46.1779C165.243 46.1398 165.001 46.1207 164.745 46.1207C164.135 46.1207 163.59 46.2487 163.111 46.5046C162.637 46.7551 162.262 47.1036 161.984 47.5501C161.712 47.9911 161.576 48.4948 161.576 49.0611V57H159.648ZM174.448 44.4545V46.0881H167.946V44.4545H174.448ZM169.841 41.4489H171.769V53.4062C171.769 53.9508 171.848 54.3591 172.006 54.6314C172.169 54.8982 172.376 55.0779 172.626 55.1705C172.882 55.2576 173.152 55.3011 173.435 55.3011C173.647 55.3011 173.822 55.2902 173.958 55.2685C174.094 55.2412 174.203 55.2195 174.284 55.2031L174.676 56.9347C174.546 56.9837 174.363 57.0327 174.129 57.0817C173.895 57.1361 173.598 57.1634 173.239 57.1634C172.694 57.1634 172.161 57.0463 171.638 56.8121C171.121 56.578 170.691 56.2214 170.348 55.7422C170.01 55.263 169.841 54.6586 169.841 53.929V41.4489ZM186.009 47.2642L184.277 47.7543C184.169 47.4657 184.008 47.1853 183.796 46.913C183.589 46.6353 183.305 46.4066 182.946 46.2269C182.587 46.0472 182.127 45.9574 181.566 45.9574C180.798 45.9574 180.158 46.1344 179.646 46.4883C179.14 46.8368 178.887 47.2805 178.887 47.8196C178.887 48.2988 179.061 48.6772 179.41 48.9549C179.758 49.2326 180.303 49.464 181.043 49.6491L182.905 50.1065C184.027 50.3788 184.863 50.7953 185.413 51.3562C185.963 51.9116 186.238 52.6276 186.238 53.5043C186.238 54.223 186.031 54.8655 185.617 55.4318C185.209 55.9981 184.637 56.4446 183.902 56.7713C183.167 57.098 182.312 57.2614 181.337 57.2614C180.057 57.2614 178.998 56.9837 178.16 56.4283C177.321 55.8729 176.79 55.0616 176.567 53.9943L178.397 53.5369C178.571 54.2121 178.9 54.7185 179.385 55.0561C179.875 55.3937 180.515 55.5625 181.304 55.5625C182.203 55.5625 182.916 55.3719 183.444 54.9908C183.978 54.6042 184.245 54.1413 184.245 53.6023C184.245 53.1667 184.092 52.8018 183.787 52.5078C183.482 52.2083 183.014 51.9851 182.383 51.8381L180.292 51.348C179.143 51.0758 178.299 50.6538 177.76 50.082C177.226 49.5049 176.959 48.7834 176.959 47.9176C176.959 47.2098 177.158 46.5836 177.555 46.0391C177.958 45.4946 178.506 45.0671 179.197 44.7567C179.894 44.4464 180.684 44.2912 181.566 44.2912C182.807 44.2912 183.782 44.5634 184.49 45.108C185.203 45.6525 185.709 46.3712 186.009 47.2642Z" fill="white"/>
<rect x="35" y="89" width="448" height="59" rx="20" fill="#343434"/>
<path d="M76.4602 115.5C76.2805 114.95 76.0437 114.457 75.7496 114.022C75.4611 113.581 75.1153 113.205 74.7124 112.895C74.3149 112.584 73.8629 112.347 73.3565 112.184C72.8501 112.021 72.2947 111.939 71.6903 111.939C70.6993 111.939 69.7982 112.195 68.9869 112.707C68.1755 113.219 67.5303 113.973 67.0511 114.969C66.572 115.966 66.3324 117.188 66.3324 118.636C66.3324 120.085 66.5747 121.307 67.0593 122.304C67.5439 123.3 68.2 124.054 69.0277 124.566C69.8554 125.078 70.7865 125.334 71.821 125.334C72.7794 125.334 73.6233 125.13 74.353 124.721C75.0881 124.307 75.6598 123.725 76.0682 122.973C76.482 122.217 76.6889 121.326 76.6889 120.303L77.3097 120.433H72.2784V118.636H78.6491V120.433C78.6491 121.811 78.3551 123.009 77.767 124.027C77.1844 125.045 76.3786 125.835 75.3494 126.396C74.3258 126.951 73.1496 127.229 71.821 127.229C70.34 127.229 69.0386 126.88 67.9169 126.183C66.8007 125.486 65.9295 124.495 65.3033 123.21C64.6825 121.925 64.3722 120.401 64.3722 118.636C64.3722 117.313 64.5491 116.123 64.9031 115.067C65.2624 114.005 65.7688 113.101 66.4222 112.355C67.0756 111.609 67.8488 111.038 68.7418 110.64C69.6348 110.243 70.6177 110.044 71.6903 110.044C72.5724 110.044 73.3947 110.177 74.157 110.444C74.9247 110.706 75.6081 111.079 76.207 111.563C76.8114 112.042 77.3151 112.617 77.718 113.287C78.121 113.951 78.3987 114.689 78.5511 115.5H76.4602ZM96.232 118.636C96.232 120.401 95.9134 121.925 95.2764 123.21C94.6393 124.495 93.7654 125.486 92.6546 126.183C91.5438 126.88 90.2751 127.229 88.8485 127.229C87.4218 127.229 86.1531 126.88 85.0423 126.183C83.9316 125.486 83.0576 124.495 82.4205 123.21C81.7835 121.925 81.4649 120.401 81.4649 118.636C81.4649 116.872 81.7835 115.348 82.4205 114.062C83.0576 112.777 83.9316 111.786 85.0423 111.089C86.1531 110.393 87.4218 110.044 88.8485 110.044C90.2751 110.044 91.5438 110.393 92.6546 111.089C93.7654 111.786 94.6393 112.777 95.2764 114.062C95.9134 115.348 96.232 116.872 96.232 118.636ZM94.2718 118.636C94.2718 117.188 94.0294 115.966 93.5448 114.969C93.0657 113.973 92.415 113.219 91.5928 112.707C90.776 112.195 89.8612 111.939 88.8485 111.939C87.8357 111.939 86.9182 112.195 86.096 112.707C85.2792 113.219 84.6285 113.973 84.1439 114.969C83.6647 115.966 83.4252 117.188 83.4252 118.636C83.4252 120.085 83.6647 121.307 84.1439 122.304C84.6285 123.3 85.2792 124.054 86.096 124.566C86.9182 125.078 87.8357 125.334 88.8485 125.334C89.8612 125.334 90.776 125.078 91.5928 124.566C92.415 124.054 93.0657 123.3 93.5448 122.304C94.0294 121.307 94.2718 120.085 94.2718 118.636ZM113.752 118.636C113.752 120.401 113.433 121.925 112.796 123.21C112.159 124.495 111.285 125.486 110.174 126.183C109.063 126.88 107.795 127.229 106.368 127.229C104.941 127.229 103.673 126.88 102.562 126.183C101.451 125.486 100.577 124.495 99.9401 123.21C99.303 121.925 98.9845 120.401 98.9845 118.636C98.9845 116.872 99.303 115.348 99.9401 114.062C100.577 112.777 101.451 111.786 102.562 111.089C103.673 110.393 104.941 110.044 106.368 110.044C107.795 110.044 109.063 110.393 110.174 111.089C111.285 111.786 112.159 112.777 112.796 114.062C113.433 115.348 113.752 116.872 113.752 118.636ZM111.791 118.636C111.791 117.188 111.549 115.966 111.064 114.969C110.585 113.973 109.935 113.219 109.112 112.707C108.296 112.195 107.381 111.939 106.368 111.939C105.355 111.939 104.438 112.195 103.616 112.707C102.799 113.219 102.148 113.973 101.663 114.969C101.184 115.966 100.945 117.188 100.945 118.636C100.945 120.085 101.184 121.307 101.663 122.304C102.148 123.3 102.799 124.054 103.616 124.566C104.438 125.078 105.355 125.334 106.368 125.334C107.381 125.334 108.296 125.078 109.112 124.566C109.935 124.054 110.585 123.3 111.064 122.304C111.549 121.307 111.791 120.085 111.791 118.636ZM128.592 115.5C128.412 114.95 128.176 114.457 127.881 114.022C127.593 113.581 127.247 113.205 126.844 112.895C126.447 112.584 125.995 112.347 125.488 112.184C124.982 112.021 124.427 111.939 123.822 111.939C122.831 111.939 121.93 112.195 121.119 112.707C120.307 113.219 119.662 113.973 119.183 114.969C118.704 115.966 118.464 117.188 118.464 118.636C118.464 120.085 118.707 121.307 119.191 122.304C119.676 123.3 120.332 124.054 121.16 124.566C121.987 125.078 122.918 125.334 123.953 125.334C124.911 125.334 125.755 125.13 126.485 124.721C127.22 124.307 127.792 123.725 128.2 122.973C128.614 122.217 128.821 121.326 128.821 120.303L129.441 120.433H124.41V118.636H130.781V120.433C130.781 121.811 130.487 123.009 129.899 124.027C129.316 125.045 128.51 125.835 127.481 126.396C126.458 126.951 125.281 127.229 123.953 127.229C122.472 127.229 121.17 126.88 120.049 126.183C118.932 125.486 118.061 124.495 117.435 123.21C116.814 121.925 116.504 120.401 116.504 118.636C116.504 117.313 116.681 116.123 117.035 115.067C117.394 114.005 117.901 113.101 118.554 112.355C119.207 111.609 119.981 111.038 120.874 110.64C121.767 110.243 122.749 110.044 123.822 110.044C124.704 110.044 125.526 110.177 126.289 110.444C127.057 110.706 127.74 111.079 128.339 111.563C128.943 112.042 129.447 112.617 129.85 113.287C130.253 113.951 130.531 114.689 130.683 115.5H128.592ZM134.25 127V110.273H136.276V125.203H144.051V127H134.25Z" fill="white"/>
<path d="M275.336 110.273L280.302 124.354H280.498L285.464 110.273H287.587L281.445 127H279.354L273.212 110.273H275.336ZM293.86 127.261C292.727 127.261 291.734 126.992 290.879 126.453C290.029 125.914 289.365 125.16 288.886 124.19C288.412 123.221 288.175 122.089 288.175 120.793C288.175 119.486 288.412 118.345 288.886 117.37C289.365 116.396 290.029 115.639 290.879 115.1C291.734 114.561 292.727 114.291 293.86 114.291C294.992 114.291 295.983 114.561 296.833 115.1C297.688 115.639 298.352 116.396 298.826 117.37C299.305 118.345 299.544 119.486 299.544 120.793C299.544 122.089 299.305 123.221 298.826 124.19C298.352 125.16 297.688 125.914 296.833 126.453C295.983 126.992 294.992 127.261 293.86 127.261ZM293.86 125.53C294.72 125.53 295.428 125.309 295.983 124.868C296.539 124.427 296.95 123.847 297.217 123.129C297.484 122.41 297.617 121.631 297.617 120.793C297.617 119.954 297.484 119.173 297.217 118.449C296.95 117.724 296.539 117.139 295.983 116.692C295.428 116.246 294.72 116.023 293.86 116.023C292.999 116.023 292.292 116.246 291.736 116.692C291.181 117.139 290.77 117.724 290.503 118.449C290.236 119.173 290.103 119.954 290.103 120.793C290.103 121.631 290.236 122.41 290.503 123.129C290.77 123.847 291.181 124.427 291.736 124.868C292.292 125.309 292.999 125.53 293.86 125.53ZM304.414 110.273V127H302.487V110.273H304.414ZM315.851 121.871V114.455H317.779V127H315.851V124.876H315.72C315.426 125.513 314.969 126.055 314.348 126.502C313.728 126.943 312.943 127.163 311.996 127.163C311.212 127.163 310.515 126.992 309.905 126.649C309.295 126.3 308.816 125.778 308.468 125.081C308.119 124.378 307.945 123.493 307.945 122.426V114.455H309.872V122.295C309.872 123.21 310.128 123.94 310.64 124.484C311.157 125.029 311.816 125.301 312.617 125.301C313.096 125.301 313.583 125.179 314.079 124.934C314.58 124.689 314.999 124.313 315.337 123.806C315.68 123.3 315.851 122.655 315.851 121.871ZM321.309 127V114.455H323.171V116.415H323.335C323.596 115.745 324.018 115.225 324.601 114.855C325.183 114.479 325.883 114.291 326.7 114.291C327.527 114.291 328.216 114.479 328.766 114.855C329.322 115.225 329.754 115.745 330.065 116.415H330.195C330.517 115.767 330.999 115.252 331.641 114.871C332.284 114.484 333.054 114.291 333.953 114.291C335.074 114.291 335.992 114.642 336.705 115.345C337.418 116.042 337.775 117.128 337.775 118.604V127H335.847V118.604C335.847 117.678 335.594 117.016 335.088 116.619C334.581 116.221 333.985 116.023 333.299 116.023C332.417 116.023 331.734 116.29 331.249 116.823C330.765 117.351 330.522 118.021 330.522 118.832V127H328.562V118.408C328.562 117.694 328.331 117.12 327.868 116.684C327.405 116.243 326.809 116.023 326.079 116.023C325.578 116.023 325.11 116.156 324.674 116.423C324.244 116.69 323.896 117.06 323.629 117.534C323.367 118.002 323.237 118.544 323.237 119.159V127H321.309ZM346.559 127.261C345.35 127.261 344.308 126.995 343.431 126.461C342.56 125.922 341.887 125.17 341.414 124.207C340.945 123.237 340.711 122.11 340.711 120.825C340.711 119.54 340.945 118.408 341.414 117.428C341.887 116.442 342.546 115.674 343.39 115.124C344.24 114.569 345.231 114.291 346.363 114.291C347.017 114.291 347.662 114.4 348.299 114.618C348.936 114.836 349.516 115.19 350.039 115.68C350.561 116.164 350.978 116.807 351.288 117.607C351.599 118.408 351.754 119.393 351.754 120.564V121.381H342.083V119.714H349.794C349.794 119.007 349.652 118.375 349.369 117.82C349.091 117.264 348.694 116.826 348.176 116.505C347.665 116.183 347.06 116.023 346.363 116.023C345.596 116.023 344.931 116.213 344.37 116.594C343.815 116.97 343.388 117.46 343.088 118.065C342.789 118.669 342.639 119.317 342.639 120.009V121.119C342.639 122.067 342.802 122.87 343.129 123.529C343.461 124.182 343.921 124.68 344.509 125.023C345.097 125.361 345.781 125.53 346.559 125.53C347.066 125.53 347.523 125.459 347.931 125.317C348.345 125.17 348.702 124.953 349.001 124.664C349.301 124.37 349.532 124.005 349.696 123.57L351.558 124.092C351.362 124.724 351.032 125.279 350.57 125.759C350.107 126.232 349.535 126.603 348.854 126.869C348.174 127.131 347.409 127.261 346.559 127.261ZM370.564 114.455C370.466 113.627 370.068 112.984 369.371 112.527C368.674 112.07 367.82 111.841 366.807 111.841C366.066 111.841 365.418 111.961 364.863 112.2C364.313 112.44 363.883 112.769 363.572 113.189C363.268 113.608 363.115 114.084 363.115 114.618C363.115 115.064 363.221 115.448 363.434 115.77C363.651 116.085 363.929 116.349 364.267 116.562C364.604 116.769 364.958 116.94 365.328 117.076C365.699 117.207 366.039 117.313 366.349 117.395L368.048 117.852C368.484 117.967 368.969 118.125 369.502 118.326C370.041 118.527 370.556 118.802 371.046 119.151C371.541 119.494 371.95 119.935 372.271 120.474C372.592 121.013 372.753 121.675 372.753 122.459C372.753 123.363 372.516 124.179 372.042 124.909C371.574 125.639 370.888 126.219 369.984 126.649C369.086 127.079 367.994 127.294 366.709 127.294C365.511 127.294 364.474 127.101 363.597 126.714C362.726 126.328 362.04 125.788 361.539 125.097C361.043 124.405 360.763 123.602 360.697 122.688H362.788C362.843 123.319 363.055 123.842 363.425 124.256C363.801 124.664 364.275 124.969 364.847 125.17C365.424 125.366 366.045 125.464 366.709 125.464C367.482 125.464 368.176 125.339 368.792 125.089C369.407 124.833 369.894 124.479 370.254 124.027C370.613 123.57 370.793 123.036 370.793 122.426C370.793 121.871 370.637 121.419 370.327 121.07C370.017 120.722 369.608 120.439 369.102 120.221C368.596 120.003 368.048 119.812 367.46 119.649L365.402 119.061C364.095 118.685 363.061 118.149 362.298 117.452C361.536 116.755 361.155 115.843 361.155 114.716C361.155 113.779 361.408 112.963 361.914 112.266C362.426 111.563 363.112 111.019 363.973 110.632C364.838 110.24 365.805 110.044 366.872 110.044C367.95 110.044 368.909 110.237 369.747 110.624C370.586 111.005 371.25 111.528 371.74 112.192C372.236 112.856 372.497 113.611 372.524 114.455H370.564ZM383.728 121.871V114.455H385.656V127H383.728V124.876H383.597C383.303 125.513 382.846 126.055 382.225 126.502C381.604 126.943 380.82 127.163 379.873 127.163C379.089 127.163 378.392 126.992 377.782 126.649C377.172 126.3 376.693 125.778 376.345 125.081C375.996 124.378 375.822 123.493 375.822 122.426V114.455H377.749V122.295C377.749 123.21 378.005 123.94 378.517 124.484C379.034 125.029 379.693 125.301 380.494 125.301C380.973 125.301 381.46 125.179 381.956 124.934C382.457 124.689 382.876 124.313 383.214 123.806C383.557 123.3 383.728 122.655 383.728 121.871ZM389.186 127V114.455H391.048V116.349H391.179C391.408 115.729 391.821 115.225 392.42 114.838C393.019 114.452 393.695 114.259 394.446 114.259C394.588 114.259 394.765 114.261 394.977 114.267C395.189 114.272 395.35 114.28 395.459 114.291V116.251C395.393 116.235 395.244 116.211 395.01 116.178C394.781 116.14 394.539 116.121 394.283 116.121C393.673 116.121 393.128 116.249 392.649 116.505C392.175 116.755 391.8 117.104 391.522 117.55C391.25 117.991 391.114 118.495 391.114 119.061V127H389.186ZM402.426 131.966C401.495 131.966 400.694 131.846 400.025 131.607C399.355 131.372 398.797 131.062 398.35 130.675C397.909 130.294 397.558 129.886 397.297 129.45L398.832 128.372C399.006 128.601 399.227 128.862 399.494 129.156C399.76 129.456 400.125 129.714 400.588 129.932C401.056 130.155 401.669 130.267 402.426 130.267C403.439 130.267 404.274 130.022 404.933 129.532C405.592 129.042 405.922 128.274 405.922 127.229V124.68H405.758C405.617 124.909 405.415 125.192 405.154 125.53C404.898 125.862 404.528 126.159 404.043 126.42C403.564 126.676 402.916 126.804 402.099 126.804C401.086 126.804 400.177 126.564 399.371 126.085C398.571 125.606 397.936 124.909 397.468 123.994C397.005 123.08 396.774 121.969 396.774 120.662C396.774 119.377 397 118.258 397.452 117.305C397.904 116.347 398.533 115.606 399.338 115.083C400.144 114.555 401.075 114.291 402.132 114.291C402.949 114.291 403.596 114.427 404.076 114.7C404.56 114.966 404.931 115.271 405.186 115.614C405.448 115.952 405.649 116.23 405.791 116.447H405.987V114.455H407.849V127.359C407.849 128.438 407.604 129.314 407.114 129.989C406.629 130.67 405.976 131.168 405.154 131.484C404.337 131.805 403.428 131.966 402.426 131.966ZM402.36 125.072C403.134 125.072 403.787 124.895 404.321 124.542C404.854 124.188 405.26 123.679 405.538 123.014C405.815 122.35 405.954 121.555 405.954 120.629C405.954 119.725 405.818 118.928 405.546 118.236C405.274 117.545 404.871 117.003 404.337 116.611C403.803 116.219 403.145 116.023 402.36 116.023C401.544 116.023 400.863 116.23 400.319 116.643C399.779 117.057 399.374 117.613 399.102 118.31C398.835 119.007 398.701 119.78 398.701 120.629C398.701 121.5 398.837 122.271 399.11 122.941C399.387 123.605 399.796 124.128 400.335 124.509C400.879 124.885 401.555 125.072 402.36 125.072ZM416.637 127.261C415.429 127.261 414.386 126.995 413.509 126.461C412.638 125.922 411.966 125.17 411.492 124.207C411.024 123.237 410.789 122.11 410.789 120.825C410.789 119.54 411.024 118.408 411.492 117.428C411.966 116.442 412.624 115.674 413.468 115.124C414.318 114.569 415.309 114.291 416.441 114.291C417.095 114.291 417.74 114.4 418.377 114.618C419.014 114.836 419.594 115.19 420.117 115.68C420.64 116.164 421.056 116.807 421.366 117.607C421.677 118.408 421.832 119.393 421.832 120.564V121.381H412.162V119.714H419.872C419.872 119.007 419.73 118.375 419.447 117.82C419.169 117.264 418.772 116.826 418.255 116.505C417.743 116.183 417.138 116.023 416.441 116.023C415.674 116.023 415.009 116.213 414.449 116.594C413.893 116.97 413.466 117.46 413.166 118.065C412.867 118.669 412.717 119.317 412.717 120.009V121.119C412.717 122.067 412.88 122.87 413.207 123.529C413.539 124.182 413.999 124.68 414.587 125.023C415.175 125.361 415.859 125.53 416.637 125.53C417.144 125.53 417.601 125.459 418.01 125.317C418.423 125.17 418.78 124.953 419.08 124.664C419.379 124.37 419.61 124.005 419.774 123.57L421.636 124.092C421.44 124.724 421.111 125.279 420.648 125.759C420.185 126.232 419.613 126.603 418.933 126.869C418.252 127.131 417.487 127.261 416.637 127.261Z" fill="#4198FC"/>
<path d="M442.25 117.25L442.291 117.23C442.419 117.166 442.563 117.14 442.706 117.155C442.848 117.17 442.983 117.226 443.095 117.316C443.207 117.405 443.291 117.525 443.337 117.661C443.383 117.797 443.389 117.943 443.354 118.082L442.646 120.918C442.611 121.057 442.617 121.203 442.663 121.339C442.708 121.475 442.792 121.595 442.904 121.685C443.016 121.775 443.151 121.831 443.294 121.846C443.437 121.861 443.581 121.835 443.709 121.771L443.75 121.75M452 118C452 119.182 451.767 120.352 451.315 121.444C450.863 122.536 450.2 123.528 449.364 124.364C448.528 125.2 447.536 125.863 446.444 126.315C445.352 126.767 444.182 127 443 127C441.818 127 440.648 126.767 439.556 126.315C438.464 125.863 437.472 125.2 436.636 124.364C435.8 123.528 435.137 122.536 434.685 121.444C434.233 120.352 434 119.182 434 118C434 115.613 434.948 113.324 436.636 111.636C438.324 109.948 440.613 109 443 109C445.387 109 447.676 109.948 449.364 111.636C451.052 113.324 452 115.613 452 118ZM443 114.25H443.008V114.258H443V114.25Z" stroke="white" stroke-width="1.5" stroke-linecap="round" stroke-linejoin="round"/>
<rect x="35" y="175" width="448" height="59" rx="20" fill="#343434"/>
<path d="M65.7116 213H63.5881L69.7301 196.273H71.821L77.9631 213H75.8395L70.8409 198.919H70.7102L65.7116 213ZM66.4957 206.466H75.0554V208.263H66.4957V206.466ZM80.5685 196.273H82.9862L88.6708 210.158H88.8668L94.5515 196.273H96.9691V213H95.0742V200.291H94.9109L89.6836 213H87.854L82.6268 200.291H82.4634V213H80.5685V196.273ZM100.475 213V211.53L109.492 198.07H100.377V196.273H111.91V197.743L102.893 211.203H112.008V213H100.475ZM128.67 196.273V213H126.709L117.594 199.866H117.431V213H115.405V196.273H117.366L126.513 209.439H126.677V196.273H128.67Z" fill="white"/>
<path d="M296.157 196.273V213H294.197L285.082 199.866H284.918V213H282.893V196.273H284.853L294.001 209.439H294.164V196.273H296.157ZM305.209 213.261C304 213.261 302.957 212.995 302.081 212.461C301.209 211.922 300.537 211.17 300.063 210.207C299.595 209.237 299.361 208.11 299.361 206.825C299.361 205.54 299.595 204.408 300.063 203.428C300.537 202.442 301.196 201.674 302.04 201.124C302.889 200.569 303.88 200.291 305.013 200.291C305.666 200.291 306.311 200.4 306.948 200.618C307.585 200.836 308.165 201.19 308.688 201.68C309.211 202.164 309.627 202.807 309.938 203.607C310.248 204.408 310.403 205.393 310.403 206.564V207.381H300.733V205.714H308.443C308.443 205.007 308.302 204.375 308.018 203.82C307.741 203.264 307.343 202.826 306.826 202.505C306.314 202.183 305.71 202.023 305.013 202.023C304.245 202.023 303.581 202.213 303.02 202.594C302.464 202.97 302.037 203.46 301.737 204.065C301.438 204.669 301.288 205.317 301.288 206.009V207.119C301.288 208.067 301.452 208.87 301.778 209.529C302.11 210.182 302.571 210.68 303.159 211.023C303.747 211.361 304.43 211.53 305.209 211.53C305.715 211.53 306.172 211.459 306.581 211.317C306.995 211.17 307.351 210.953 307.651 210.664C307.95 210.37 308.182 210.005 308.345 209.57L310.207 210.092C310.011 210.724 309.682 211.279 309.219 211.759C308.756 212.232 308.184 212.603 307.504 212.869C306.823 213.131 306.058 213.261 305.209 213.261ZM316.178 213L312.355 200.455H314.381L317.093 210.06H317.223L319.902 200.455H321.96L324.607 210.027H324.737L327.449 200.455H329.475L325.652 213H323.757L321.013 203.362H320.817L318.073 213H316.178ZM340.909 203.264L339.178 203.754C339.069 203.466 338.908 203.185 338.696 202.913C338.489 202.635 338.206 202.407 337.847 202.227C337.487 202.047 337.027 201.957 336.466 201.957C335.698 201.957 335.059 202.134 334.547 202.488C334.04 202.837 333.787 203.281 333.787 203.82C333.787 204.299 333.961 204.677 334.31 204.955C334.658 205.233 335.203 205.464 335.943 205.649L337.806 206.107C338.927 206.379 339.763 206.795 340.313 207.356C340.863 207.912 341.138 208.628 341.138 209.504C341.138 210.223 340.931 210.866 340.517 211.432C340.109 211.998 339.537 212.445 338.802 212.771C338.067 213.098 337.212 213.261 336.237 213.261C334.958 213.261 333.899 212.984 333.06 212.428C332.222 211.873 331.691 211.062 331.468 209.994L333.297 209.537C333.471 210.212 333.801 210.719 334.285 211.056C334.775 211.394 335.415 211.562 336.205 211.562C337.103 211.562 337.817 211.372 338.345 210.991C338.878 210.604 339.145 210.141 339.145 209.602C339.145 209.167 338.993 208.802 338.688 208.508C338.383 208.208 337.915 207.985 337.283 207.838L335.192 207.348C334.043 207.076 333.199 206.654 332.66 206.082C332.126 205.505 331.86 204.783 331.86 203.918C331.86 203.21 332.058 202.584 332.456 202.039C332.859 201.495 333.406 201.067 334.098 200.757C334.795 200.446 335.584 200.291 336.466 200.291C337.708 200.291 338.682 200.563 339.39 201.108C340.103 201.652 340.61 202.371 340.909 203.264ZM352.795 196.273V213H350.77V196.273H352.795ZM356.595 213V200.455H358.457V202.415H358.621C358.882 201.745 359.304 201.225 359.887 200.855C360.469 200.479 361.169 200.291 361.986 200.291C362.814 200.291 363.502 200.479 364.052 200.855C364.608 201.225 365.041 201.745 365.351 202.415H365.482C365.803 201.767 366.285 201.252 366.927 200.871C367.57 200.484 368.34 200.291 369.239 200.291C370.36 200.291 371.278 200.642 371.991 201.345C372.705 202.042 373.061 203.128 373.061 204.604V213H371.134V204.604C371.134 203.678 370.88 203.016 370.374 202.619C369.868 202.221 369.271 202.023 368.585 202.023C367.703 202.023 367.02 202.29 366.535 202.823C366.051 203.351 365.808 204.021 365.808 204.832V213H363.848V204.408C363.848 203.694 363.617 203.12 363.154 202.684C362.691 202.243 362.095 202.023 361.365 202.023C360.864 202.023 360.396 202.156 359.96 202.423C359.53 202.69 359.182 203.06 358.915 203.534C358.653 204.002 358.523 204.544 358.523 205.159V213H356.595ZM376.585 217.705V200.455H378.448V202.447H378.676C378.818 202.23 379.014 201.952 379.264 201.614C379.52 201.271 379.885 200.966 380.359 200.7C380.838 200.427 381.486 200.291 382.303 200.291C383.359 200.291 384.29 200.555 385.096 201.083C385.902 201.612 386.531 202.36 386.983 203.33C387.435 204.299 387.661 205.442 387.661 206.76C387.661 208.089 387.435 209.24 386.983 210.215C386.531 211.184 385.905 211.935 385.104 212.469C384.304 212.997 383.381 213.261 382.335 213.261C381.53 213.261 380.884 213.128 380.4 212.861C379.915 212.589 379.542 212.281 379.281 211.938C379.019 211.59 378.818 211.301 378.676 211.072H378.513V217.705H376.585ZM378.48 206.727C378.48 207.675 378.619 208.511 378.897 209.235C379.175 209.953 379.58 210.517 380.114 210.925C380.648 211.328 381.301 211.53 382.074 211.53C382.88 211.53 383.552 211.317 384.092 210.893C384.636 210.463 385.044 209.885 385.317 209.161C385.594 208.432 385.733 207.62 385.733 206.727C385.733 205.845 385.597 205.05 385.325 204.342C385.058 203.629 384.652 203.065 384.108 202.652C383.569 202.232 382.891 202.023 382.074 202.023C381.29 202.023 380.631 202.221 380.098 202.619C379.564 203.011 379.161 203.561 378.889 204.269C378.617 204.971 378.48 205.791 378.48 206.727ZM394.293 213.294C393.498 213.294 392.776 213.144 392.128 212.845C391.48 212.54 390.966 212.102 390.585 211.53C390.204 210.953 390.013 210.256 390.013 209.439C390.013 208.72 390.155 208.138 390.438 207.691C390.721 207.239 391.099 206.885 391.573 206.629C392.047 206.373 392.57 206.183 393.141 206.058C393.718 205.927 394.298 205.823 394.881 205.747C395.643 205.649 396.261 205.576 396.735 205.527C397.214 205.472 397.563 205.382 397.78 205.257C398.004 205.132 398.115 204.914 398.115 204.604V204.538C398.115 203.732 397.895 203.106 397.454 202.66C397.018 202.213 396.357 201.99 395.469 201.99C394.549 201.99 393.827 202.192 393.305 202.594C392.782 202.997 392.414 203.428 392.202 203.885L390.372 203.232C390.699 202.469 391.135 201.876 391.679 201.451C392.229 201.021 392.828 200.721 393.476 200.553C394.13 200.378 394.772 200.291 395.404 200.291C395.807 200.291 396.269 200.34 396.792 200.438C397.32 200.531 397.829 200.724 398.32 201.018C398.815 201.312 399.226 201.756 399.553 202.349C399.88 202.943 400.043 203.738 400.043 204.734V213H398.115V211.301H398.017C397.887 211.573 397.669 211.865 397.364 212.175C397.059 212.485 396.653 212.75 396.147 212.967C395.641 213.185 395.023 213.294 394.293 213.294ZM394.587 211.562C395.349 211.562 395.992 211.413 396.514 211.113C397.043 210.814 397.44 210.427 397.707 209.953C397.979 209.48 398.115 208.982 398.115 208.459V206.695C398.034 206.793 397.854 206.882 397.576 206.964C397.304 207.04 396.988 207.108 396.629 207.168C396.275 207.223 395.929 207.272 395.592 207.315C395.259 207.353 394.99 207.386 394.783 207.413C394.282 207.479 393.814 207.585 393.378 207.732C392.948 207.873 392.599 208.089 392.333 208.377C392.071 208.66 391.941 209.047 391.941 209.537C391.941 210.207 392.188 210.713 392.684 211.056C393.185 211.394 393.819 211.562 394.587 211.562ZM408.658 213.261C407.482 213.261 406.469 212.984 405.619 212.428C404.77 211.873 404.116 211.108 403.659 210.133C403.202 209.158 402.973 208.045 402.973 206.793C402.973 205.518 403.207 204.394 403.675 203.419C404.149 202.439 404.808 201.674 405.652 201.124C406.501 200.569 407.492 200.291 408.625 200.291C409.507 200.291 410.302 200.455 411.01 200.781C411.718 201.108 412.298 201.565 412.75 202.153C413.202 202.741 413.482 203.428 413.591 204.212H411.663C411.516 203.64 411.19 203.134 410.683 202.692C410.182 202.246 409.507 202.023 408.658 202.023C407.906 202.023 407.247 202.219 406.681 202.611C406.12 202.997 405.682 203.545 405.366 204.252C405.056 204.955 404.901 205.78 404.901 206.727C404.901 207.696 405.053 208.54 405.358 209.259C405.668 209.978 406.104 210.536 406.665 210.934C407.231 211.331 407.895 211.53 408.658 211.53C409.159 211.53 409.613 211.443 410.022 211.268C410.43 211.094 410.776 210.844 411.059 210.517C411.342 210.19 411.544 209.798 411.663 209.341H413.591C413.482 210.081 413.212 210.748 412.782 211.342C412.358 211.93 411.794 212.398 411.092 212.747C410.395 213.09 409.583 213.261 408.658 213.261ZM421.865 200.455V202.088H415.363V200.455H421.865ZM417.258 197.449H419.186V209.406C419.186 209.951 419.265 210.359 419.423 210.631C419.586 210.898 419.793 211.078 420.043 211.17C420.299 211.258 420.569 211.301 420.852 211.301C421.064 211.301 421.239 211.29 421.375 211.268C421.511 211.241 421.62 211.219 421.701 211.203L422.093 212.935C421.963 212.984 421.78 213.033 421.546 213.082C421.312 213.136 421.015 213.163 420.656 213.163C420.111 213.163 419.578 213.046 419.055 212.812C418.538 212.578 418.108 212.221 417.765 211.742C417.427 211.263 417.258 210.659 417.258 209.929V197.449Z" fill="#FC9541"/>
<path d="M442.25 203.25L442.291 203.23C442.419 203.166 442.563 203.14 442.706 203.155C442.848 203.17 442.983 203.226 443.095 203.316C443.207 203.405 443.291 203.525 443.337 203.661C443.383 203.797 443.389 203.943 443.354 204.082L442.646 206.918C442.611 207.057 442.617 207.203 442.663 207.339C442.708 207.475 442.792 207.595 442.904 207.685C443.016 207.775 443.151 207.831 443.294 207.846C443.437 207.861 443.581 207.835 443.709 207.771L443.75 207.75M452 204C452 205.182 451.767 206.352 451.315 207.444C450.863 208.536 450.2 209.528 449.364 210.364C448.528 211.2 447.536 211.863 446.444 212.315C445.352 212.767 444.182 213 443 213C441.818 213 440.648 212.767 439.556 212.315C438.464 211.863 437.472 211.2 436.636 210.364C435.8 209.528 435.137 208.536 434.685 207.444C434.233 206.352 434 205.182 434 204C434 201.613 434.948 199.324 436.636 197.636C438.324 195.948 440.613 195 443 195C445.387 195 447.676 195.948 449.364 197.636C451.052 199.324 452 201.613 452 204ZM443 200.25H443.008V200.258H443V200.25Z" stroke="white" stroke-width="1.5" stroke-linecap="round" stroke-linejoin="round"/>
<rect x="35" y="261" width="448" height="59" rx="20" fill="#343434"/>
<path d="M65.0256 282.273H67.4432L73.1278 296.158H73.3239L79.0085 282.273H81.4261V299H79.5312V286.291H79.3679L74.1406 299H72.3111L67.0838 286.291H66.9205V299H65.0256V282.273ZM94.6352 286.455C94.5372 285.627 94.1397 284.984 93.4427 284.527C92.7458 284.07 91.8909 283.841 90.8781 283.841C90.1376 283.841 89.4896 283.961 88.9342 284.2C88.3843 284.44 87.9541 284.769 87.6437 285.189C87.3388 285.608 87.1863 286.084 87.1863 286.618C87.1863 287.064 87.2925 287.448 87.5049 287.77C87.7227 288.085 88.0004 288.349 88.338 288.562C88.6756 288.769 89.0295 288.94 89.3998 289.076C89.77 289.207 90.1104 289.313 90.4207 289.395L92.1196 289.852C92.5552 289.967 93.0398 290.125 93.5734 290.326C94.1125 290.527 94.627 290.802 95.1171 291.151C95.6126 291.494 96.021 291.935 96.3422 292.474C96.6635 293.013 96.8241 293.675 96.8241 294.459C96.8241 295.363 96.5873 296.179 96.1135 296.909C95.6453 297.639 94.9592 298.219 94.0553 298.649C93.1569 299.079 92.0651 299.294 90.7801 299.294C89.5822 299.294 88.5449 299.101 87.6682 298.714C86.797 298.328 86.1109 297.788 85.61 297.097C85.1145 296.405 84.8341 295.602 84.7687 294.688H86.8596C86.9141 295.319 87.1265 295.842 87.4967 296.256C87.8724 296.664 88.3461 296.969 88.9179 297.17C89.4951 297.366 90.1158 297.464 90.7801 297.464C91.5533 297.464 92.2475 297.339 92.8628 297.089C93.4781 296.833 93.9655 296.479 94.3248 296.027C94.6842 295.57 94.8639 295.036 94.8639 294.426C94.8639 293.871 94.7087 293.419 94.3983 293.07C94.088 292.722 93.6796 292.439 93.1732 292.221C92.6668 292.003 92.1196 291.812 91.5315 291.649L89.4733 291.061C88.1665 290.685 87.1319 290.149 86.3696 289.452C85.6073 288.755 85.2261 287.843 85.2261 286.716C85.2261 285.779 85.4793 284.963 85.9857 284.266C86.4975 283.563 87.1836 283.019 88.0439 282.632C88.9097 282.24 89.8762 282.044 90.9434 282.044C92.0216 282.044 92.9799 282.237 93.8184 282.624C94.657 283.005 95.3213 283.528 95.8113 284.192C96.3068 284.856 96.5682 285.611 96.5954 286.455H94.6352ZM100.154 299V282.273H110.184V284.07H102.18V289.722H109.433V291.518H102.18V299H100.154ZM112.739 284.07V282.273H125.284V284.07H120.024V299H117.999V284.07H112.739Z" fill="white"/>
<path d="M244.384 299H242.261L248.403 282.273H250.494L256.636 299H254.512L249.514 284.919H249.383L244.384 299ZM245.169 292.466H253.728V294.263H245.169V292.466ZM260.908 291.453V299H258.98V286.455H260.842V288.415H261.006C261.3 287.778 261.746 287.266 262.345 286.879C262.944 286.487 263.717 286.291 264.665 286.291C265.514 286.291 266.257 286.465 266.894 286.814C267.532 287.157 268.027 287.68 268.381 288.382C268.735 289.079 268.912 289.961 268.912 291.028V299H266.984V291.159C266.984 290.174 266.728 289.406 266.217 288.856C265.705 288.3 265.002 288.023 264.109 288.023C263.494 288.023 262.944 288.156 262.459 288.423C261.98 288.69 261.602 289.079 261.324 289.591C261.046 290.103 260.908 290.723 260.908 291.453ZM276.126 299.294C275.331 299.294 274.609 299.144 273.961 298.845C273.314 298.54 272.799 298.102 272.418 297.53C272.037 296.953 271.846 296.256 271.846 295.439C271.846 294.72 271.988 294.138 272.271 293.691C272.554 293.239 272.932 292.885 273.406 292.629C273.88 292.373 274.403 292.183 274.974 292.058C275.551 291.927 276.131 291.823 276.714 291.747C277.476 291.649 278.094 291.576 278.568 291.527C279.047 291.472 279.396 291.382 279.613 291.257C279.837 291.132 279.948 290.914 279.948 290.604V290.538C279.948 289.732 279.728 289.106 279.287 288.66C278.851 288.213 278.19 287.99 277.302 287.99C276.382 287.99 275.66 288.192 275.138 288.594C274.615 288.997 274.247 289.428 274.035 289.885L272.205 289.232C272.532 288.469 272.968 287.876 273.512 287.451C274.062 287.021 274.661 286.721 275.309 286.553C275.963 286.378 276.605 286.291 277.237 286.291C277.64 286.291 278.102 286.34 278.625 286.438C279.153 286.531 279.662 286.724 280.153 287.018C280.648 287.312 281.059 287.756 281.386 288.349C281.713 288.943 281.876 289.738 281.876 290.734V299H279.948V297.301H279.85C279.72 297.573 279.502 297.865 279.197 298.175C278.892 298.485 278.486 298.75 277.98 298.967C277.474 299.185 276.856 299.294 276.126 299.294ZM276.42 297.562C277.182 297.562 277.825 297.413 278.347 297.113C278.876 296.814 279.273 296.427 279.54 295.953C279.812 295.48 279.948 294.982 279.948 294.459V292.695C279.867 292.793 279.687 292.882 279.409 292.964C279.137 293.04 278.821 293.108 278.462 293.168C278.108 293.223 277.762 293.272 277.425 293.315C277.092 293.353 276.823 293.386 276.616 293.413C276.115 293.479 275.647 293.585 275.211 293.732C274.781 293.873 274.432 294.089 274.166 294.377C273.904 294.66 273.774 295.047 273.774 295.537C273.774 296.207 274.021 296.713 274.517 297.056C275.018 297.394 275.652 297.562 276.42 297.562ZM287.322 282.273V299H285.394V282.273H287.322ZM292.094 303.705C291.767 303.705 291.476 303.677 291.22 303.623C290.964 303.574 290.787 303.525 290.689 303.476L291.179 301.777C291.647 301.897 292.061 301.94 292.42 301.908C292.78 301.875 293.098 301.714 293.376 301.426C293.659 301.143 293.918 300.683 294.152 300.045L294.511 299.065L289.872 286.455H291.963L295.426 296.452H295.557L299.02 286.455H301.111L295.785 300.83C295.546 301.478 295.249 302.014 294.895 302.439C294.541 302.869 294.13 303.187 293.662 303.394C293.199 303.601 292.676 303.705 292.094 303.705ZM312.541 289.264L310.81 289.754C310.701 289.466 310.54 289.185 310.328 288.913C310.121 288.635 309.838 288.407 309.478 288.227C309.119 288.047 308.659 287.957 308.098 287.957C307.33 287.957 306.69 288.134 306.179 288.488C305.672 288.837 305.419 289.281 305.419 289.82C305.419 290.299 305.593 290.677 305.942 290.955C306.29 291.233 306.835 291.464 307.575 291.649L309.438 292.107C310.559 292.379 311.395 292.795 311.945 293.356C312.495 293.912 312.77 294.628 312.77 295.504C312.77 296.223 312.563 296.866 312.149 297.432C311.741 297.998 311.169 298.445 310.434 298.771C309.699 299.098 308.844 299.261 307.869 299.261C306.59 299.261 305.531 298.984 304.692 298.428C303.854 297.873 303.323 297.062 303.099 295.994L304.929 295.537C305.103 296.212 305.433 296.719 305.917 297.056C306.407 297.394 307.047 297.562 307.837 297.562C308.735 297.562 309.448 297.372 309.977 296.991C310.51 296.604 310.777 296.141 310.777 295.602C310.777 295.167 310.625 294.802 310.32 294.508C310.015 294.208 309.546 293.985 308.915 293.838L306.824 293.348C305.675 293.076 304.831 292.654 304.292 292.082C303.758 291.505 303.491 290.783 303.491 289.918C303.491 289.21 303.69 288.584 304.088 288.039C304.491 287.495 305.038 287.067 305.729 286.757C306.426 286.446 307.216 286.291 308.098 286.291C309.339 286.291 310.314 286.563 311.022 287.108C311.735 287.652 312.242 288.371 312.541 289.264ZM321.127 286.455V288.088H314.626V286.455H321.127ZM316.521 283.449H318.448V295.406C318.448 295.951 318.527 296.359 318.685 296.631C318.849 296.898 319.056 297.078 319.306 297.17C319.562 297.258 319.831 297.301 320.115 297.301C320.327 297.301 320.501 297.29 320.637 297.268C320.773 297.241 320.882 297.219 320.964 297.203L321.356 298.935C321.225 298.984 321.043 299.033 320.809 299.082C320.575 299.136 320.278 299.163 319.919 299.163C319.374 299.163 318.84 299.046 318.318 298.812C317.8 298.578 317.37 298.221 317.027 297.742C316.69 297.263 316.521 296.659 316.521 295.929V283.449ZM341.734 282.273H343.76V293.348C343.76 294.491 343.49 295.512 342.951 296.411C342.418 297.304 341.664 298.009 340.689 298.526C339.714 299.038 338.571 299.294 337.258 299.294C335.946 299.294 334.803 299.038 333.828 298.526C332.853 298.009 332.097 297.304 331.557 296.411C331.024 295.512 330.757 294.491 330.757 293.348V282.273H332.783V293.185C332.783 294.001 332.962 294.728 333.322 295.365C333.681 295.997 334.193 296.495 334.857 296.86C335.527 297.219 336.327 297.399 337.258 297.399C338.19 297.399 338.99 297.219 339.66 296.86C340.329 296.495 340.841 295.997 341.195 295.365C341.555 294.728 341.734 294.001 341.734 293.185V282.273ZM347.544 303.705V286.455H349.406V288.447H349.634C349.776 288.23 349.972 287.952 350.222 287.614C350.478 287.271 350.843 286.966 351.317 286.7C351.796 286.427 352.444 286.291 353.261 286.291C354.317 286.291 355.248 286.555 356.054 287.083C356.86 287.612 357.489 288.36 357.941 289.33C358.393 290.299 358.619 291.442 358.619 292.76C358.619 294.089 358.393 295.24 357.941 296.215C357.489 297.184 356.863 297.935 356.062 298.469C355.262 298.997 354.339 299.261 353.294 299.261C352.488 299.261 351.842 299.128 351.358 298.861C350.873 298.589 350.5 298.281 350.239 297.938C349.977 297.59 349.776 297.301 349.634 297.072H349.471V303.705H347.544ZM349.438 292.727C349.438 293.675 349.577 294.511 349.855 295.235C350.133 295.953 350.538 296.517 351.072 296.925C351.606 297.328 352.259 297.53 353.032 297.53C353.838 297.53 354.51 297.317 355.05 296.893C355.594 296.463 356.002 295.885 356.275 295.161C356.552 294.432 356.691 293.62 356.691 292.727C356.691 291.845 356.555 291.05 356.283 290.342C356.016 289.629 355.61 289.065 355.066 288.652C354.527 288.232 353.849 288.023 353.032 288.023C352.248 288.023 351.589 288.221 351.056 288.619C350.522 289.011 350.119 289.561 349.847 290.269C349.575 290.971 349.438 291.791 349.438 292.727ZM366.623 303.966C365.692 303.966 364.892 303.846 364.222 303.607C363.552 303.372 362.994 303.062 362.547 302.675C362.106 302.294 361.755 301.886 361.494 301.45L363.029 300.372C363.204 300.601 363.424 300.862 363.691 301.156C363.958 301.456 364.323 301.714 364.785 301.932C365.254 302.155 365.866 302.267 366.623 302.267C367.636 302.267 368.472 302.022 369.131 301.532C369.789 301.042 370.119 300.274 370.119 299.229V296.68H369.955C369.814 296.909 369.612 297.192 369.351 297.53C369.095 297.862 368.725 298.159 368.24 298.42C367.761 298.676 367.113 298.804 366.296 298.804C365.284 298.804 364.374 298.564 363.568 298.085C362.768 297.606 362.134 296.909 361.665 295.994C361.202 295.08 360.971 293.969 360.971 292.662C360.971 291.377 361.197 290.258 361.649 289.305C362.101 288.347 362.73 287.606 363.536 287.083C364.342 286.555 365.273 286.291 366.329 286.291C367.146 286.291 367.794 286.427 368.273 286.7C368.758 286.966 369.128 287.271 369.384 287.614C369.645 287.952 369.847 288.23 369.988 288.447H370.184V286.455H372.046V299.359C372.046 300.438 371.801 301.314 371.311 301.989C370.827 302.67 370.173 303.168 369.351 303.484C368.534 303.805 367.625 303.966 366.623 303.966ZM366.558 297.072C367.331 297.072 367.984 296.895 368.518 296.542C369.052 296.188 369.457 295.679 369.735 295.014C370.013 294.35 370.151 293.555 370.151 292.629C370.151 291.725 370.015 290.928 369.743 290.236C369.471 289.545 369.068 289.003 368.534 288.611C368.001 288.219 367.342 288.023 366.558 288.023C365.741 288.023 365.06 288.23 364.516 288.643C363.977 289.057 363.571 289.613 363.299 290.31C363.032 291.007 362.899 291.78 362.899 292.629C362.899 293.5 363.035 294.271 363.307 294.941C363.585 295.605 363.993 296.128 364.532 296.509C365.077 296.885 365.752 297.072 366.558 297.072ZM375.575 299V286.455H377.437V288.349H377.568C377.796 287.729 378.21 287.225 378.809 286.838C379.408 286.452 380.083 286.259 380.835 286.259C380.976 286.259 381.153 286.261 381.366 286.267C381.578 286.272 381.739 286.28 381.847 286.291V288.251C381.782 288.235 381.632 288.211 381.398 288.178C381.17 288.14 380.927 288.121 380.671 288.121C380.061 288.121 379.517 288.249 379.038 288.505C378.564 288.755 378.188 289.104 377.911 289.55C377.638 289.991 377.502 290.495 377.502 291.061V299H375.575ZM387.824 299.294C387.029 299.294 386.308 299.144 385.66 298.845C385.012 298.54 384.497 298.102 384.116 297.53C383.735 296.953 383.544 296.256 383.544 295.439C383.544 294.72 383.686 294.138 383.969 293.691C384.252 293.239 384.631 292.885 385.104 292.629C385.578 292.373 386.101 292.183 386.672 292.058C387.25 291.927 387.83 291.823 388.412 291.747C389.175 291.649 389.793 291.576 390.266 291.527C390.745 291.472 391.094 291.382 391.312 291.257C391.535 291.132 391.647 290.914 391.647 290.604V290.538C391.647 289.732 391.426 289.106 390.985 288.66C390.549 288.213 389.888 287.99 389 287.99C388.08 287.99 387.359 288.192 386.836 288.594C386.313 288.997 385.946 289.428 385.733 289.885L383.904 289.232C384.23 288.469 384.666 287.876 385.21 287.451C385.76 287.021 386.359 286.721 387.007 286.553C387.661 286.378 388.303 286.291 388.935 286.291C389.338 286.291 389.801 286.34 390.323 286.438C390.852 286.531 391.361 286.724 391.851 287.018C392.346 287.312 392.757 287.756 393.084 288.349C393.411 288.943 393.574 289.738 393.574 290.734V299H391.647V297.301H391.549C391.418 297.573 391.2 297.865 390.895 298.175C390.59 298.485 390.185 298.75 389.678 298.967C389.172 299.185 388.554 299.294 387.824 299.294ZM388.118 297.562C388.88 297.562 389.523 297.413 390.046 297.113C390.574 296.814 390.971 296.427 391.238 295.953C391.51 295.48 391.647 294.982 391.647 294.459V292.695C391.565 292.793 391.385 292.882 391.108 292.964C390.835 293.04 390.519 293.108 390.16 293.168C389.806 293.223 389.46 293.272 389.123 293.315C388.791 293.353 388.521 293.386 388.314 293.413C387.813 293.479 387.345 293.585 386.909 293.732C386.479 293.873 386.131 294.089 385.864 294.377C385.603 294.66 385.472 295.047 385.472 295.537C385.472 296.207 385.72 296.713 386.215 297.056C386.716 297.394 387.35 297.562 388.118 297.562ZM401.83 299.261C400.784 299.261 399.861 298.997 399.061 298.469C398.26 297.935 397.634 297.184 397.182 296.215C396.73 295.24 396.504 294.089 396.504 292.76C396.504 291.442 396.73 290.299 397.182 289.33C397.634 288.36 398.263 287.612 399.069 287.083C399.875 286.555 400.806 286.291 401.862 286.291C402.679 286.291 403.324 286.427 403.798 286.7C404.277 286.966 404.642 287.271 404.892 287.614C405.148 287.952 405.347 288.23 405.489 288.447H405.652V282.273H407.58V299H405.717V297.072H405.489C405.347 297.301 405.146 297.59 404.884 297.938C404.623 298.281 404.25 298.589 403.765 298.861C403.281 299.128 402.635 299.261 401.83 299.261ZM402.091 297.53C402.864 297.53 403.518 297.328 404.051 296.925C404.585 296.517 404.99 295.953 405.268 295.235C405.546 294.511 405.685 293.675 405.685 292.727C405.685 291.791 405.549 290.971 405.276 290.269C405.004 289.561 404.601 289.011 404.067 288.619C403.534 288.221 402.875 288.023 402.091 288.023C401.274 288.023 400.594 288.232 400.049 288.652C399.51 289.065 399.104 289.629 398.832 290.342C398.565 291.05 398.432 291.845 398.432 292.727C398.432 293.62 398.568 294.432 398.84 295.161C399.118 295.885 399.526 296.463 400.065 296.893C400.61 297.317 401.285 297.53 402.091 297.53ZM416.637 299.261C415.429 299.261 414.386 298.995 413.509 298.461C412.638 297.922 411.966 297.17 411.492 296.207C411.024 295.237 410.789 294.11 410.789 292.825C410.789 291.54 411.024 290.408 411.492 289.428C411.966 288.442 412.624 287.674 413.468 287.124C414.318 286.569 415.309 286.291 416.441 286.291C417.095 286.291 417.74 286.4 418.377 286.618C419.014 286.836 419.594 287.19 420.117 287.68C420.64 288.164 421.056 288.807 421.366 289.607C421.677 290.408 421.832 291.393 421.832 292.564V293.381H412.162V291.714H419.872C419.872 291.007 419.73 290.375 419.447 289.82C419.169 289.264 418.772 288.826 418.255 288.505C417.743 288.183 417.138 288.023 416.441 288.023C415.674 288.023 415.009 288.213 414.449 288.594C413.893 288.97 413.466 289.46 413.166 290.065C412.867 290.669 412.717 291.317 412.717 292.009V293.119C412.717 294.067 412.88 294.87 413.207 295.529C413.539 296.182 413.999 296.68 414.587 297.023C415.175 297.361 415.859 297.53 416.637 297.53C417.144 297.53 417.601 297.459 418.01 297.317C418.423 297.17 418.78 296.953 419.08 296.664C419.379 296.37 419.61 296.005 419.774 295.57L421.636 296.092C421.44 296.724 421.111 297.279 420.648 297.759C420.185 298.232 419.613 298.603 418.933 298.869C418.252 299.131 417.487 299.261 416.637 299.261Z" fill="#AFFC41"/>
<path d="M442.25 289.25L442.291 289.23C442.419 289.166 442.563 289.14 442.706 289.155C442.848 289.17 442.983 289.226 443.095 289.316C443.207 289.405 443.291 289.525 443.337 289.661C443.383 289.797 443.389 289.943 443.354 290.082L442.646 292.918C442.611 293.057 442.617 293.203 442.663 293.339C442.708 293.475 442.792 293.595 442.904 293.685C443.016 293.775 443.151 293.831 443.294 293.846C443.437 293.861 443.581 293.835 443.709 293.771L443.75 293.75M452 290C452 291.182 451.767 292.352 451.315 293.444C450.863 294.536 450.2 295.528 449.364 296.364C448.528 297.2 447.536 297.863 446.444 298.315C445.352 298.767 444.182 299 443 299C441.818 299 440.648 298.767 439.556 298.315C438.464 297.863 437.472 297.2 436.636 296.364C435.8 295.528 435.137 294.536 434.685 293.444C434.233 292.352 434 291.182 434 290C434 287.613 434.948 285.324 436.636 283.636C438.324 281.948 440.613 281 443 281C445.387 281 447.676 281.948 449.364 283.636C451.052 285.324 452 287.613 452 290ZM443 286.25H443.008V286.258H443V286.25Z" stroke="white" stroke-width="1.5" stroke-linecap="round" stroke-linejoin="round"/>
<rect x="35" y="347" width="448" height="59" rx="20" fill="#343434"/>
<path d="M78.2898 368.273V385H76.3295L67.2145 371.866H67.0511V385H65.0256V368.273H66.9858L76.1335 381.439H76.2969V368.273H78.2898ZM82.343 385V368.273H92.3728V370.07H84.3685V375.722H91.6214V377.518H84.3685V385H82.343ZM95.842 385V368.273H97.8675V383.203H105.643V385H95.842ZM109.76 368.273L114.072 375.232H114.203L118.515 368.273H120.9L115.64 376.636L120.9 385H118.515L114.203 378.172H114.072L109.76 385H107.375L112.765 376.636L107.375 368.273H109.76Z" fill="white"/>
<path d="M232.333 368.273H234.751L240.435 382.158H240.631L246.316 368.273H248.734V385H246.839V372.291H246.676L241.448 385H239.619L234.391 372.291H234.228V385H232.333V368.273ZM256.225 385.294C255.431 385.294 254.709 385.144 254.061 384.845C253.413 384.54 252.899 384.102 252.517 383.53C252.136 382.953 251.946 382.256 251.946 381.439C251.946 380.72 252.087 380.138 252.37 379.691C252.654 379.239 253.032 378.885 253.506 378.629C253.979 378.373 254.502 378.183 255.074 378.058C255.651 377.927 256.231 377.823 256.814 377.747C257.576 377.649 258.194 377.576 258.668 377.527C259.147 377.472 259.495 377.382 259.713 377.257C259.936 377.132 260.048 376.914 260.048 376.604V376.538C260.048 375.732 259.827 375.106 259.386 374.66C258.951 374.213 258.289 373.99 257.402 373.99C256.481 373.99 255.76 374.192 255.237 374.594C254.714 374.997 254.347 375.428 254.135 375.885L252.305 375.232C252.632 374.469 253.067 373.876 253.612 373.451C254.162 373.021 254.761 372.721 255.409 372.553C256.062 372.378 256.705 372.291 257.336 372.291C257.739 372.291 258.202 372.34 258.725 372.438C259.253 372.531 259.762 372.724 260.252 373.018C260.748 373.312 261.159 373.756 261.485 374.349C261.812 374.943 261.975 375.738 261.975 376.734V385H260.048V383.301H259.95C259.819 383.573 259.601 383.865 259.297 384.175C258.992 384.485 258.586 384.75 258.08 384.967C257.573 385.185 256.955 385.294 256.225 385.294ZM256.52 383.562C257.282 383.562 257.924 383.413 258.447 383.113C258.975 382.814 259.373 382.427 259.64 381.953C259.912 381.48 260.048 380.982 260.048 380.459V378.695C259.966 378.793 259.787 378.882 259.509 378.964C259.237 379.04 258.921 379.108 258.561 379.168C258.208 379.223 257.862 379.272 257.524 379.315C257.192 379.353 256.922 379.386 256.716 379.413C256.215 379.479 255.746 379.585 255.311 379.732C254.881 379.873 254.532 380.089 254.265 380.377C254.004 380.66 253.873 381.047 253.873 381.537C253.873 382.207 254.121 382.713 254.616 383.056C255.117 383.394 255.752 383.562 256.52 383.562ZM265.494 385V372.455H267.356V374.349H267.487C267.715 373.729 268.129 373.225 268.728 372.838C269.327 372.452 270.002 372.259 270.754 372.259C270.895 372.259 271.072 372.261 271.285 372.267C271.497 372.272 271.658 372.28 271.766 372.291V374.251C271.701 374.235 271.551 374.211 271.317 374.178C271.089 374.14 270.846 374.121 270.59 374.121C269.98 374.121 269.436 374.249 268.957 374.505C268.483 374.755 268.107 375.104 267.83 375.55C267.557 375.991 267.421 376.495 267.421 377.061V385H265.494ZM275.848 380.426L275.816 378.041H276.208L281.696 372.455H284.081L278.233 378.368H278.07L275.848 380.426ZM274.051 385V368.273H275.979V385H274.051ZM282.023 385L277.122 378.793L278.494 377.453L284.473 385H282.023ZM291.305 385.261C290.097 385.261 289.054 384.995 288.177 384.461C287.306 383.922 286.634 383.17 286.16 382.207C285.692 381.237 285.457 380.11 285.457 378.825C285.457 377.54 285.692 376.408 286.16 375.428C286.634 374.442 287.292 373.674 288.136 373.124C288.986 372.569 289.977 372.291 291.109 372.291C291.763 372.291 292.408 372.4 293.045 372.618C293.682 372.836 294.262 373.19 294.785 373.68C295.308 374.164 295.724 374.807 296.034 375.607C296.345 376.408 296.5 377.393 296.5 378.564V379.381H286.83V377.714H294.54C294.54 377.007 294.398 376.375 294.115 375.82C293.837 375.264 293.44 374.826 292.923 374.505C292.411 374.183 291.806 374.023 291.109 374.023C290.342 374.023 289.677 374.213 289.116 374.594C288.561 374.97 288.134 375.46 287.834 376.065C287.535 376.669 287.385 377.317 287.385 378.009V379.119C287.385 380.067 287.548 380.87 287.875 381.529C288.207 382.182 288.667 382.68 289.255 383.023C289.843 383.361 290.527 383.53 291.305 383.53C291.812 383.53 292.269 383.459 292.678 383.317C293.091 383.17 293.448 382.953 293.748 382.664C294.047 382.37 294.278 382.005 294.442 381.57L296.304 382.092C296.108 382.724 295.779 383.279 295.316 383.759C294.853 384.232 294.281 384.603 293.6 384.869C292.92 385.131 292.155 385.261 291.305 385.261ZM304.888 372.455V374.088H298.387V372.455H304.888ZM300.282 369.449H302.209V381.406C302.209 381.951 302.288 382.359 302.446 382.631C302.609 382.898 302.816 383.078 303.067 383.17C303.323 383.258 303.592 383.301 303.875 383.301C304.088 383.301 304.262 383.29 304.398 383.268C304.534 383.241 304.643 383.219 304.725 383.203L305.117 384.935C304.986 384.984 304.804 385.033 304.57 385.082C304.335 385.136 304.039 385.163 303.679 385.163C303.135 385.163 302.601 385.046 302.078 384.812C301.561 384.578 301.131 384.221 300.788 383.742C300.45 383.263 300.282 382.659 300.282 381.929V369.449ZM323.665 372.455C323.567 371.627 323.17 370.984 322.473 370.527C321.776 370.07 320.921 369.841 319.908 369.841C319.168 369.841 318.52 369.961 317.964 370.2C317.415 370.44 316.984 370.769 316.674 371.189C316.369 371.608 316.217 372.084 316.217 372.618C316.217 373.064 316.323 373.448 316.535 373.77C316.753 374.085 317.031 374.349 317.368 374.562C317.706 374.769 318.06 374.94 318.43 375.076C318.8 375.207 319.141 375.313 319.451 375.395L321.15 375.852C321.585 375.967 322.07 376.125 322.604 376.326C323.143 376.527 323.657 376.802 324.147 377.151C324.643 377.494 325.051 377.935 325.373 378.474C325.694 379.013 325.854 379.675 325.854 380.459C325.854 381.363 325.618 382.179 325.144 382.909C324.676 383.639 323.989 384.219 323.086 384.649C322.187 385.079 321.095 385.294 319.81 385.294C318.612 385.294 317.575 385.101 316.699 384.714C315.827 384.328 315.141 383.788 314.64 383.097C314.145 382.405 313.864 381.602 313.799 380.688H315.89C315.944 381.319 316.157 381.842 316.527 382.256C316.903 382.664 317.376 382.969 317.948 383.17C318.525 383.366 319.146 383.464 319.81 383.464C320.584 383.464 321.278 383.339 321.893 383.089C322.508 382.833 322.996 382.479 323.355 382.027C323.714 381.57 323.894 381.036 323.894 380.426C323.894 379.871 323.739 379.419 323.429 379.07C323.118 378.722 322.71 378.439 322.203 378.221C321.697 378.003 321.15 377.812 320.562 377.649L318.504 377.061C317.197 376.685 316.162 376.149 315.4 375.452C314.638 374.755 314.256 373.843 314.256 372.716C314.256 371.779 314.51 370.963 315.016 370.266C315.528 369.563 316.214 369.019 317.074 368.632C317.94 368.24 318.906 368.044 319.974 368.044C321.052 368.044 322.01 368.237 322.849 368.624C323.687 369.005 324.352 369.528 324.842 370.192C325.337 370.856 325.598 371.611 325.626 372.455H323.665ZM334.183 385.261C332.975 385.261 331.932 384.995 331.055 384.461C330.184 383.922 329.511 383.17 329.038 382.207C328.569 381.237 328.335 380.11 328.335 378.825C328.335 377.54 328.569 376.408 329.038 375.428C329.511 374.442 330.17 373.674 331.014 373.124C331.864 372.569 332.855 372.291 333.987 372.291C334.641 372.291 335.286 372.4 335.923 372.618C336.56 372.836 337.14 373.19 337.663 373.68C338.185 374.164 338.602 374.807 338.912 375.607C339.223 376.408 339.378 377.393 339.378 378.564V379.381H329.707V377.714H337.418C337.418 377.007 337.276 376.375 336.993 375.82C336.715 375.264 336.318 374.826 335.801 374.505C335.289 374.183 334.684 374.023 333.987 374.023C333.22 374.023 332.555 374.213 331.994 374.594C331.439 374.97 331.012 375.46 330.712 376.065C330.413 376.669 330.263 377.317 330.263 378.009V379.119C330.263 380.067 330.426 380.87 330.753 381.529C331.085 382.182 331.545 382.68 332.133 383.023C332.721 383.361 333.405 383.53 334.183 383.53C334.69 383.53 335.147 383.459 335.555 383.317C335.969 383.17 336.326 382.953 336.625 382.664C336.925 382.37 337.156 382.005 337.32 381.57L339.182 382.092C338.986 382.724 338.656 383.279 338.194 383.759C337.731 384.232 337.159 384.603 336.478 384.869C335.798 385.131 335.033 385.261 334.183 385.261ZM344.238 377.453V385H342.31V372.455H344.172V374.415H344.336C344.63 373.778 345.076 373.266 345.675 372.879C346.274 372.487 347.047 372.291 347.995 372.291C348.844 372.291 349.587 372.465 350.225 372.814C350.862 373.157 351.357 373.68 351.711 374.382C352.065 375.079 352.242 375.961 352.242 377.028V385H350.314V377.159C350.314 376.174 350.058 375.406 349.547 374.856C349.035 374.3 348.332 374.023 347.439 374.023C346.824 374.023 346.274 374.156 345.79 374.423C345.31 374.69 344.932 375.079 344.654 375.591C344.377 376.103 344.238 376.723 344.238 377.453ZM361.22 372.455V374.088H354.719V372.455H361.22ZM356.614 369.449H358.541V381.406C358.541 381.951 358.62 382.359 358.778 382.631C358.941 382.898 359.148 383.078 359.399 383.17C359.655 383.258 359.924 383.301 360.207 383.301C360.42 383.301 360.594 383.29 360.73 383.268C360.866 383.241 360.975 383.219 361.057 383.203L361.449 384.935C361.318 384.984 361.136 385.033 360.902 385.082C360.667 385.136 360.371 385.163 360.011 385.163C359.467 385.163 358.933 385.046 358.411 384.812C357.893 384.578 357.463 384.221 357.12 383.742C356.782 383.263 356.614 382.659 356.614 381.929V369.449ZM364.12 385V372.455H366.047V385H364.12ZM365.1 370.364C364.724 370.364 364.4 370.236 364.128 369.98C363.861 369.724 363.728 369.416 363.728 369.057C363.728 368.697 363.861 368.39 364.128 368.134C364.4 367.878 364.724 367.75 365.1 367.75C365.475 367.75 365.797 367.878 366.064 368.134C366.336 368.39 366.472 368.697 366.472 369.057C366.472 369.416 366.336 369.724 366.064 369.98C365.797 370.236 365.475 370.364 365.1 370.364ZM369.578 385V372.455H371.44V374.415H371.603C371.865 373.745 372.287 373.225 372.869 372.855C373.452 372.479 374.152 372.291 374.968 372.291C375.796 372.291 376.485 372.479 377.035 372.855C377.59 373.225 378.023 373.745 378.333 374.415H378.464C378.785 373.767 379.267 373.252 379.91 372.871C380.552 372.484 381.323 372.291 382.221 372.291C383.343 372.291 384.26 372.642 384.974 373.345C385.687 374.042 386.044 375.128 386.044 376.604V385H384.116V376.604C384.116 375.678 383.863 375.016 383.356 374.619C382.85 374.221 382.254 374.023 381.568 374.023C380.686 374.023 380.002 374.29 379.518 374.823C379.033 375.351 378.791 376.021 378.791 376.832V385H376.831V376.408C376.831 375.694 376.599 375.12 376.136 374.684C375.673 374.243 375.077 374.023 374.348 374.023C373.847 374.023 373.378 374.156 372.943 374.423C372.513 374.69 372.164 375.06 371.897 375.534C371.636 376.002 371.505 376.544 371.505 377.159V385H369.578ZM394.828 385.261C393.619 385.261 392.576 384.995 391.7 384.461C390.828 383.922 390.156 383.17 389.682 382.207C389.214 381.237 388.98 380.11 388.98 378.825C388.98 377.54 389.214 376.408 389.682 375.428C390.156 374.442 390.815 373.674 391.659 373.124C392.508 372.569 393.499 372.291 394.632 372.291C395.285 372.291 395.93 372.4 396.568 372.618C397.205 372.836 397.785 373.19 398.307 373.68C398.83 374.164 399.247 374.807 399.557 375.607C399.867 376.408 400.022 377.393 400.022 378.564V379.381H390.352V377.714H398.062C398.062 377.007 397.921 376.375 397.638 375.82C397.36 375.264 396.962 374.826 396.445 374.505C395.933 374.183 395.329 374.023 394.632 374.023C393.864 374.023 393.2 374.213 392.639 374.594C392.084 374.97 391.656 375.46 391.357 376.065C391.057 376.669 390.907 377.317 390.907 378.009V379.119C390.907 380.067 391.071 380.87 391.397 381.529C391.73 382.182 392.19 382.68 392.778 383.023C393.366 383.361 394.049 383.53 394.828 383.53C395.334 383.53 395.792 383.459 396.2 383.317C396.614 383.17 396.97 382.953 397.27 382.664C397.569 382.37 397.801 382.005 397.964 381.57L399.826 382.092C399.63 382.724 399.301 383.279 398.838 383.759C398.375 384.232 397.804 384.603 397.123 384.869C396.442 385.131 395.677 385.261 394.828 385.261ZM404.882 377.453V385H402.955V372.455H404.817V374.415H404.98C405.274 373.778 405.721 373.266 406.32 372.879C406.919 372.487 407.692 372.291 408.639 372.291C409.489 372.291 410.232 372.465 410.869 372.814C411.506 373.157 412.002 373.68 412.356 374.382C412.709 375.079 412.886 375.961 412.886 377.028V385H410.959V377.159C410.959 376.174 410.703 375.406 410.191 374.856C409.679 374.3 408.977 374.023 408.084 374.023C407.469 374.023 406.919 374.156 406.434 374.423C405.955 374.69 405.576 375.079 405.299 375.591C405.021 376.103 404.882 376.723 404.882 377.453ZM421.865 372.455V374.088H415.363V372.455H421.865ZM417.258 369.449H419.186V381.406C419.186 381.951 419.265 382.359 419.423 382.631C419.586 382.898 419.793 383.078 420.043 383.17C420.299 383.258 420.569 383.301 420.852 383.301C421.064 383.301 421.239 383.29 421.375 383.268C421.511 383.241 421.62 383.219 421.701 383.203L422.093 384.935C421.963 384.984 421.78 385.033 421.546 385.082C421.312 385.136 421.015 385.163 420.656 385.163C420.111 385.163 419.578 385.046 419.055 384.812C418.538 384.578 418.108 384.221 417.765 383.742C417.427 383.263 417.258 382.659 417.258 381.929V369.449Z" fill="#FC41D7"/>
<path d="M442.25 375.25L442.291 375.23C442.419 375.166 442.563 375.14 442.706 375.155C442.848 375.17 442.983 375.226 443.095 375.316C443.207 375.405 443.291 375.525 443.337 375.661C443.383 375.797 443.389 375.943 443.354 376.082L442.646 378.918C442.611 379.057 442.617 379.203 442.663 379.339C442.708 379.475 442.792 379.595 442.904 379.685C443.016 379.775 443.151 379.831 443.294 379.846C443.437 379.861 443.581 379.835 443.709 379.771L443.75 379.75M452 376C452 377.182 451.767 378.352 451.315 379.444C450.863 380.536 450.2 381.528 449.364 382.364C448.528 383.2 447.536 383.863 446.444 384.315C445.352 384.767 444.182 385 443 385C441.818 385 440.648 384.767 439.556 384.315C438.464 383.863 437.472 383.2 436.636 382.364C435.8 381.528 435.137 380.536 434.685 379.444C434.233 378.352 434 377.182 434 376C434 373.613 434.948 371.324 436.636 369.636C438.324 367.948 440.613 367 443 367C445.387 367 447.676 367.948 449.364 369.636C451.052 371.324 452 373.613 452 376ZM443 372.25H443.008V372.258H443V372.25Z" stroke="white" stroke-width="1.5" stroke-linecap="round" stroke-linejoin="round"/>
</g>
<defs>
<filter id="filter0_d_2_296" x="0" y="0" width="518" height="461" filterUnits="userSpaceOnUse" color-interpolation-filters="sRGB">
<feFlood flood-opacity="0" result="BackgroundImageFix"/>
<feColorMatrix in="SourceAlpha" type="matrix" values="0 0 0 0 0 0 0 0 0 0 0 0 0 0 0 0 0 0 127 0" result="hardAlpha"/>
<feMorphology radius="5" operator="dilate" in="SourceAlpha" result="effect1_dropShadow_2_296"/>
<feOffset/>
<feGaussianBlur stdDeviation="2"/>
<feComposite in2="hardAlpha" operator="out"/>
<feColorMatrix type="matrix" values="0 0 0 0 1 0 0 0 0 1 0 0 0 0 1 0 0 0 0.25 0"/>
<feBlend mode="normal" in2="BackgroundImageFix" result="effect1_dropShadow_2_296"/>
<feBlend mode="normal" in="SourceGraphic" in2="effect1_dropShadow_2_296" result="shape"/>
</filter>
</defs>
</svg>
